{
.appVersion = "1349";
classes = (
{
automatic = 1;

glyphs = (
{
glyphname = A;
lastChange = "2019-11-23 18:08:36 +0000";
layers = (
{
guideLines = (
{
position = "{136, 550}";
}
);
hints = (
{
horizontal = 1;
place = "{700, 180}";
type = Stem;
}
);
layerId = "09A42E70-DC24-4DD4-94A7-946B904CEA41";
paths = (
{
closed = 1;
nodes = (
"284 -2 OFFCURVE",
"284 91 OFFCURVE",
"276 137 CURVE",
"314 134 OFFCURVE",
"380 136 OFFCURVE",
"423 137 CURVE",
"415 91 OFFCURVE",
"415 -1 OFFCURVE",
"518 -1 CURVE SMOOTH",
"610 -1 OFFCURVE",
"664 91 OFFCURVE",
"673 241 CURVE SMOOTH",
"690 513 OFFCURVE",
"561 699 OFFCURVE",
"350 699 CURVE SMOOTH",
"139 699 OFFCURVE",
"9 511 OFFCURVE",
"26 241 CURVE SMOOTH",
"35 96 OFFCURVE",
"89 -2 OFFCURVE",
"181 -2 CURVE SMOOTH"
);
},
{
closed = 1;
nodes = (
"259 386 OFFCURVE",
"277 454 OFFCURVE",
"347 454 CURVE SMOOTH",
"417 454 OFFCURVE",
"437 385 OFFCURVE",
"427 315 CURVE",
"374 317 OFFCURVE",
"322 317 OFFCURVE",
"269 315 CURVE"
);
}
);
width = 699;
}
);
unicode = 0041;
},
{
glyphname = AE;
lastChange = "2019-11-08 05:38:37 +0000";
layers = (
{
hints = (
{
horizontal = 1;
place = "{700, 180}";
type = Stem;
}
);
layerId = "09A42E70-DC24-4DD4-94A7-946B904CEA41";
paths = (
{
closed = 1;
nodes = (
"284 -2 OFFCURVE",
"284 91 OFFCURVE",
"286 137 CURVE",
"324 134 OFFCURVE",
"390 136 OFFCURVE",
"433 137 CURVE",
"435 71 OFFCURVE",
"449 0 OFFCURVE",
"542 0 CURVE SMOOTH",
"634 0 OFFCURVE",
"664 91 OFFCURVE",
"673 241 CURVE SMOOTH",
"690 513 OFFCURVE",
"581 699 OFFCURVE",
"370 699 CURVE SMOOTH",
"159 699 OFFCURVE",
"46 520 OFFCURVE",
"46 251 CURVE SMOOTH",
"46 91 OFFCURVE",
"99 -2 OFFCURVE",
"181 -2 CURVE SMOOTH"
);
},
{
closed = 1;
nodes = (
"384 317 OFFCURVE",
"332 317 OFFCURVE",
"279 315 CURVE",
"272 386 OFFCURVE",
"297 454 OFFCURVE",
"357 454 CURVE SMOOTH",
"427 454 OFFCURVE",
"444 385 OFFCURVE",
"437 315 CURVE"
);
},
{
closed = 1;
nodes = (
"926 0 OFFCURVE",
"969 44 OFFCURVE",
"969 97 CURVE SMOOTH",
"969 148 OFFCURVE",
"924 164 OFFCURVE",
"838 164 CURVE SMOOTH",
"722 164 OFFCURVE",
"677 215 OFFCURVE",
"677 317 CURVE SMOOTH",
"677 422 OFFCURVE",
"722 458 OFFCURVE",
"838 458 CURVE SMOOTH",
"938 458 OFFCURVE",
"977 504 OFFCURVE",
"977 557 CURVE SMOOTH",
"977 625 OFFCURVE",
"931 700 OFFCURVE",
"732 700 CURVE SMOOTH",
"524 700 OFFCURVE",
"442 538 OFFCURVE",
"442 338 CURVE SMOOTH",
"442 91 OFFCURVE",
"561 0 OFFCURVE",
"764 0 CURVE SMOOTH"
);
},
{
closed = 1;
nodes = (
"682 226 OFFCURVE",
"857 226 OFFCURVE",
"892 233 CURVE SMOOTH",
"942 243 OFFCURVE",
"964 272 OFFCURVE",
"964 306 CURVE SMOOTH",
"964 341 OFFCURVE",
"940 371 OFFCURVE",
"893 380 CURVE SMOOTH",
"857 387 OFFCURVE",
"694 387 OFFCURVE",
"650 382 CURVE SMOOTH",
"592 375 OFFCURVE",
"560 357 OFFCURVE",
"560 290 CURVE SMOOTH",
"560 242 OFFCURVE",
"618 235 OFFCURVE",
"647 231 CURVE SMOOTH"
);
}
);
width = 1002;
}
);
unicode = 00C6;
},
{
glyphname = B;
lastChange = "2019-11-23 18:08:36 +0000";
layers = (
{
guideLines = (
{
angle = 270;
position = "{249, 374}";
},
{
angle = 270;
position = "{740, 366}";
},
{
position = "{154, 205}";
},
{
position = "{154, 550}";
},
{
position = "{154, 205}";
},
{
position = "{154, 550}";
},
{
position = "{164, 364}";
}
);
layerId = "09A42E70-DC24-4DD4-94A7-946B904CEA41";
paths = (
{
closed = 1;
nodes = (
"565 0 OFFCURVE",
"626 102 OFFCURVE",
"626 188 CURVE SMOOTH",
"626 250 OFFCURVE",
"581 299 OFFCURVE",
"534 307 CURVE",
"598 353 OFFCURVE",
"632 412 OFFCURVE",
"627 493 CURVE SMOOTH",
"619 621 OFFCURVE",
"505 700 OFFCURVE",
"331 700 CURVE SMOOTH",
"134 700 OFFCURVE",
"25 563 OFFCURVE",
"25 346 CURVE SMOOTH",
"25 96 OFFCURVE",
"142 2 OFFCURVE",
"356 1 CURVE SMOOTH"
);
},
{
closed = 1;
nodes = (
"249 155 OFFCURVE",
"249 216 OFFCURVE",
"287 232 CURVE SMOOTH",
"327 249 OFFCURVE",
"411 240 OFFCURVE",
"411 186 CURVE SMOOTH",
"411 131 OFFCURVE",
"328 124 OFFCURVE",
"287 140 CURVE SMOOTH"
);
},
{
closed = 1;
nodes = (
"249 392 OFFCURVE",
"249 460 OFFCURVE",
"287 479 CURVE SMOOTH",
"327 499 OFFCURVE",
"411 489 OFFCURVE",
"411 427 CURVE SMOOTH",
"411 364 OFFCURVE",
"328 355 OFFCURVE",
"287 374 CURVE SMOOTH"
);
}
);
width = 652;
}
);
unicode = 0042;
},
{
glyphname = C;
lastChange = "2019-11-21 23:38:44 +0000";
layers = (
{
guideLines = (
{
position = "{154, 205}";
},
{
position = "{154, 550}";
}
);
layerId = "09A42E70-DC24-4DD4-94A7-946B904CEA41";
paths = (
{
closed = 1;
nodes = (
"513 2 OFFCURVE",
"617 86 OFFCURVE",
"625 172 CURVE SMOOTH",
"630 228 OFFCURVE",
"599 272 OFFCURVE",
"540 272 CURVE SMOOTH",
"456 272 OFFCURVE",
"457 193 OFFCURVE",
"350 193 CURVE SMOOTH",
"282 193 OFFCURVE",
"244 253 OFFCURVE",
"244 323 CURVE SMOOTH",
"244 392 OFFCURVE",
"296 445 OFFCURVE",
"358 445 CURVE SMOOTH",
"467 445 OFFCURVE",
"443 346 OFFCURVE",
"549 346 CURVE SMOOTH",
"616 346 OFFCURVE",
"647 400 OFFCURVE",
"647 454 CURVE SMOOTH",
"647 592 OFFCURVE",
"527 700 OFFCURVE",
"349 700 CURVE SMOOTH",
"160 700 OFFCURVE",
"25 536 OFFCURVE",
"25 352 CURVE SMOOTH",
"25 117 OFFCURVE",
"177 2 OFFCURVE",
"368 2 CURVE SMOOTH"
);
}
);
width = 672;
}
);
unicode = 0043;
},
{
glyphname = D;
lastChange = "2019-11-21 23:38:37 +0000";
layers = (
{
guideLines = (
{
position = "{154, 205}";
},
{
position = "{154, 550}";
}
);
layerId = "09A42E70-DC24-4DD4-94A7-946B904CEA41";
paths = (
{
closed = 1;
nodes = (
"434 0 OFFCURVE",
"649 79 OFFCURVE",
"650 341 CURVE SMOOTH",
"651 613 OFFCURVE",
"439 700 OFFCURVE",
"303 700 CURVE SMOOTH",
"43 700 OFFCURVE",
"25 601 OFFCURVE",
"25 342 CURVE SMOOTH",
"25 83 OFFCURVE",
"46 0 OFFCURVE",
"306 0 CURVE SMOOTH"
);
},
{
closed = 1;
nodes = (
"244 438 LINE",
"367 457 OFFCURVE",
"439 408 OFFCURVE",
"439 315 CURVE SMOOTH",
"439 212 OFFCURVE",
"367 157 OFFCURVE",
"244 176 CURVE"
);
}
);
width = 675;
}
);
unicode = 0044;
},
{
glyphname = Eth;
lastChange = "2019-11-08 07:29:14 +0000";
layers = (
{
components = (
{
name = D;
transform = "{1, 0, 0, 1, 105, 0}";
}
);
layerId = "09A42E70-DC24-4DD4-94A7-946B904CEA41";
paths = (
{
closed = 1;
nodes = (
"349 226 OFFCURVE",
"460 217 OFFCURVE",
"460 307 CURVE SMOOTH",
"460 395 OFFCURVE",
"349 394 OFFCURVE",
"242 394 CURVE SMOOTH",
"136 394 OFFCURVE",
"25 395 OFFCURVE",
"25 307 CURVE SMOOTH",
"25 217 OFFCURVE",
"136 226 OFFCURVE",
"242 226 CURVE SMOOTH"
);
}
);
width = 780;
}
);
unicode = 00D0;
},
{
glyphname = E;
lastChange = "2019-11-23 18:08:36 +0000";
layers = (
{
guideLines = (
{
angle = 270;
position = "{683, 235}";
},
{
angle = 270;
position = "{424, 235}";
},
{
angle = 270;
position = "{381, 235}";
},
{
angle = 270;
position = "{599, 235}";
},
{
position = "{129, 205}";
},
{
position = "{141, 444}";
},
{
angle = 270;
position = "{146, 205}";
}
);
layerId = "09A42E70-DC24-4DD4-94A7-946B904CEA41";
paths = (
{
closed = 1;
nodes = (
"529 0 OFFCURVE",
"572 44 OFFCURVE",
"572 97 CURVE SMOOTH",
"572 128 OFFCURVE",
"556 150 OFFCURVE",
"524 160 CURVE SMOOTH",
"484 172 OFFCURVE",
"435 162 OFFCURVE",
"413 162 CURVE SMOOTH",
"318 162 OFFCURVE",
"280 224 OFFCURVE",
"280 317 CURVE SMOOTH",
"280 413 OFFCURVE",
"317 459 OFFCURVE",
"412 459 CURVE SMOOTH",
"444 459 OFFCURVE",
"486 451 OFFCURVE",
"524 469 CURVE SMOOTH",
"563 487 OFFCURVE",
"580 522 OFFCURVE",
"580 557 CURVE SMOOTH",
"580 623 OFFCURVE",
"534 700 OFFCURVE",
"335 700 CURVE SMOOTH",
"127 700 OFFCURVE",
"25 538 OFFCURVE",
"25 338 CURVE SMOOTH",
"25 33 OFFCURVE",
"231 0 OFFCURVE",
"367 0 CURVE SMOOTH"
);
},
{
closed = 1;
nodes = (
"416 227 OFFCURVE",
"476 229 OFFCURVE",
"495 233 CURVE SMOOTH",
"545 243 OFFCURVE",
"567 272 OFFCURVE",
"567 306 CURVE SMOOTH",
"567 341 OFFCURVE",
"543 371 OFFCURVE",
"496 380 CURVE SMOOTH",
"476 384 OFFCURVE",
"420 386 OFFCURVE",
"365 386 CURVE SMOOTH",
"318 386 OFFCURVE",
"273 384 OFFCURVE",
"253 382 CURVE SMOOTH",
"195 375 OFFCURVE",
"163 357 OFFCURVE",
"163 290 CURVE SMOOTH",
"163 242 OFFCURVE",
"221 235 OFFCURVE",
"250 231 CURVE SMOOTH",
"266 229 OFFCURVE",
"311 227 OFFCURVE",
"359 227 CURVE SMOOTH"
);
}
);
width = 605;
}
);
unicode = 0045;
},
{
glyphname = F;
lastChange = "2019-11-21 23:38:28 +0000";
layers = (
{
guideLines = (
{
angle = 270;
position = "{679, 235}";
},
{
position = "{153, 205}";
}
);
layerId = "09A42E70-DC24-4DD4-94A7-946B904CEA41";
paths = (
{
closed = 1;
nodes = (
"251 1 OFFCURVE",
"269 55 OFFCURVE",
"269 112 CURVE SMOOTH",
"269 194 OFFCURVE",
"247 241 OFFCURVE",
"257 352 CURVE SMOOTH",
"262 406 OFFCURVE",
"326 435 OFFCURVE",
"395 435 CURVE SMOOTH",
"515 435 OFFCURVE",
"593 449 OFFCURVE",
"593 552 CURVE SMOOTH",
"593 644 OFFCURVE",
"515 700 OFFCURVE",
"360 700 CURVE SMOOTH",
"175 700 OFFCURVE",
"25 552 OFFCURVE",
"25 335 CURVE SMOOTH",
"25 96 OFFCURVE",
"88 1 OFFCURVE",
"181 1 CURVE SMOOTH"
);
},
{
closed = 1;
nodes = (
"445 173 OFFCURVE",
"569 157 OFFCURVE",
"569 259 CURVE SMOOTH",
"569 353 OFFCURVE",
"445 344 OFFCURVE",
"328 344 CURVE SMOOTH",
"251 344 OFFCURVE",
"162 353 OFFCURVE",
"162 258 CURVE SMOOTH",
"162 157 OFFCURVE",
"251 173 OFFCURVE",
"328 173 CURVE SMOOTH"
);
}
);
width = 618;
}
);
unicode = 0046;
},
{
glyphname = G;
lastChange = "2019-11-21 23:38:10 +0000";
layers = (
{
guideLines = (
{
angle = 270;
position = "{650, 235}";
},
{
position = "{164, 205}";
},
{
position = "{164, 550}";
}
);
layerId = "09A42E70-DC24-4DD4-94A7-946B904CEA41";
paths = (
{
closed = 1;
nodes = (
"523 -2 OFFCURVE",
"643 95 OFFCURVE",
"643 215 CURVE SMOOTH",
"643 326 OFFCURVE",
"600 374 OFFCURVE",
"458 374 CURVE SMOOTH",
"360 374 OFFCURVE",
"331 336 OFFCURVE",
"331 285 CURVE SMOOTH",
"331 225 OFFCURVE",
"391 209 OFFCURVE",
"480 209 CURVE",
"480 199 OFFCURVE",
"447 167 OFFCURVE",
"379 167 CURVE SMOOTH",
"311 167 OFFCURVE",
"250 208 OFFCURVE",
"250 294 CURVE SMOOTH",
"250 391 OFFCURVE",
"305 445 OFFCURVE",
"392 445 CURVE SMOOTH",
"459 445 OFFCURVE",
"472 416 OFFCURVE",
"539 416 CURVE SMOOTH",
"593 416 OFFCURVE",
"650 441 OFFCURVE",
"650 531 CURVE SMOOTH",
"650 615 OFFCURVE",
"549 700 OFFCURVE",
"382 700 CURVE SMOOTH",
"212 700 OFFCURVE",
"25 590 OFFCURVE",
"25 332 CURVE SMOOTH",
"25 130 OFFCURVE",
"154 1 OFFCURVE",
"379 1 CURVE SMOOTH"
);
}
);
width = 675;
}
);
unicode = 0047;
},
{
glyphname = H;
lastChange = "2019-11-21 23:38:54 +0000";
layers = (
{
layerId = "09A42E70-DC24-4DD4-94A7-946B904CEA41";
paths = (
{
closed = 1;
nodes = (
"692 2 OFFCURVE",
"715 120 OFFCURVE",
"715 348 CURVE SMOOTH",
"715 576 OFFCURVE",
"692 698 OFFCURVE",
"576 698 CURVE SMOOTH",
"459 698 OFFCURVE",
"445 566 OFFCURVE",
"445 348 CURVE SMOOTH",
"445 130 OFFCURVE",
"459 2 OFFCURVE",
"576 2 CURVE SMOOTH"
);
},
{
closed = 1;
nodes = (
"280 1 OFFCURVE",
"295 130 OFFCURVE",
"295 348 CURVE SMOOTH",
"295 566 OFFCURVE",
"280 697 OFFCURVE",
"163 697 CURVE SMOOTH",
"46 697 OFFCURVE",
"25 576 OFFCURVE",
"25 348 CURVE SMOOTH",
"25 120 OFFCURVE",
"46 1 OFFCURVE",
"163 1 CURVE SMOOTH"
);
},
{
closed = 1;
nodes = (
"499 239 OFFCURVE",
"614 236 OFFCURVE",
"614 329 CURVE SMOOTH",
"614 431 OFFCURVE",
"496 430 OFFCURVE",
"365 430 CURVE SMOOTH",
"260 430 OFFCURVE",
"156 439 OFFCURVE",
"156 335 CURVE SMOOTH",
"156 235 OFFCURVE",
"251 239 OFFCURVE",
"345 239 CURVE SMOOTH"
);
}
);
width = 740;
}
);
unicode = 0048;
},
{
glyphname = Hbar;
lastChange = "2019-11-10 18:37:19 +0000";
layers = (
{
layerId = "09A42E70-DC24-4DD4-94A7-946B904CEA41";
paths = (
{
closed = 1;
nodes = (
"738 462 OFFCURVE",
"848 454 OFFCURVE",
"848 540 CURVE SMOOTH",
"848 625 OFFCURVE",
"738 625 OFFCURVE",
"435 625 CURVE SMOOTH",
"135 625 OFFCURVE",
"25 625 OFFCURVE",
"25 540 CURVE SMOOTH",
"25 454 OFFCURVE",
"135 462 OFFCURVE",
"435 462 CURVE SMOOTH"
);
},
{
closed = 1;
nodes = (
"758 2 OFFCURVE",
"781 120 OFFCURVE",
"781 348 CURVE SMOOTH",
"781 576 OFFCURVE",
"758 699 OFFCURVE",
"642 699 CURVE SMOOTH",
"525 699 OFFCURVE",
"511 566 OFFCURVE",
"511 348 CURVE SMOOTH",
"511 130 OFFCURVE",
"525 2 OFFCURVE",
"642 2 CURVE SMOOTH"
);
},
{
closed = 1;
nodes = (
"346 1 OFFCURVE",
"361 130 OFFCURVE",
"361 348 CURVE SMOOTH",
"361 566 OFFCURVE",
"346 698 OFFCURVE",
"229 698 CURVE SMOOTH",
"112 698 OFFCURVE",
"91 576 OFFCURVE",
"91 348 CURVE SMOOTH",
"91 120 OFFCURVE",
"112 1 OFFCURVE",
"229 1 CURVE SMOOTH"
);
},
{
closed = 1;
nodes = (
"565 230 OFFCURVE",
"680 227 OFFCURVE",
"680 316 CURVE SMOOTH",
"680 413 OFFCURVE",
"562 413 OFFCURVE",
"431 413 CURVE SMOOTH",
"326 413 OFFCURVE",
"222 421 OFFCURVE",
"222 322 CURVE SMOOTH",
"222 226 OFFCURVE",
"317 230 OFFCURVE",
"411 230 CURVE SMOOTH"
);
}
);
width = 873;
}
);
unicode = 0126;
},
{
glyphname = I;
lastChange = "2019-11-21 23:33:04 +0000";
layers = (
{
guideLines = (
{
angle = 270;
position = "{474, 238}";
}
);
layerId = "09A42E70-DC24-4DD4-94A7-946B904CEA41";
paths = (
{
closed = 1;
nodes = (
"337 20 OFFCURVE",
"355 132 OFFCURVE",
"355 347 CURVE SMOOTH",
"355 563 OFFCURVE",
"337 678 OFFCURVE",
"246 678 CURVE SMOOTH",
"155 678 OFFCURVE",
"145 553 OFFCURVE",
"145 347 CURVE SMOOTH",
"145 141 OFFCURVE",
"155 20 OFFCURVE",
"246 20 CURVE SMOOTH"
);
},
{
closed = 1;
nodes = (
"346 3 OFFCURVE",
"457 3 OFFCURVE",
"457 94 CURVE SMOOTH",
"457 185 OFFCURVE",
"346 185 OFFCURVE",
"251 185 CURVE SMOOTH",
"157 185 OFFCURVE",
"47 185 OFFCURVE",
"47 94 CURVE SMOOTH",
"47 3 OFFCURVE",
"157 3 OFFCURVE",
"251 3 CURVE SMOOTH"
);
},
{
closed = 1;
nodes = (
"354 500 OFFCURVE",
"476 500 OFFCURVE",
"476 600 CURVE SMOOTH",
"476 700 OFFCURVE",
"354 700 OFFCURVE",
"250 700 CURVE SMOOTH",
"146 700 OFFCURVE",
"25 700 OFFCURVE",
"25 600 CURVE SMOOTH",
"25 500 OFFCURVE",
"146 500 OFFCURVE",
"250 500 CURVE SMOOTH"
);
}
);
width = 501;
}
);
unicode = 0049;
},
{
glyphname = J;
lastChange = "2019-11-21 23:37:03 +0000";
layers = (
{
layerId = "09A42E70-DC24-4DD4-94A7-946B904CEA41";
paths = (
{
closed = 1;
nodes = (
"444 0 OFFCURVE",
"530 116 OFFCURVE",
"530 340 CURVE SMOOTH",
"530 627 OFFCURVE",
"503 652 OFFCURVE",
"393 652 CURVE SMOOTH",
"324 652 OFFCURVE",
"296 627 OFFCURVE",
"298 402 CURVE SMOOTH",
"299 280 OFFCURVE",
"299 215 OFFCURVE",
"246 215 CURVE SMOOTH",
"186 215 OFFCURVE",
"211 304 OFFCURVE",
"117 304 CURVE SMOOTH",
"72 304 OFFCURVE",
"25 269 OFFCURVE",
"25 199 CURVE SMOOTH",
"25 95 OFFCURVE",
"117 0 OFFCURVE",
"257 0 CURVE SMOOTH"
);
},
{
closed = 1;
nodes = (
"523 461 OFFCURVE",
"655 467 OFFCURVE",
"655 581 CURVE SMOOTH",
"655 694 OFFCURVE",
"523 700 OFFCURVE",
"383 700 CURVE SMOOTH",
"243 700 OFFCURVE",
"110 694 OFFCURVE",
"110 581 CURVE SMOOTH",
"110 467 OFFCURVE",
"243 461 OFFCURVE",
"385 461 CURVE SMOOTH"
);
}
);
width = 680;
}
);
unicode = 004A;
},
{
glyphname = K;
lastChange = "2019-11-21 23:39:01 +0000";
layers = (
{
layerId = "09A42E70-DC24-4DD4-94A7-946B904CEA41";
paths = (
{
closed = 1;
nodes = (
"556 0 OFFCURVE",
"612 33 OFFCURVE",
"612 118 CURVE SMOOTH",
"612 218 OFFCURVE",
"497 297 OFFCURVE",
"398 343 CURVE",
"525 388 OFFCURVE",
"613 480 OFFCURVE",
"613 574 CURVE SMOOTH",
"613 643 OFFCURVE",
"568 697 OFFCURVE",
"505 697 CURVE SMOOTH",
"388 697 OFFCURVE",
"273 504 OFFCURVE",
"233 421 CURVE SMOOTH",
"221 396 OFFCURVE",
"213 369 OFFCURVE",
"213 341 CURVE SMOOTH",
"213 319 OFFCURVE",
"218 298 OFFCURVE",
"228 277 CURVE SMOOTH",
"293 146 OFFCURVE",
"383 0 OFFCURVE",
"498 0 CURVE SMOOTH"
);
},
{
closed = 1;
nodes = (
"264 0 OFFCURVE",
"252 164 OFFCURVE",
"252 298 CURVE SMOOTH",
"252 338 OFFCURVE",
"253 447 OFFCURVE",
"253 489 CURVE SMOOTH",
"253 625 OFFCURVE",
"227 700 OFFCURVE",
"143 700 CURVE SMOOTH",
"70 700 OFFCURVE",
"32 630 OFFCURVE",
"30 534 CURVE SMOOTH",
"27 503 OFFCURVE",
"25 342 OFFCURVE",
"25 277 CURVE SMOOTH",
"25 146 OFFCURVE",
"25 0 OFFCURVE",
"137 0 CURVE SMOOTH"
);
}
);
width = 638;
}
);
unicode = 004B;
},
{
glyphname = L;
lastChange = "2019-11-21 23:38:22 +0000";
layers = (
{
layerId = "09A42E70-DC24-4DD4-94A7-946B904CEA41";
paths = (
{
closed = 1;
nodes = (
"440 0 OFFCURVE",
"590 0 OFFCURVE",
"590 132 CURVE SMOOTH",
"590 270 OFFCURVE",
"381 265 OFFCURVE",
"274 231 CURVE",
"293 332 OFFCURVE",
"316 454 OFFCURVE",
"316 554 CURVE SMOOTH",
"316 633 OFFCURVE",
"270 700 OFFCURVE",
"187 700 CURVE SMOOTH",
"43 700 OFFCURVE",
"25 534 OFFCURVE",
"25 374 CURVE SMOOTH",
"25 293 OFFCURVE",
"26 216 OFFCURVE",
"40 166 CURVE SMOOTH",
"71 51 OFFCURVE",
"174 0 OFFCURVE",
"303 0 CURVE SMOOTH"
);
}
);
width = 615;
}
);
unicode = 004C;
},
{
glyphname = Lslash;
lastChange = "2019-11-09 06:51:46 +0000";
layers = (
{
components = (
{
name = L;
transform = "{1, 0, 0, 1, 112, 0}";
}
);
layerId = "09A42E70-DC24-4DD4-94A7-946B904CEA41";
paths = (
{
closed = 1;
nodes = (
"510 398 OFFCURVE",
"585 446 OFFCURVE",
"555 526 CURVE SMOOTH",
"523 604 OFFCURVE",
"439 579 OFFCURVE",
"258 493 CURVE SMOOTH",
"76 410 OFFCURVE",
"0 364 OFFCURVE",
"32 285 CURVE SMOOTH",
"65 207 OFFCURVE",
"145 231 OFFCURVE",
"327 316 CURVE SMOOTH"
);
}
);
width = 727;
}
);
unicode = 0141;
},
{
glyphname = M;
lastChange = "2019-11-21 23:37:15 +0000";
layers = (
{
guideLines = (
{
angle = 270;
position = "{414, 386}";
},
{
position = "{154, 205}";
},
{
position = "{154, 550}";
},
{
position = "{164, 364}";
}
);
layerId = "09A42E70-DC24-4DD4-94A7-946B904CEA41";
paths = (
{
closed = 1;
nodes = (
"461 0 OFFCURVE",
"492 28 OFFCURVE",
"502 65 CURVE SMOOTH",
"527 159 OFFCURVE",
"495 329 OFFCURVE",
"541 329 CURVE SMOOTH",
"606 329 OFFCURVE",
"560 171 OFFCURVE",
"560 90 CURVE SMOOTH",
"560 23 OFFCURVE",
"592 0 OFFCURVE",
"646 0 CURVE SMOOTH",
"744 0 OFFCURVE",
"804 185 OFFCURVE",
"804 322 CURVE SMOOTH",
"804 539 OFFCURVE",
"717 690 OFFCURVE",
"565 690 CURVE SMOOTH",
"473 690 OFFCURVE",
"427 618 OFFCURVE",
"414 555 CURVE",
"399 618 OFFCURVE",
"354 690 OFFCURVE",
"261 690 CURVE SMOOTH",
"102 690 OFFCURVE",
"25 521 OFFCURVE",
"25 344 CURVE SMOOTH",
"25 199 OFFCURVE",
"77 2 OFFCURVE",
"182 2 CURVE SMOOTH",
"234 2 OFFCURVE",
"266 23 OFFCURVE",
"266 90 CURVE SMOOTH",
"266 171 OFFCURVE",
"221 329 OFFCURVE",
"287 329 CURVE SMOOTH",
"333 329 OFFCURVE",
"297 157 OFFCURVE",
"324 65 CURVE SMOOTH",
"335 27 OFFCURVE",
"365 0 OFFCURVE",
"412 0 CURVE SMOOTH"
);
}
);
width = 829;
}
);
unicode = 004D;
},
{
glyphname = N;
lastChange = "2019-11-21 23:36:27 +0000";
layers = (
{
layerId = "09A42E70-DC24-4DD4-94A7-946B904CEA41";
paths = (
{
closed = 1;
nodes = (
"275 0 OFFCURVE",
"273 126 OFFCURVE",
"270 311 CURVE",
"328 164 OFFCURVE",
"369 0 OFFCURVE",
"483 0 CURVE SMOOTH",
"642 0 OFFCURVE",
"688 234 OFFCURVE",
"688 369 CURVE SMOOTH",
"688 504 OFFCURVE",
"667 699 OFFCURVE",
"543 699 CURVE SMOOTH",
"433 699 OFFCURVE",
"404 559 OFFCURVE",
"413 388 CURVE",
"350 556 OFFCURVE",
"308 699 OFFCURVE",
"206 699 CURVE SMOOTH",
"60 699 OFFCURVE",
"25 504 OFFCURVE",
"25 369 CURVE SMOOTH",
"25 234 OFFCURVE",
"56 0 OFFCURVE",
"161 0 CURVE SMOOTH"
);
}
);
width = 713;
}
);
unicode = 004E;
},
{
glyphname = Eng;
lastChange = "2019-11-12 12:32:10 +0000";
layers = (
{
layerId = "09A42E70-DC24-4DD4-94A7-946B904CEA41";
paths = (
{
closed = 1;
nodes = (
"25 234 OFFCURVE",
"57 0 OFFCURVE",
"176 0 CURVE SMOOTH",
"304 0 OFFCURVE",
"276 211 OFFCURVE",
"269 321 CURVE",
"344 146 OFFCURVE",
"419 -7 OFFCURVE",
"496 0 CURVE",
"487 -51 OFFCURVE",
"444 -47 OFFCURVE",
"399 -47 CURVE SMOOTH",
"364 -47 OFFCURVE",
"322 -62 OFFCURVE",
"322 -112 CURVE SMOOTH",
"322 -168 OFFCURVE",
"377 -196 OFFCURVE",
"435 -196 CURVE SMOOTH",
"556 -196 OFFCURVE",
"643 -121 OFFCURVE",
"680 -1 CURVE SMOOTH",
"712 102 OFFCURVE",
"714 230 OFFCURVE",
"714 369 CURVE SMOOTH",
"714 504 OFFCURVE",
"692 699 OFFCURVE",
"553 699 CURVE SMOOTH",
"460 699 OFFCURVE",
"436 605 OFFCURVE",
"436 477 CURVE SMOOTH",
"436 449 OFFCURVE",
"437 419 OFFCURVE",
"439 388 CURVE",
"373 556 OFFCURVE",
"329 699 OFFCURVE",
"213 699 CURVE SMOOTH",
"62 699 OFFCURVE",
"25 504 OFFCURVE",
"25 369 CURVE SMOOTH"
);
}
);
width = 739;
}
);
unicode = 014A;
},
{
glyphname = O;
lastChange = "2019-11-21 23:24:18 +0000";
layers = (
{
layerId = "09A42E70-DC24-4DD4-94A7-946B904CEA41";
paths = (
{
closed = 1;
nodes = (
"555 3 OFFCURVE",
"711 157 OFFCURVE",
"707 349 CURVE SMOOTH",
"704 549 OFFCURVE",
"550 700 OFFCURVE",
"366 698 CURVE SMOOTH",
"175 697 OFFCURVE",
"22 540 OFFCURVE",
"25 349 CURVE SMOOTH",
"29 150 OFFCURVE",
"182 -4 OFFCURVE",
"366 -1 CURVE SMOOTH"
);
},
{
closed = 1;
nodes = (
"310 194 OFFCURVE",
"259 240 OFFCURVE",
"259 313 CURVE SMOOTH",
"259 387 OFFCURVE",
"310 433 OFFCURVE",
"369 433 CURVE SMOOTH",
"428 433 OFFCURVE",
"479 387 OFFCURVE",
"479 313 CURVE SMOOTH",
"480 240 OFFCURVE",
"428 194 OFFCURVE",
"369 194 CURVE SMOOTH"
);
}
);
width = 732;
}
);
unicode = 004F;
},
{
glyphname = Oslash;
lastChange = "2019-11-22 12:03:17 +0000";
layers = (
{
hints = (
{
origin = "{0, 8}";
target = "{1, 2}";
type = Stem;
},
{
origin = "{2, 5}";
target = "{2, 11}";
type = Stem;
},
{
origin = "{1, 8}";
target = "{0, 2}";
type = Stem;
}
);
layerId = "09A42E70-DC24-4DD4-94A7-946B904CEA41";
paths = (
{
closed = 1;
nodes = (
"554 4 OFFCURVE",
"710 157 OFFCURVE",
"706 349 CURVE SMOOTH",
"703 549 OFFCURVE",
"549 700 OFFCURVE",
"365 698 CURVE SMOOTH",
"174 697 OFFCURVE",
"21 540 OFFCURVE",
"24 349 CURVE SMOOTH",
"28 150 OFFCURVE",
"182 -4 OFFCURVE",
"365 -1 CURVE SMOOTH"
);
},
{
closed = 1;
nodes = (
"296 167 OFFCURVE",
"234 224 OFFCURVE",
"233 313 CURVE SMOOTH",
"234 403 OFFCURVE",
"296 460 OFFCURVE",
"368 459 CURVE SMOOTH",
"440 460 OFFCURVE",
"503 404 OFFCURVE",
"502 313 CURVE SMOOTH",
"504 224 OFFCURVE",
"440 167 OFFCURVE",
"368 168 CURVE SMOOTH"
);
},
{
closed = 1;
nodes = (
"620 633 OFFCURVE",
"644 681 OFFCURVE",
"597 708 CURVE SMOOTH",
"550 735 OFFCURVE",
"521 690 OFFCURVE",
"331 362 CURVE SMOOTH",
"141 34 OFFCURVE",
"118 -13 OFFCURVE",
"165 -40 CURVE SMOOTH",
"212 -67 OFFCURVE",
"240 -23 OFFCURVE",
"430 305 CURVE SMOOTH"
);
}
);
width = 731;
}
);
unicode = 00D8;
},
{
glyphname = P;
lastChange = "2019-11-21 23:24:32 +0000";
layers = (
{
guideLines = (
{
position = "{208, 438}";
}
);
layerId = "09A42E70-DC24-4DD4-94A7-946B904CEA41";
paths = (
{
closed = 1;
nodes = (
"270 -1 OFFCURVE",
"272 80 OFFCURVE",
"259 143 CURVE",
"407 83 OFFCURVE",
"633 158 OFFCURVE",
"633 417 CURVE SMOOTH",
"633 590 OFFCURVE",
"501 698 OFFCURVE",
"338 698 CURVE SMOOTH",
"123 698 OFFCURVE",
"25 514 OFFCURVE",
"25 333 CURVE SMOOTH",
"25 177 OFFCURVE",
"45 -1 OFFCURVE",
"166 -1 CURVE SMOOTH"
);
},
{
closed = 1;
nodes = (
"300.534 278.521 OFFCURVE",
"259.449 319.606 OFFCURVE",
"259.449 367.38 CURVE SMOOTH",
"259.449 415.154 OFFCURVE",
"300.534 456.24 OFFCURVE",
"348.308 456.24 CURVE SMOOTH",
"396.082 456.24 OFFCURVE",
"437.168 415.154 OFFCURVE",
"437.168 367.38 CURVE SMOOTH",
"437.168 319.606 OFFCURVE",
"396.082 278.521 OFFCURVE",
"348.308 278.521 CURVE SMOOTH"
);
}
);
width = 658;
}
);
unicode = 0050;
},
{
glyphname = Thorn;
lastChange = "2019-11-09 17:31:34 +0000";
layers = (
{
layerId = "09A42E70-DC24-4DD4-94A7-946B904CEA41";
paths = (
{
closed = 1;
nodes = (
"303 256 OFFCURVE",
"261 294 OFFCURVE",
"261 339 CURVE SMOOTH",
"261 384 OFFCURVE",
"303 423 OFFCURVE",
"350 423 CURVE SMOOTH",
"398 423 OFFCURVE",
"439 384 OFFCURVE",
"439 339 CURVE SMOOTH",
"439 294 OFFCURVE",
"398 256 OFFCURVE",
"350 256 CURVE SMOOTH"
);
},
{
closed = 1;
nodes = (
"269 630 OFFCURVE",
"267 700 OFFCURVE",
"168 700 CURVE SMOOTH",
"41 700 OFFCURVE",
"25 489 OFFCURVE",
"25 356 CURVE SMOOTH",
"25 249 OFFCURVE",
"41 -1 OFFCURVE",
"168 -1 CURVE SMOOTH",
"270 -1 OFFCURVE",
"274 70 OFFCURVE",
"261 126 CURVE",
"295 109 OFFCURVE",
"336 99 OFFCURVE",
"378 99 CURVE SMOOTH",
"502 99 OFFCURVE",
"635 189 OFFCURVE",
"635 367 CURVE SMOOTH",
"635 537 OFFCURVE",
"490 622 OFFCURVE",
"361 622 CURVE SMOOTH",
"325 622 OFFCURVE",
"291 616 OFFCURVE",
"261 603 CURVE"
);
}
);
width = 660;
}
);
unicode = 00DE;
},
{
glyphname = Q;
lastChange = "2019-11-21 23:19:55 +0000";
layers = (
{
layerId = "09A42E70-DC24-4DD4-94A7-946B904CEA41";
paths = (
{
closed = 1;
nodes = (
"540 8 OFFCURVE",
"697 184 OFFCURVE",
"702 354 CURVE SMOOTH",
"696 549 OFFCURVE",
"552 698 OFFCURVE",
"362 700 CURVE SMOOTH",
"174 698 OFFCURVE",
"29 551 OFFCURVE",
"25 354 CURVE SMOOTH",
"29 159 OFFCURVE",
"173 10 OFFCURVE",
"362 8 CURVE SMOOTH"
);
},
{
closed = 1;
nodes = (
"295.832 167.299 OFFCURVE",
"232.279 230.852 OFFCURVE",
"232.279 304.75 CURVE SMOOTH",
"232.279 378.649 OFFCURVE",
"295.832 442.201 OFFCURVE",
"369.73 442.201 CURVE SMOOTH",
"443.629 442.201 OFFCURVE",
"507.181 378.649 OFFCURVE",
"507.181 304.75 CURVE SMOOTH",
"507.181 230.852 OFFCURVE",
"443.629 167.299 OFFCURVE",
"369.73 167.299 CURVE SMOOTH"
);
},
{
closed = 1;
nodes = (
"640 -28 OFFCURVE",
"720 29 OFFCURVE",
"685 118 CURVE SMOOTH",
"662 177 OFFCURVE",
"532 295 OFFCURVE",
"468 338 CURVE SMOOTH",
"389 389 OFFCURVE",
"297 310 OFFCURVE",
"349 215 CURVE SMOOTH",
"400 123 OFFCURVE",
"495 47 OFFCURVE",
"571 8 CURVE SMOOTH"
);
}
);
width = 727;
}
);
unicode = 0051;
},
{
glyphname = R;
lastChange = "2019-11-21 23:31:05 +0000";
layers = (
{
guideLines = (
{
angle = 270;
position = "{598, 232}";
}
);
layerId = "09A42E70-DC24-4DD4-94A7-946B904CEA41";
paths = (
{
closed = 1;
nodes = (
"280 -1 OFFCURVE",
"282 80 OFFCURVE",
"269 143 CURVE",
"417 83 OFFCURVE",
"633 158 OFFCURVE",
"633 417 CURVE SMOOTH",
"633 590 OFFCURVE",
"501 698 OFFCURVE",
"338 698 CURVE SMOOTH",
"123 698 OFFCURVE",
"25 514 OFFCURVE",
"25 333 CURVE SMOOTH",
"25 177 OFFCURVE",
"55 -1 OFFCURVE",
"176 -1 CURVE SMOOTH"
);
},
{
closed = 1;
nodes = (
"532 0 OFFCURVE",
"584 38 OFFCURVE",
"584 95 CURVE SMOOTH",
"584 176 OFFCURVE",
"505 277 OFFCURVE",
"423 277 CURVE SMOOTH",
"363 277 OFFCURVE",
"322 236 OFFCURVE",
"322 181 CURVE SMOOTH",
"322 144 OFFCURVE",
"354 65 OFFCURVE",
"398 31 CURVE SMOOTH",
"428 8 OFFCURVE",
"451 0 OFFCURVE",
"481 0 CURVE SMOOTH"
);
},
{
closed = 1;
nodes = (
"300.534 284.668 OFFCURVE",
"259.449 324.255 OFFCURVE",
"259.449 370.287 CURVE SMOOTH",
"259.449 416.319 OFFCURVE",
"300.534 455.907 OFFCURVE",
"348.308 455.907 CURVE SMOOTH",
"396.082 455.907 OFFCURVE",
"437.168 416.319 OFFCURVE",
"437.168 370.287 CURVE SMOOTH",
"437.168 324.255 OFFCURVE",
"396.082 284.668 OFFCURVE",
"348.308 284.668 CURVE SMOOTH"
);
}
);
width = 658;
}
);
unicode = 0052;
},
{
glyphname = S;
lastChange = "2019-11-21 23:20:47 +0000";
layers = (
{
layerId = "09A42E70-DC24-4DD4-94A7-946B904CEA41";
paths = (
{
closed = 1;
nodes = (
"453 -1 OFFCURVE",
"549 65 OFFCURVE",
"549 179 CURVE SMOOTH",
"549 274 OFFCURVE",
"486 326 OFFCURVE",
"368 369 CURVE SMOOTH",
"336 381 OFFCURVE",
"301 390 OFFCURVE",
"301 410 CURVE SMOOTH",
"301 431 OFFCURVE",
"321 442 OFFCURVE",
"337 442 CURVE SMOOTH",
"393 442 OFFCURVE",
"376 417 OFFCURVE",
"466 417 CURVE SMOOTH",
"512 417 OFFCURVE",
"571 447 OFFCURVE",
"571 527 CURVE SMOOTH",
"571 624 OFFCURVE",
"453 699 OFFCURVE",
"303 699 CURVE SMOOTH",
"147 699 OFFCURVE",
"25 594 OFFCURVE",
"25 476 CURVE SMOOTH",
"25 399 OFFCURVE",
"47 349 OFFCURVE",
"125 302 CURVE SMOOTH",
"202 256 OFFCURVE",
"282 244 OFFCURVE",
"282 219 CURVE SMOOTH",
"282 202 OFFCURVE",
"271 193 OFFCURVE",
"249 193 CURVE SMOOTH",
"206 193 OFFCURVE",
"181 235 OFFCURVE",
"113 235 CURVE SMOOTH",
"64 235 OFFCURVE",
"25 202 OFFCURVE",
"25 146 CURVE SMOOTH",
"25 56 OFFCURVE",
"159 -1 OFFCURVE",
"288 -1 CURVE SMOOTH"
);
}
);
width = 596;
}
);
unicode = 0053;
},
{
glyphname = Schwa;
lastChange = "2019-11-10 18:36:45 +0000";
layers = (
{
layerId = "09A42E70-DC24-4DD4-94A7-946B904CEA41";
paths = (
{
closed = 1;
nodes = (
"503 1 OFFCURVE",
"632 146 OFFCURVE",
"632 349 CURVE SMOOTH",
"632 537 OFFCURVE",
"513 700 OFFCURVE",
"285 700 CURVE SMOOTH",
"106 700 OFFCURVE",
"30 604 OFFCURVE",
"30 536 CURVE SMOOTH",
"30 484 OFFCURVE",
"68 454 OFFCURVE",
"117 454 CURVE SMOOTH",
"175 454 OFFCURVE",
"199 480 OFFCURVE",
"274 480 CURVE SMOOTH",
"335 480 OFFCURVE",
"398 465 OFFCURVE",
"432 398 CURVE",
"389 418 OFFCURVE",
"340 418 OFFCURVE",
"291 418 CURVE SMOOTH",
"157 418 OFFCURVE",
"25 355 OFFCURVE",
"25 223 CURVE SMOOTH",
"25 98 OFFCURVE",
"146 1 OFFCURVE",
"321 1 CURVE SMOOTH"
);
},
{
closed = 1;
nodes = (
"243 145 OFFCURVE",
"215 179 OFFCURVE",
"215 213 CURVE SMOOTH",
"215 254 OFFCURVE",
"257 271 OFFCURVE",
"319 271 CURVE SMOOTH",
"352 271 OFFCURVE",
"395 264 OFFCURVE",
"415 252 CURVE",
"415 193 OFFCURVE",
"373 145 OFFCURVE",
"313 145 CURVE SMOOTH"
);
}
);
width = 657;
}
);
unicode = 018F;
},
{
glyphname = T;
lastChange = "2019-11-23 18:08:36 +0000";
layers = (
{
layerId = "09A42E70-DC24-4DD4-94A7-946B904CEA41";
paths = (
{
closed = 1;
nodes = (
"622 417 OFFCURVE",
"732 439 OFFCURVE",
"732 551 CURVE SMOOTH",
"732 665 OFFCURVE",
"612 697 OFFCURVE",
"376 697 CURVE SMOOTH",
"141 697 OFFCURVE",
"25 665 OFFCURVE",
"25 551 CURVE SMOOTH",
"25 439 OFFCURVE",
"131 417 OFFCURVE",
"376 417 CURVE SMOOTH"
);
},
{
closed = 1;
nodes = (
"475 2 OFFCURVE",
"504 92 OFFCURVE",
"504 296 CURVE SMOOTH",
"504 521 OFFCURVE",
"475 614 OFFCURVE",
"375 614 CURVE SMOOTH",
"275 614 OFFCURVE",
"254 512 OFFCURVE",
"254 296 CURVE SMOOTH",
"254 101 OFFCURVE",
"275 2 OFFCURVE",
"375 2 CURVE SMOOTH"
);
}
);
width = 757;
}
);
unicode = 0054;
},
{
glyphname = Tbar;
lastChange = "2019-11-11 08:59:53 +0000";
layers = (
{
components = (
{
name = T;
}
);
hints = (
{
horizontal = 1;
origin = "{0, 11}";
target = "{0, 5}";
type = Stem;
},
{
origin = "{0, 8}";
target = "{0, 2}";
type = Stem;
}
);
layerId = "09A42E70-DC24-4DD4-94A7-946B904CEA41";
paths = (
{
closed = 1;
nodes = (
"584 165 OFFCURVE",
"677 157 OFFCURVE",
"677 243 CURVE SMOOTH",
"677 328 OFFCURVE",
"584 328 OFFCURVE",
"375 328 CURVE SMOOTH",
"169 328 OFFCURVE",
"76 328 OFFCURVE",
"76 243 CURVE SMOOTH",
"76 157 OFFCURVE",
"169 165 OFFCURVE",
"375 165 CURVE SMOOTH"
);
}
);
width = 757;
}
);
unicode = 0166;
},
{
glyphname = U;
lastChange = "2019-11-21 23:37:50 +0000";
layers = (
{
guideLines = (
{
angle = 270;
position = "{378, 0}";
}
);
layerId = "09A42E70-DC24-4DD4-94A7-946B904CEA41";
paths = (
{
closed = 1;
nodes = (
"612 0 OFFCURVE",
"731 176 OFFCURVE",
"731 370 CURVE SMOOTH",
"731 506 OFFCURVE",
"714 700 OFFCURVE",
"574 700 CURVE SMOOTH",
"467 700 OFFCURVE",
"437 622 OFFCURVE",
"437 551 CURVE SMOOTH",
"437 469 OFFCURVE",
"453 439 OFFCURVE",
"453 362 CURVE SMOOTH",
"453 309 OFFCURVE",
"440 243 OFFCURVE",
"378 243 CURVE SMOOTH",
"318 243 OFFCURVE",
"303 309 OFFCURVE",
"303 362 CURVE SMOOTH",
"303 439 OFFCURVE",
"319 469 OFFCURVE",
"319 551 CURVE SMOOTH",
"319 622 OFFCURVE",
"289 700 OFFCURVE",
"182 700 CURVE SMOOTH",
"42 700 OFFCURVE",
"25 506 OFFCURVE",
"25 370 CURVE SMOOTH",
"25 176 OFFCURVE",
"144 0 OFFCURVE",
"378 0 CURVE SMOOTH"
);
}
);
width = 756;
}
);
unicode = 0055;
},
{
glyphname = V;
lastChange = "2019-11-21 23:31:49 +0000";
layers = (
{
layerId = "09A42E70-DC24-4DD4-94A7-946B904CEA41";
paths = (
{
closed = 1;
nodes = (
"589 0 OFFCURVE",
"742 317 OFFCURVE",
"742 523 CURVE SMOOTH",
"742 624 OFFCURVE",
"700 699 OFFCURVE",
"607 699 CURVE SMOOTH",
"461 699 OFFCURVE",
"450 423 OFFCURVE",
"385 260 CURVE",
"330 423 OFFCURVE",
"317 699 OFFCURVE",
"160 699 CURVE SMOOTH",
"67 699 OFFCURVE",
"25 620 OFFCURVE",
"25 523 CURVE SMOOTH",
"25 317 OFFCURVE",
"181 0 OFFCURVE",
"385 0 CURVE SMOOTH"
);
}
);
width = 767;
}
);
unicode = 0056;
},
{
glyphname = W;
lastChange = "2019-11-21 23:33:43 +0000";
layers = (
{
layerId = "09A42E70-DC24-4DD4-94A7-946B904CEA41";
paths = (
{
closed = 1;
nodes = (
"344 0 OFFCURVE",
"403 26 OFFCURVE",
"452 81 CURVE",
"501 26 OFFCURVE",
"559 1 OFFCURVE",
"616 1 CURVE SMOOTH",
"777 1 OFFCURVE",
"879 139 OFFCURVE",
"879 360 CURVE SMOOTH",
"879 479 OFFCURVE",
"825 669 OFFCURVE",
"699 669 CURVE SMOOTH",
"646 669 OFFCURVE",
"597 625 OFFCURVE",
"597 560 CURVE SMOOTH",
"597 498 OFFCURVE",
"646 415 OFFCURVE",
"650 336 CURVE SMOOTH",
"653 273 OFFCURVE",
"636 244 OFFCURVE",
"610 244 CURVE SMOOTH",
"574 244 OFFCURVE",
"557 278 OFFCURVE",
"557 378 CURVE SMOOTH",
"557 476 OFFCURVE",
"569 616 OFFCURVE",
"448 616 CURVE SMOOTH",
"327 616 OFFCURVE",
"344 470 OFFCURVE",
"344 372 CURVE SMOOTH",
"344 278 OFFCURVE",
"331 252 OFFCURVE",
"298 252 CURVE SMOOTH",
"275 252 OFFCURVE",
"253 273 OFFCURVE",
"253 336 CURVE SMOOTH",
"253 415 OFFCURVE",
"305 512 OFFCURVE",
"305 560 CURVE SMOOTH",
"305 622 OFFCURVE",
"263 671 OFFCURVE",
"203 671 CURVE SMOOTH",
"88 671 OFFCURVE",
"25 479 OFFCURVE",
"25 360 CURVE SMOOTH",
"25 139 OFFCURVE",
"127 0 OFFCURVE",
"288 0 CURVE SMOOTH"
);
}
);
width = 904;
}
);
unicode = 0057;
},
{
glyphname = X;
lastChange = "2019-11-21 23:37:40 +0000";
layers = (
{
layerId = "09A42E70-DC24-4DD4-94A7-946B904CEA41";
paths = (
{
closed = 1;
nodes = (
"224 0 OFFCURVE",
"389 153 OFFCURVE",
"494 264 CURVE SMOOTH",
"651 431 OFFCURVE",
"710 500 OFFCURVE",
"710 573 CURVE SMOOTH",
"710 654 OFFCURVE",
"644 700 OFFCURVE",
"576 700 CURVE SMOOTH",
"499 700 OFFCURVE",
"458 668 OFFCURVE",
"273 480 CURVE SMOOTH",
"148 352 OFFCURVE",
"25 205 OFFCURVE",
"25 118 CURVE SMOOTH",
"25 55 OFFCURVE",
"59 0 OFFCURVE",
"134 0 CURVE SMOOTH"
);
},
{
closed = 1;
nodes = (
"663 2 OFFCURVE",
"692 62 OFFCURVE",
"692 120 CURVE SMOOTH",
"692 207 OFFCURVE",
"568 353 OFFCURVE",
"444 480 CURVE SMOOTH",
"262 670 OFFCURVE",
"231 700 OFFCURVE",
"150 700 CURVE SMOOTH",
"83 700 OFFCURVE",
"17 657 OFFCURVE",
"17 573 CURVE SMOOTH",
"17 500 OFFCURVE",
"67 431 OFFCURVE",
"223 264 CURVE SMOOTH",
"326 153 OFFCURVE",
"493 2 OFFCURVE",
"583 2 CURVE SMOOTH"
);
}
);
width = 725;
}
);
unicode = 0058;
},
{
glyphname = Y;
lastChange = "2019-11-21 23:37:33 +0000";
layers = (
{
guideLines = (
{
angle = 270;
position = "{354, 400}";
},
{
position = "{158, 205}";
},
{
position = "{158, 550}";
},
{
position = "{168, 364}";
}
);
layerId = "09A42E70-DC24-4DD4-94A7-946B904CEA41";
paths = (
{
closed = 1;
nodes = (
"547 148 OFFCURVE",
"692 239 OFFCURVE",
"692 455 CURVE SMOOTH",
"692 597 OFFCURVE",
"641 698 OFFCURVE",
"534 698 CURVE SMOOTH",
"461 698 OFFCURVE",
"411 651 OFFCURVE",
"411 573 CURVE SMOOTH",
"411 531 OFFCURVE",
"420 479 OFFCURVE",
"420 453 CURVE SMOOTH",
"420 399 OFFCURVE",
"404 367 OFFCURVE",
"358 367 CURVE SMOOTH",
"312 367 OFFCURVE",
"296 399 OFFCURVE",
"296 453 CURVE SMOOTH",
"296 479 OFFCURVE",
"305 528 OFFCURVE",
"305 572 CURVE SMOOTH",
"305 652 OFFCURVE",
"256 698 OFFCURVE",
"183 698 CURVE SMOOTH",
"76 698 OFFCURVE",
"25 597 OFFCURVE",
"25 443 CURVE SMOOTH",
"25 241 OFFCURVE",
"171 148 OFFCURVE",
"358 148 CURVE SMOOTH"
);
},
{
closed = 1;
nodes = (
"413 0 OFFCURVE",
"468 38 OFFCURVE",
"468 117 CURVE SMOOTH",
"468 238 OFFCURVE",
"454 313 OFFCURVE",
"358 313 CURVE SMOOTH",
"256 313 OFFCURVE",
"238 231 OFFCURVE",
"238 117 CURVE SMOOTH",
"238 41 OFFCURVE",
"298 0 OFFCURVE",
"358 0 CURVE SMOOTH"
);
}
);
width = 717;
}
);
unicode = 0059;
},
{
glyphname = Z;
lastChange = "2019-11-21 23:39:16 +0000";
layers = (
{
layerId = "09A42E70-DC24-4DD4-94A7-946B904CEA41";
paths = (
{
closed = 1;
nodes = (
"449 0 OFFCURVE",
"623 0 OFFCURVE",
"623 119 CURVE SMOOTH",
"623 223 OFFCURVE",
"512 233 OFFCURVE",
"391 236 CURVE",
"504 300 OFFCURVE",
"625 395 OFFCURVE",
"625 514 CURVE SMOOTH",
"625 674 OFFCURVE",
"458 697 OFFCURVE",
"286 697 CURVE SMOOTH",
"141 697 OFFCURVE",
"25 656 OFFCURVE",
"25 546 CURVE SMOOTH",
"25 425 OFFCURVE",
"190 410 OFFCURVE",
"297 421 CURVE",
"197 351 OFFCURVE",
"45 246 OFFCURVE",
"45 152 CURVE SMOOTH",
"45 7 OFFCURVE",
"195 0 OFFCURVE",
"329 0 CURVE SMOOTH"
);
}
);
width = 650;
}
);
unicode = 005A;
},
{
glyphname = a;
lastChange = "2019-11-23 18:30:25 +0000";
layers = (
{
guideLines = (
{
position = "{580, 714}";
}
);
layerId = "09A42E70-DC24-4DD4-94A7-946B904CEA41";
paths = (
{
closed = 1;
nodes = (
"266 0 OFFCURVE",
"301 10 OFFCURVE",
"333 29 CURVE",
"353 11 OFFCURVE",
"369 0 OFFCURVE",
"404 0 CURVE SMOOTH",
"449 0 OFFCURVE",
"475 34 OFFCURVE",
"475 71 CURVE SMOOTH",
"475 93 OFFCURVE",
"465 116 OFFCURVE",
"446 132 CURVE",
"458 153 OFFCURVE",
"466 195 OFFCURVE",
"466 240 CURVE SMOOTH",
"466 361 OFFCURVE",
"388 470 OFFCURVE",
"211 470 CURVE SMOOTH",
"130 470 OFFCURVE",
"25 432 OFFCURVE",
"25 350 CURVE SMOOTH",
"25 304 OFFCURVE",
"51 283 OFFCURVE",
"93 283 CURVE SMOOTH",
"150 283 OFFCURVE",
"148 307 OFFCURVE",
"206 307 CURVE SMOOTH",
"268 307 OFFCURVE",
"291 279 OFFCURVE",
"291 249 CURVE",
"279 257 OFFCURVE",
"243 264 OFFCURVE",
"205 264 CURVE SMOOTH",
"107 264 OFFCURVE",
"27 217 OFFCURVE",
"27 138 CURVE SMOOTH",
"27 44 OFFCURVE",
"107 0 OFFCURVE",
"205 0 CURVE SMOOTH"
);
},
{
closed = 1;
nodes = (
"196 101 OFFCURVE",
"179 116 OFFCURVE",
"179 132 CURVE SMOOTH",
"179 148 OFFCURVE",
"196 163 OFFCURVE",
"225 163 CURVE SMOOTH",
"255 163 OFFCURVE",
"271 148 OFFCURVE",
"271 132 CURVE SMOOTH",
"271 116 OFFCURVE",
"255 101 OFFCURVE",
"225 101 CURVE SMOOTH"
);
}
);
width = 500;
}
);
leftKerningGroup = o;
rightKerningGroup = z;
unicode = 0061;
},
{
glyphname = aogonek;
lastChange = "2019-11-11 09:17:18 +0000";
layers = (
{
hints = (
{
horizontal = 1;
origin = "{2, 23}";
target = "{2, 5}";
type = Stem;
},
{
horizontal = 1;
origin = "{0, 8}";
target = "{1, 11}";
type = Stem;
},
{
horizontal = 1;
origin = "{1, 5}";
target = "{0, 2}";
type = Stem;
},
{
horizontal = 1;
origin = "{0, 20}";
target = "{0, 29}";
type = Stem;
},
{
origin = "{0, 5}";
target = "{1, 2}";
type = Stem;
},
{
origin = "{1, 8}";
target = "{0, 14}";
type = Stem;
},
{
origin = "{2, 20}";
target = "{2, 8}";
type = Stem;
}
);
layerId = "09A42E70-DC24-4DD4-94A7-946B904CEA41";
paths = (
{
closed = 1;
nodes = (
"269 262 OFFCURVE",
"243 270 OFFCURVE",
"205 271 CURVE SMOOTH",
"107 274 OFFCURVE",
"27 217 OFFCURVE",
"27 138 CURVE SMOOTH",
"27 44 OFFCURVE",
"107 0 OFFCURVE",
"205 0 CURVE SMOOTH",
"266 0 OFFCURVE",
"301 10 OFFCURVE",
"333 29 CURVE",
"363 -37 OFFCURVE",
"466 2 OFFCURVE",
"466 68 CURVE SMOOTH",
"466 104 OFFCURVE",
"466 200 OFFCURVE",
"466 240 CURVE SMOOTH",
"466 361 OFFCURVE",
"388 470 OFFCURVE",
"211 470 CURVE SMOOTH",
"130 470 OFFCURVE",
"25 432 OFFCURVE",
"25 350 CURVE SMOOTH",
"25 304 OFFCURVE",
"51 283 OFFCURVE",
"93 283 CURVE SMOOTH",
"150 283 OFFCURVE",
"148 307 OFFCURVE",
"206 307 CURVE SMOOTH",
"268 307 OFFCURVE",
"297 279 OFFCURVE",
"291 249 CURVE"
);
},
{
closed = 1;
nodes = (
"196 98 OFFCURVE",
"179 114 OFFCURVE",
"179 132 CURVE SMOOTH",
"179 150 OFFCURVE",
"196 166 OFFCURVE",
"225 166 CURVE SMOOTH",
"255 166 OFFCURVE",
"271 150 OFFCURVE",
"271 132 CURVE SMOOTH",
"271 114 OFFCURVE",
"255 98 OFFCURVE",
"225 98 CURVE SMOOTH"
);
},
{
closed = 1;
nodes = (
"427 -211 OFFCURVE",
"462 -186 OFFCURVE",
"462 -154 CURVE SMOOTH",
"462 -117 OFFCURVE",
"439 -100 OFFCURVE",
"404 -100 CURVE SMOOTH",
"389 -100 OFFCURVE",
"368 -96 OFFCURVE",
"368 -72 CURVE SMOOTH",
"368 -47 OFFCURVE",
"393 -31 OFFCURVE",
"416 -14 CURVE SMOOTH",
"462 20 OFFCURVE",
"466 50 OFFCURVE",
"466 71 CURVE",
"448 71 OFFCURVE",
"391 61 OFFCURVE",
"364 61 CURVE SMOOTH",
"317 61 OFFCURVE",
"230 -3 OFFCURVE",
"230 -87 CURVE SMOOTH",
"230 -172 OFFCURVE",
"283 -211 OFFCURVE",
"360 -211 CURVE SMOOTH"
);
}
);
width = 491;
}
);
unicode = 0105;
},
{
glyphname = ae;
lastChange = "2019-11-11 09:27:08 +0000";
layers = (
{
layerId = "09A42E70-DC24-4DD4-94A7-946B904CEA41";
paths = (
{
closed = 1;
nodes = (
"270 273 OFFCURVE",
"234 279 OFFCURVE",
"208 279 CURVE SMOOTH",
"123 279 OFFCURVE",
"27 231 OFFCURVE",
"27 138 CURVE SMOOTH",
"27 44 OFFCURVE",
"107 0 OFFCURVE",
"205 0 CURVE SMOOTH",
"266 0 OFFCURVE",
"323 11 OFFCURVE",
"377 54 CURVE",
"452 77 OFFCURVE",
"466 162 OFFCURVE",
"466 240 CURVE SMOOTH",
"466 361 OFFCURVE",
"388 470 OFFCURVE",
"211 470 CURVE SMOOTH",
"130 470 OFFCURVE",
"25 432 OFFCURVE",
"25 350 CURVE SMOOTH",
"25 304 OFFCURVE",
"51 283 OFFCURVE",
"93 283 CURVE SMOOTH",
"150 283 OFFCURVE",
"148 307 OFFCURVE",
"206 307 CURVE SMOOTH",
"268 307 OFFCURVE",
"290 285 OFFCURVE",
"291 265 CURVE"
);
},
{
closed = 1;
nodes = (
"196 98 OFFCURVE",
"179 114 OFFCURVE",
"179 132 CURVE SMOOTH",
"179 150 OFFCURVE",
"196 166 OFFCURVE",
"225 166 CURVE SMOOTH",
"255 166 OFFCURVE",
"271 150 OFFCURVE",
"271 132 CURVE SMOOTH",
"271 114 OFFCURVE",
"255 98 OFFCURVE",
"225 98 CURVE SMOOTH"
);
},
{
closed = 1;
nodes = (
"668 0 OFFCURVE",
"704 42 OFFCURVE",
"704 76 CURVE SMOOTH",
"704 99 OFFCURVE",
"685 119 OFFCURVE",
"658 119 CURVE SMOOTH",
"633 119 OFFCURVE",
"608 101 OFFCURVE",
"563 101 CURVE SMOOTH",
"531 101 OFFCURVE",
"499 110 OFFCURVE",
"480 132 CURVE",
"495 128 OFFCURVE",
"516 126 OFFCURVE",
"539 126 CURVE SMOOTH",
"624 126 OFFCURVE",
"742 160 OFFCURVE",
"742 287 CURVE SMOOTH",
"742 378 OFFCURVE",
"662 470 OFFCURVE",
"528 470 CURVE SMOOTH",
"383 470 OFFCURVE",
"292 359 OFFCURVE",
"292 229 CURVE SMOOTH",
"292 95 OFFCURVE",
"393 0 OFFCURVE",
"543 0 CURVE SMOOTH"
);
},
{
closed = 1;
nodes = (
"551 231 OFFCURVE",
"519 231 CURVE SMOOTH",
"500 231 OFFCURVE",
"483 233 OFFCURVE",
"473 236 CURVE",
"473 286 OFFCURVE",
"507 307 OFFCURVE",
"538 307 CURVE SMOOTH",
"564 307 OFFCURVE",
"589 291 OFFCURVE",
"588 267 CURVE SMOOTH",
"587 239 OFFCURVE"
);
}
);
width = 777;
}
);
unicode = 00E6;
},
{
glyphname = b;
lastChange = "2019-11-21 09:44:04 +0000";
layers = (
{
components = (
{
name = maru;
transform = "{0.7246, 0, 0, 0.74458, 67, 33}";
}
);
guideLines = (
{
position = "{561, 714}";
},
{
position = "{579, 470}";
}
);
layerId = "09A42E70-DC24-4DD4-94A7-946B904CEA41";
paths = (
{
closed = 1;
nodes = (
"460 0 OFFCURVE",
"550 120 OFFCURVE",
"550 243 CURVE SMOOTH",
"550 399 OFFCURVE",
"442 470 OFFCURVE",
"336 470 CURVE SMOOTH",
"303 470 OFFCURVE",
"267 463 OFFCURVE",
"236 446 CURVE",
"241 503 OFFCURVE",
"267 557 OFFCURVE",
"267 615 CURVE SMOOTH",
"267 674 OFFCURVE",
"224 701 OFFCURVE",
"182 701 CURVE SMOOTH",
"63 701 OFFCURVE",
"25 490 OFFCURVE",
"25 338 CURVE SMOOTH",
"25 276 OFFCURVE",
"26 0 OFFCURVE",
"312 0 CURVE SMOOTH"
);
}
);
width = 575;
}
);
leftKerningGroup = b;
rightKerningGroup = o;
unicode = 0062;
},
{
glyphname = c;
lastChange = "2019-11-21 00:32:26 +0000";
layers = (
{
guideLines = (
{
position = "{580, 714}";
}
);
layerId = "09A42E70-DC24-4DD4-94A7-946B904CEA41";
paths = (
{
closed = 1;
nodes = (
"397 0 OFFCURVE",
"480 64 OFFCURVE",
"480 131 CURVE SMOOTH",
"480 166 OFFCURVE",
"454 204 OFFCURVE",
"395 204 CURVE SMOOTH",
"328 204 OFFCURVE",
"340 160 OFFCURVE",
"284 160 CURVE SMOOTH",
"248 160 OFFCURVE",
"219 185 OFFCURVE",
"219 226 CURVE SMOOTH",
"219 266 OFFCURVE",
"249 292 OFFCURVE",
"284 292 CURVE SMOOTH",
"343 292 OFFCURVE",
"330 230 OFFCURVE",
"395 230 CURVE SMOOTH",
"453 230 OFFCURVE",
"480 258 OFFCURVE",
"480 303 CURVE SMOOTH",
"480 385 OFFCURVE",
"395 470 OFFCURVE",
"267 470 CURVE SMOOTH",
"142 470 OFFCURVE",
"25 385 OFFCURVE",
"25 239 CURVE SMOOTH",
"25 102 OFFCURVE",
"142 2 OFFCURVE",
"270 1 CURVE SMOOTH"
);
}
);
width = 505;
}
);
leftKerningGroup = o;
unicode = 0063;
},
{
glyphname = eth;
lastChange = "2019-11-13 09:15:29 +0000";
layers = (
{
components = (
{
name = maru;
transform = "{-0.7246, 0, 0, 0.74458, 508, 33}";
}
);
layerId = "09A42E70-DC24-4DD4-94A7-946B904CEA41";
paths = (
{
closed = 1;
nodes = (
"454 604 OFFCURVE",
"510 638 OFFCURVE",
"510 677 CURVE SMOOTH",
"510 698 OFFCURVE",
"491 732 OFFCURVE",
"455 732 CURVE SMOOTH",
"421 732 OFFCURVE",
"371 705 OFFCURVE",
"300 663 CURVE SMOOTH",
"210 610 OFFCURVE",
"156 577 OFFCURVE",
"156 538 CURVE SMOOTH",
"156 518 OFFCURVE",
"174 483 OFFCURVE",
"207 483 CURVE SMOOTH",
"242 483 OFFCURVE",
"291 513 OFFCURVE",
"363 553 CURVE SMOOTH"
);
},
{
closed = 1;
nodes = (
"549 0 OFFCURVE",
"550 276 OFFCURVE",
"550 338 CURVE SMOOTH",
"550 583 OFFCURVE",
"357 763 OFFCURVE",
"241 763 CURVE SMOOTH",
"188 763 OFFCURVE",
"153 729 OFFCURVE",
"153 690 CURVE SMOOTH",
"153 662 OFFCURVE",
"170 632 OFFCURVE",
"210 609 CURVE SMOOTH",
"270 575 OFFCURVE",
"339 502 OFFCURVE",
"339 446 CURVE",
"308 463 OFFCURVE",
"272 470 OFFCURVE",
"239 470 CURVE SMOOTH",
"133 470 OFFCURVE",
"25 399 OFFCURVE",
"25 243 CURVE SMOOTH",
"25 120 OFFCURVE",
"115 0 OFFCURVE",
"263 0 CURVE SMOOTH"
);
}
);
width = 600;
}
);
unicode = 00F0;
},
{
glyphname = dcaron;
lastChange = "2019-11-13 13:26:20 +0000";
layers = (
{
components = (
{
name = d;
}
);
layerId = "09A42E70-DC24-4DD4-94A7-946B904CEA41";
paths = (
{
closed = 1;
nodes = (
"687 500 OFFCURVE",
"694 664 OFFCURVE",
"694 685 CURVE SMOOTH",
"694 725 OFFCURVE",
"672 747 OFFCURVE",
"619 744 CURVE SMOOTH",
"570 741 OFFCURVE",
"563 703 OFFCURVE",
"563 665 CURVE SMOOTH",
"563 581 OFFCURVE",
"562 489 OFFCURVE",
"631 495 CURVE SMOOTH"
);
}
);
width = 709;
}
);
unicode = 010F;
},
{
glyphname = dcroat;
lastChange = "2019-11-13 09:29:11 +0000";
layers = (
{
components = (
{
name = d;
}
);
layerId = "09A42E70-DC24-4DD4-94A7-946B904CEA41";
paths = (
{
closed = 1;
nodes = (
"517 508 OFFCURVE",
"601 505 OFFCURVE",
"601 563 CURVE SMOOTH",
"601 621 OFFCURVE",
"517 619 OFFCURVE",
"396 619 CURVE SMOOTH",
"276 619 OFFCURVE",
"192 621 OFFCURVE",
"192 563 CURVE SMOOTH",
"192 505 OFFCURVE",
"276 508 OFFCURVE",
"396 508 CURVE SMOOTH"
);
}
);
width = 600;
}
);
unicode = 0111;
},
{
glyphname = e;
lastChange = "2019-11-23 18:31:26 +0000";
layers = (
{
guideLines = (
{
position = "{-487, 192}";
}
);
layerId = "09A42E70-DC24-4DD4-94A7-946B904CEA41";
paths = (
{
closed = 1;
nodes = (
"405 0 OFFCURVE",
"439 44 OFFCURVE",
"437 79 CURVE SMOOTH",
"435 108 OFFCURVE",
"406 123 OFFCURVE",
"365 114 CURVE SMOOTH",
"314 103 OFFCURVE",
"241 97 OFFCURVE",
"206 156 CURVE",
"285 128 OFFCURVE",
"485 134 OFFCURVE",
"485 287 CURVE SMOOTH",
"485 378 OFFCURVE",
"405 470 OFFCURVE",
"271 470 CURVE SMOOTH",
"126 470 OFFCURVE",
"25 359 OFFCURVE",
"25 229 CURVE SMOOTH",
"25 95 OFFCURVE",
"126 0 OFFCURVE",
"276 0 CURVE SMOOTH"
);
},
{
closed = 1;
nodes = (
"209 302 OFFCURVE",
"229 331 OFFCURVE",
"267 331 CURVE SMOOTH",
"305 331 OFFCURVE",
"323 309 OFFCURVE",
"323 287 CURVE SMOOTH",
"323 245 OFFCURVE",
"236 236 OFFCURVE",
"209 278 CURVE"
);
}
);
width = 510;
}
);
leftKerningGroup = o;
rightKerningGroup = o;
unicode = 0065;
},
{
glyphname = schwa;
lastChange = "2019-11-13 09:46:35 +0000";
layers = (
{
layerId = "09A42E70-DC24-4DD4-94A7-946B904CEA41";
paths = (
{
closed = 1;
nodes = (
"79 471 OFFCURVE",
"25 409 OFFCURVE",
"25 360 CURVE SMOOTH",
"25 327 OFFCURVE",
"49 299 OFFCURVE",
"90 299 CURVE SMOOTH",
"128 299 OFFCURVE",
"158 320 OFFCURVE",
"211 320 CURVE SMOOTH",
"257 320 OFFCURVE",
"304 306 OFFCURVE",
"325 264 CURVE",
"298 280 OFFCURVE",
"256 289 OFFCURVE",
"213 289 CURVE SMOOTH",
"128 289 OFFCURVE",
"36 253 OFFCURVE",
"36 153 CURVE SMOOTH",
"36 72 OFFCURVE",
"116 0 OFFCURVE",
"250 0 CURVE SMOOTH",
"385 0 OFFCURVE",
"476 101 OFFCURVE",
"476 231 CURVE SMOOTH",
"476 350 OFFCURVE",
"392 471 OFFCURVE",
"213 471 CURVE SMOOTH"
);
},
{
closed = 1;
nodes = (
"215 179 OFFCURVE",
"244 179 CURVE SMOOTH",
"267 179 OFFCURVE",
"291 172 OFFCURVE",
"302 155 CURVE",
"302 133 OFFCURVE",
"282 107 OFFCURVE",
"244 107 CURVE SMOOTH",
"206 107 OFFCURVE",
"188 127 OFFCURVE",
"188 147 CURVE SMOOTH",
"188 167 OFFCURVE"
);
}
);
width = 501;
}
);
unicode = 0259;
},
{
glyphname = f;
lastChange = "2019-11-21 09:44:46 +0000";
layers = (
{
layerId = "09A42E70-DC24-4DD4-94A7-946B904CEA41";
paths = (
{
closed = 1;
nodes = (
"298 2 OFFCURVE",
"344 16 OFFCURVE",
"344 80 CURVE SMOOTH",
"344 131 OFFCURVE",
"341 195 OFFCURVE",
"341 281 CURVE SMOOTH",
"341 364 OFFCURVE",
"320 472 OFFCURVE",
"411 490 CURVE SMOOTH",
"474 502 OFFCURVE",
"525 530 OFFCURVE",
"525 601 CURVE SMOOTH",
"525 669 OFFCURVE",
"465 700 OFFCURVE",
"397 700 CURVE SMOOTH",
"183 700 OFFCURVE",
"151 531 OFFCURVE",
"151 304 CURVE SMOOTH",
"151 131 OFFCURVE",
"170 2 OFFCURVE",
"264 2 CURVE SMOOTH"
);
},
{
closed = 1;
nodes = (
"427 211 OFFCURVE",
"525 214 OFFCURVE",
"525 304 CURVE SMOOTH",
"525 394 OFFCURVE",
"436 399 OFFCURVE",
"275 399 CURVE SMOOTH",
"121 399 OFFCURVE",
"25 394 OFFCURVE",
"25 304 CURVE SMOOTH",
"25 214 OFFCURVE",
"119 211 OFFCURVE",
"275 211 CURVE SMOOTH"
);
}
);
width = 545;
}
);
leftKerningGroup = f;
rightKerningGroup = f;
unicode = 0066;
},
{
glyphname = g;
lastChange = "2019-11-20 23:27:30 +0000";
layers = (
{
components = (
{
name = maru;
transform = "{0.82161, 0, 0, 0.82161, 9, 22}";
}
);
guideLines = (
{
position = "{588, 371}";
},
{
position = "{633, -191}";
}
);
layerId = "09A42E70-DC24-4DD4-94A7-946B904CEA41";
paths = (
{
closed = 1;
nodes = (
"421 -171 OFFCURVE",
"539 -55 OFFCURVE",
"559 132 CURVE SMOOTH",
"576 290 OFFCURVE",
"560 519 OFFCURVE",
"441 519 CURVE SMOOTH",
"386 519 OFFCURVE",
"365 495 OFFCURVE",
"355 462 CURVE",
"330 468 OFFCURVE",
"289 472 OFFCURVE",
"264 472 CURVE SMOOTH",
"147 472 OFFCURVE",
"25 383 OFFCURVE",
"25 220 CURVE SMOOTH",
"25 136 OFFCURVE",
"85 10 OFFCURVE",
"267 10 CURVE SMOOTH",
"313 10 OFFCURVE",
"353 19 OFFCURVE",
"374 31 CURVE",
"363 -8 OFFCURVE",
"297 -30 OFFCURVE",
"224 -19 CURVE SMOOTH",
"161 -9 OFFCURVE",
"111 -41 OFFCURVE",
"111 -91 CURVE SMOOTH",
"111 -141 OFFCURVE",
"168 -171 OFFCURVE",
"243 -171 CURVE SMOOTH"
);
}
);
width = 589;
}
);
leftKerningGroup = o;
unicode = 0067;
},
{
glyphname = h;
lastChange = "2019-11-21 09:44:51 +0000";
layers = (
{
layerId = "09A42E70-DC24-4DD4-94A7-946B904CEA41";
paths = (
{
closed = 1;
nodes = (
"227 0 OFFCURVE",
"234 62 OFFCURVE",
"235 155 CURVE SMOOTH",
"236 226 OFFCURVE",
"250 278 OFFCURVE",
"294 278 CURVE SMOOTH",
"338 278 OFFCURVE",
"350 226 OFFCURVE",
"350 155 CURVE SMOOTH",
"350 62 OFFCURVE",
"357 3 OFFCURVE",
"440 3 CURVE SMOOTH",
"525 3 OFFCURVE",
"536 119 OFFCURVE",
"536 214 CURVE SMOOTH",
"536 353 OFFCURVE",
"460 470 OFFCURVE",
"319 470 CURVE SMOOTH",
"274 470 OFFCURVE",
"259 463 OFFCURVE",
"237 452 CURVE",
"237 566 OFFCURVE",
"245 700 OFFCURVE",
"137 700 CURVE SMOOTH",
"30 700 OFFCURVE",
"25 569 OFFCURVE",
"25 374 CURVE SMOOTH",
"25 112 OFFCURVE",
"45 0 OFFCURVE",
"145 0 CURVE SMOOTH"
);
}
);
width = 561;
}
);
unicode = 0068;
},
{
glyphname = hbar;
lastChange = "2019-11-13 10:29:08 +0000";
layers = (
{
components = (
{
name = h;
}
);
layerId = "09A42E70-DC24-4DD4-94A7-946B904CEA41";
paths = (
{
closed = 1;
nodes = (
"280 518 OFFCURVE",
"364 515 OFFCURVE",
"364 573 CURVE SMOOTH",
"364 631 OFFCURVE",
"280 629 OFFCURVE",
"159 629 CURVE SMOOTH",
"39 629 OFFCURVE",
"-45 631 OFFCURVE",
"-45 573 CURVE SMOOTH",
"-45 515 OFFCURVE",
"39 518 OFFCURVE",
"159 518 CURVE SMOOTH"
);
}
);
width = 600;
}
);
unicode = 0127;
},
{
glyphname = i;
lastChange = "2019-11-21 09:43:29 +0000";
layers = (
{
guideLines = (
{
angle = 270;
position = "{25, 12}";
},
{
angle = 270;
position = "{284, -26}";
}
);
hints = (
{
place = "{235, 49}";
type = Stem;
}
);
layerId = "09A42E70-DC24-4DD4-94A7-946B904CEA41";
paths = (
{
closed = 1;
nodes = (
"222 0 OFFCURVE",
"236 66 OFFCURVE",
"235 216 CURVE SMOOTH",
"234 366 OFFCURVE",
"222 432 OFFCURVE",
"142 432 CURVE SMOOTH",
"62 432 OFFCURVE",
"48 366 OFFCURVE",
"49 216 CURVE SMOOTH",
"50 66 OFFCURVE",
"62 0 OFFCURVE",
"142 0 CURVE SMOOTH"
);
},
{
closed = 1;
nodes = (
"206 485 OFFCURVE",
"259 539 OFFCURVE",
"259 607 CURVE SMOOTH",
"259 674 OFFCURVE",
"206 728 OFFCURVE",
"142 728 CURVE SMOOTH",
"76 728 OFFCURVE",
"25 674 OFFCURVE",
"25 607 CURVE SMOOTH",
"25 539 OFFCURVE",
"76 485 OFFCURVE",
"142 485 CURVE SMOOTH"
);
}
);
width = 284;
}
);
leftKerningGroup = i;
rightKerningGroup = i;
unicode = 0069;
},
{
glyphname = idotless;
lastChange = "2019-11-08 10:11:26 +0000";
layers = (
{
layerId = "09A42E70-DC24-4DD4-94A7-946B904CEA41";
paths = (
{
closed = 1;
nodes = (
"222 0 OFFCURVE",
"236 66 OFFCURVE",
"235 216 CURVE SMOOTH",
"234 366 OFFCURVE",
"222 432 OFFCURVE",
"142 432 CURVE SMOOTH",
"62 432 OFFCURVE",
"48 366 OFFCURVE",
"49 216 CURVE SMOOTH",
"50 66 OFFCURVE",
"62 0 OFFCURVE",
"142 0 CURVE SMOOTH"
);
}
);
width = 284;
}
);
unicode = 0131;
},
{
glyphname = i_dot;
lastChange = "2019-11-08 09:57:06 +0000";
layers = (
{
layerId = "09A42E70-DC24-4DD4-94A7-946B904CEA41";
paths = (
{
closed = 1;
nodes = (
"249 0 OFFCURVE",
"263 66 OFFCURVE",
"262 216 CURVE SMOOTH",
"261 366 OFFCURVE",
"249 432 OFFCURVE",
"169 432 CURVE SMOOTH",
"89 432 OFFCURVE",
"75 366 OFFCURVE",
"76 216 CURVE SMOOTH",
"77 66 OFFCURVE",
"89 0 OFFCURVE",
"169 0 CURVE SMOOTH"
);
},
{
closed = 1;
nodes = (
"233 485 OFFCURVE",
"286 539 OFFCURVE",
"286 607 CURVE SMOOTH",
"286 674 OFFCURVE",
"233 728 OFFCURVE",
"169 728 CURVE SMOOTH",
"103 728 OFFCURVE",
"52 674 OFFCURVE",
"52 607 CURVE SMOOTH",
"52 539 OFFCURVE",
"103 485 OFFCURVE",
"169 485 CURVE SMOOTH"
);
}
);
width = 339;
}
);
},
{
glyphname = j;
lastChange = "2019-11-21 09:43:34 +0000";
layers = (
{
guideLines = (
{
position = "{-100, 439}";
},
{
position = "{-100, 535}";
},
{
position = "{-100, 581}";
},
{
position = "{633, -191}";
}
);
layerId = "09A42E70-DC24-4DD4-94A7-946B904CEA41";
paths = (
{
closed = 1;
nodes = (
"169 -173 OFFCURVE",
"230 -136 OFFCURVE",
"262 -79 CURVE SMOOTH",
"292 -25 OFFCURVE",
"296 34 OFFCURVE",
"296 132 CURVE SMOOTH",
"296 310 OFFCURVE",
"297 413 OFFCURVE",
"197 413 CURVE SMOOTH",
"97 413 OFFCURVE",
"108 310 OFFCURVE",
"108 136 CURVE SMOOTH",
"108 34 OFFCURVE",
"111 -12 OFFCURVE",
"52 -12 CURVE SMOOTH",
"29 -12 OFFCURVE",
"-25 -34 OFFCURVE",
"-25 -93 CURVE SMOOTH",
"-25 -145 OFFCURVE",
"20 -173 OFFCURVE",
"93 -173 CURVE SMOOTH"
);
},
{
closed = 1;
nodes = (
"259 485 OFFCURVE",
"312 539 OFFCURVE",
"312 607 CURVE SMOOTH",
"312 674 OFFCURVE",
"259 728 OFFCURVE",
"195 728 CURVE SMOOTH",
"129 728 OFFCURVE",
"78 674 OFFCURVE",
"78 607 CURVE SMOOTH",
"78 539 OFFCURVE",
"129 485 OFFCURVE",
"195 485 CURVE SMOOTH"
);
}
);
width = 337;
}
);
leftKerningGroup = j;
unicode = 006A;
},
{
glyphname = jdotless;
lastChange = "2019-11-08 10:23:41 +0000";
layers = (
{
layerId = "09A42E70-DC24-4DD4-94A7-946B904CEA41";
paths = (
{
closed = 1;
nodes = (
"169 -193 OFFCURVE",
"230 -156 OFFCURVE",
"262 -99 CURVE SMOOTH",
"293 -46 OFFCURVE",
"296 24 OFFCURVE",
"296 132 CURVE SMOOTH",
"296 310 OFFCURVE",
"297 413 OFFCURVE",
"197 413 CURVE SMOOTH",
"97 413 OFFCURVE",
"108 310 OFFCURVE",
"108 136 CURVE SMOOTH",
"108 24 OFFCURVE",
"111 -22 OFFCURVE",
"52 -22 CURVE SMOOTH",
"29 -22 OFFCURVE",
"-25 -44 OFFCURVE",
"-25 -103 CURVE SMOOTH",
"-25 -155 OFFCURVE",
"20 -193 OFFCURVE",
"93 -193 CURVE SMOOTH"
);
}
);
width = 336;
}
);
unicode = 0237;
},
{
glyphname = k;
lastChange = "2019-11-23 18:08:26 +0000";
layers = (
{
hints = (
{
place = "{538, 36}";
type = Stem;
}
);
layerId = "09A42E70-DC24-4DD4-94A7-946B904CEA41";
paths = (
{
closed = 1;
nodes = (
"233 2 OFFCURVE",
"243 106 OFFCURVE",
"243 351 CURVE SMOOTH",
"243 556 OFFCURVE",
"253 700 OFFCURVE",
"144 700 CURVE SMOOTH",
"35 700 OFFCURVE",
"25 556 OFFCURVE",
"25 351 CURVE SMOOTH",
"25 106 OFFCURVE",
"55 2 OFFCURVE",
"144 2 CURVE SMOOTH"
);
},
{
closed = 1;
nodes = (
"462 0 OFFCURVE",
"507 18 OFFCURVE",
"507 72 CURVE SMOOTH",
"507 103 OFFCURVE",
"490 142 OFFCURVE",
"468 177 CURVE SMOOTH",
"424 248 OFFCURVE",
"390 297 OFFCURVE",
"337 297 CURVE SMOOTH",
"284 297 OFFCURVE",
"240 260 OFFCURVE",
"240 224 CURVE SMOOTH",
"240 187 OFFCURVE",
"277 134 OFFCURVE",
"310 91 CURVE SMOOTH",
"346 44 OFFCURVE",
"385 4 OFFCURVE",
"424 2 CURVE SMOOTH"
);
},
{
closed = 1;
nodes = (
"240 138 OFFCURVE",
"320 177 OFFCURVE",
"377 217 CURVE SMOOTH",
"458 274 OFFCURVE",
"517 317 OFFCURVE",
"517 380 CURVE SMOOTH",
"517 421 OFFCURVE",
"487 469 OFFCURVE",
"429 469 CURVE SMOOTH",
"377 469 OFFCURVE",
"312 431 OFFCURVE",
"246 386 CURVE SMOOTH",
"174 337 OFFCURVE",
"113 280 OFFCURVE",
"113 226 CURVE SMOOTH",
"113 177 OFFCURVE",
"149 138 OFFCURVE",
"197 138 CURVE SMOOTH"
);
}
);
width = 542;
}
);
rightKerningGroup = k;
unicode = 006B;
},
{
glyphname = kgreenlandic;
lastChange = "2019-11-13 10:35:15 +0000";
layers = (
{
layerId = "09A42E70-DC24-4DD4-94A7-946B904CEA41";
paths = (
{
closed = 1;
nodes = (
"462 0 OFFCURVE",
"507 18 OFFCURVE",
"507 72 CURVE SMOOTH",
"507 103 OFFCURVE",
"490 142 OFFCURVE",
"468 177 CURVE SMOOTH",
"424 248 OFFCURVE",
"390 297 OFFCURVE",
"337 297 CURVE SMOOTH",
"284 297 OFFCURVE",
"240 260 OFFCURVE",
"240 224 CURVE SMOOTH",
"240 187 OFFCURVE",
"277 134 OFFCURVE",
"310 91 CURVE SMOOTH",
"346 44 OFFCURVE",
"385 4 OFFCURVE",
"424 2 CURVE SMOOTH"
);
},
{
closed = 1;
nodes = (
"240 138 OFFCURVE",
"320 177 OFFCURVE",
"377 217 CURVE SMOOTH",
"458 274 OFFCURVE",
"517 317 OFFCURVE",
"517 380 CURVE SMOOTH",
"517 421 OFFCURVE",
"487 469 OFFCURVE",
"429 469 CURVE SMOOTH",
"377 469 OFFCURVE",
"312 431 OFFCURVE",
"246 386 CURVE SMOOTH",
"174 337 OFFCURVE",
"113 280 OFFCURVE",
"113 226 CURVE SMOOTH",
"113 177 OFFCURVE",
"149 138 OFFCURVE",
"197 138 CURVE SMOOTH"
);
},
{
closed = 1;
nodes = (
"243 362 OFFCURVE",
"253 493 OFFCURVE",
"144 493 CURVE SMOOTH",
"35 493 OFFCURVE",
"25 372 OFFCURVE",
"25 242 CURVE SMOOTH",
"25 74 OFFCURVE",
"55 2 OFFCURVE",
"144 2 CURVE SMOOTH",
"233 2 OFFCURVE",
"243 74 OFFCURVE",
"243 242 CURVE SMOOTH"
);
}
);
width = 542;
}
);
unicode = 0138;
},
{
glyphname = l;
lastChange = "2019-11-23 18:08:26 +0000";
layers = (
{
guideLines = (
{
angle = 270;
position = "{151, 484}";
}
);
layerId = "09A42E70-DC24-4DD4-94A7-946B904CEA41";
paths = (
{
closed = 1;
nodes = (
"235 2 OFFCURVE",
"261 116 OFFCURVE",
"261 351 CURVE SMOOTH",
"261 556 OFFCURVE",
"257 700 OFFCURVE",
"143 700 CURVE SMOOTH",
"29 700 OFFCURVE",
"25 556 OFFCURVE",
"25 351 CURVE SMOOTH",
"25 116 OFFCURVE",
"39 2 OFFCURVE",
"142 2 CURVE SMOOTH"
);
}
);
width = 286;
}
);
unicode = 006C;
},
{
glyphname = lslash;
lastChange = "2019-11-13 10:38:54 +0000";
layers = (
{
components = (
{
name = l;
transform = "{1, 0, 0, 1, 73, 0}";
}
);
layerId = "09A42E70-DC24-4DD4-94A7-946B904CEA41";
paths = (
{
closed = 1;
nodes = (
"344 329 OFFCURVE",
"409 349 OFFCURVE",
"409 395 CURVE SMOOTH",
"409 420 OFFCURVE",
"393 452 OFFCURVE",
"352 452 CURVE SMOOTH",
"317 452 OFFCURVE",
"266 433 OFFCURVE",
"198 408 CURVE SMOOTH",
"90 369 OFFCURVE",
"25 346 OFFCURVE",
"25 300 CURVE SMOOTH",
"25 276 OFFCURVE",
"39 244 OFFCURVE",
"78 244 CURVE SMOOTH",
"114 244 OFFCURVE",
"167 265 OFFCURVE",
"240 291 CURVE SMOOTH"
);
}
);
width = 434;
}
);
unicode = 0142;
},
{
glyphname = m;
lastChange = "2019-11-21 09:44:10 +0000";
layers = (
{
guideLines = (
{
angle = 270;
position = "{324, 400}";
},
{
position = "{90, 205}";
},
{
position = "{90, 550}";
},
{
position = "{111, 364}";
}
);
layerId = "09A42E70-DC24-4DD4-94A7-946B904CEA41";
paths = (
{
closed = 1;
nodes = (
"423 0 OFFCURVE",
"440 46 OFFCURVE",
"442 126 CURVE SMOOTH",
"444 193 OFFCURVE",
"439 242 OFFCURVE",
"472 242 CURVE SMOOTH",
"515 242 OFFCURVE",
"512 193 OFFCURVE",
"512 126 CURVE SMOOTH",
"512 56 OFFCURVE",
"518 0 OFFCURVE",
"590 0 CURVE SMOOTH",
"672 0 OFFCURVE",
"693 95 OFFCURVE",
"693 194 CURVE SMOOTH",
"693 346 OFFCURVE",
"616 469 OFFCURVE",
"491 471 CURVE SMOOTH",
"428 472 OFFCURVE",
"398 449 OFFCURVE",
"366 412 CURVE",
"349 451 OFFCURVE",
"305 471 OFFCURVE",
"265 471 CURVE SMOOTH",
"225 471 OFFCURVE",
"210 462 OFFCURVE",
"197 455 CURVE",
"185 484 OFFCURVE",
"144 496 OFFCURVE",
"104 484 CURVE SMOOTH",
"39 465 OFFCURVE",
"25 387 OFFCURVE",
"25 275 CURVE SMOOTH",
"25 153 OFFCURVE",
"40 1 OFFCURVE",
"133 1 CURVE SMOOTH",
"205 1 OFFCURVE",
"211 56 OFFCURVE",
"211 126 CURVE SMOOTH",
"211 193 OFFCURVE",
"208 242 OFFCURVE",
"251 242 CURVE SMOOTH",
"284 242 OFFCURVE",
"282 193 OFFCURVE",
"282 126 CURVE SMOOTH",
"282 46 OFFCURVE",
"298 0 OFFCURVE",
"362 0 CURVE SMOOTH"
);
}
);
width = 718;
}
);
leftKerningGroup = n;
unicode = 006D;
},
{
glyphname = n;
lastChange = "2019-11-21 00:14:33 +0000";
layers = (
{
guideLines = (
{
position = "{152, 205}";
},
{
position = "{162, 364}";
},
{
position = "{195, 570}";
}
);
layerId = "09A42E70-DC24-4DD4-94A7-946B904CEA41";
paths = (
{
closed = 1;
nodes = (
"494 0 OFFCURVE",
"514 74 OFFCURVE",
"515 166 CURVE SMOOTH",
"517 345 OFFCURVE",
"450 471 OFFCURVE",
"296 471 CURVE SMOOTH",
"251 471 OFFCURVE",
"213 452 OFFCURVE",
"197 435 CURVE",
"188 468 OFFCURVE",
"163 487 OFFCURVE",
"126 487 CURVE SMOOTH",
"40 487 OFFCURVE",
"25 353 OFFCURVE",
"25 247 CURVE SMOOTH",
"25 141 OFFCURVE",
"44 1 OFFCURVE",
"128 1 CURVE SMOOTH",
"212 1 OFFCURVE",
"207 79 OFFCURVE",
"207 149 CURVE SMOOTH",
"207 220 OFFCURVE",
"227 267 OFFCURVE",
"273 267 CURVE SMOOTH",
"323 267 OFFCURVE",
"341 220 OFFCURVE",
"341 149 CURVE SMOOTH",
"341 79 OFFCURVE",
"340 0 OFFCURVE",
"420 0 CURVE SMOOTH"
);
}
);
width = 540;
}
);
leftKerningGroup = n;
unicode = 006E;
},
{
glyphname = eng;
lastChange = "2019-11-13 11:21:44 +0000";
layers = (
{
layerId = "09A42E70-DC24-4DD4-94A7-946B904CEA41";
paths = (
{
closed = 1;
nodes = (
"207 -128 OFFCURVE",
"241 -162 OFFCURVE",
"333 -162 CURVE SMOOTH",
"467 -162 OFFCURVE",
"515 -28 OFFCURVE",
"515 166 CURVE SMOOTH",
"515 345 OFFCURVE",
"450 471 OFFCURVE",
"296 471 CURVE SMOOTH",
"251 471 OFFCURVE",
"213 452 OFFCURVE",
"197 435 CURVE",
"188 468 OFFCURVE",
"163 487 OFFCURVE",
"126 487 CURVE SMOOTH",
"40 487 OFFCURVE",
"25 353 OFFCURVE",
"25 247 CURVE SMOOTH",
"25 141 OFFCURVE",
"44 1 OFFCURVE",
"128 1 CURVE SMOOTH",
"212 1 OFFCURVE",
"207 79 OFFCURVE",
"207 149 CURVE SMOOTH",
"207 220 OFFCURVE",
"227 267 OFFCURVE",
"273 267 CURVE SMOOTH",
"323 267 OFFCURVE",
"341 220 OFFCURVE",
"341 149 CURVE SMOOTH",
"341 -18 OFFCURVE",
"310 -23 OFFCURVE",
"273 -23 CURVE SMOOTH",
"236 -23 OFFCURVE",
"207 -52 OFFCURVE",
"207 -88 CURVE SMOOTH"
);
}
);
width = 540;
}
);
unicode = 014B;
},
{
glyphname = o;
lastChange = "2019-11-21 09:43:56 +0000";
layers = (
{
components = (
{
name = maru;
transform = "{0.72363, 0, 0, 0.74679, 39, 20}";
}
);
layerId = "09A42E70-DC24-4DD4-94A7-946B904CEA41";
paths = (
{
closed = 1;
nodes = (
"423 2 OFFCURVE",
"528 105 OFFCURVE",
"526 236 CURVE SMOOTH",
"522 371 OFFCURVE",
"418 472 OFFCURVE",
"275 471 CURVE SMOOTH",
"129 470 OFFCURVE",
"23 371 OFFCURVE",
"25 236 CURVE SMOOTH",
"28 103 OFFCURVE",
"127 -3 OFFCURVE",
"275 -1 CURVE SMOOTH"
);
}
);
width = 551;
}
);
leftKerningGroup = o;
rightKerningGroup = o;
unicode = 006F;
},
{
glyphname = oslash;
lastChange = "2019-11-13 11:26:06 +0000";
layers = (
{
layerId = "09A42E70-DC24-4DD4-94A7-946B904CEA41";
paths = (
{
closed = 1;
nodes = (
"472 479 OFFCURVE",
"508 525 OFFCURVE",
"467 549 CURVE SMOOTH",
"427 572 OFFCURVE",
"404 519 OFFCURVE",
"251 253 CURVE SMOOTH",
"100 -10 OFFCURVE",
"65 -55 OFFCURVE",
"105 -80 CURVE SMOOTH",
"145 -105 OFFCURVE",
"169 -49 OFFCURVE",
"320 214 CURVE SMOOTH"
);
},
{
closed = 1;
nodes = (
"423 2 OFFCURVE",
"528 105 OFFCURVE",
"526 236 CURVE SMOOTH",
"522 371 OFFCURVE",
"418 472 OFFCURVE",
"275 471 CURVE SMOOTH",
"129 470 OFFCURVE",
"23 371 OFFCURVE",
"25 236 CURVE SMOOTH",
"28 103 OFFCURVE",
"127 -3 OFFCURVE",
"275 -1 CURVE SMOOTH"
);
},
{
closed = 1;
nodes = (
"233 130 OFFCURVE",
"195 169 OFFCURVE",
"195 215 CURVE SMOOTH",
"195 261 OFFCURVE",
"233 300 OFFCURVE",
"278 300 CURVE SMOOTH",
"322 300 OFFCURVE",
"360 261 OFFCURVE",
"360 215 CURVE SMOOTH",
"360 169 OFFCURVE",
"322 130 OFFCURVE",
"278 130 CURVE SMOOTH"
);
}
);
width = 600;
}
);
unicode = 00F8;
},
{
glyphname = p;
lastChange = "2019-11-23 18:08:26 +0000";
layers = (
{
components = (
{
name = maru;
transform = "{0.69774, 0, 0, 0.69774, 104, 46}";
}
);
layerId = "09A42E70-DC24-4DD4-94A7-946B904CEA41";
paths = (
{
closed = 1;
nodes = (
"207 -143 OFFCURVE",
"208 -65 OFFCURVE",
"208 36 CURVE",
"239 12 OFFCURVE",
"286 -3 OFFCURVE",
"339 -3 CURVE SMOOTH",
"469 -3 OFFCURVE",
"575 103 OFFCURVE",
"575 234 CURVE SMOOTH",
"575 364 OFFCURVE",
"469 470 OFFCURVE",
"339 470 CURVE SMOOTH",
"287 470 OFFCURVE",
"239 454 OFFCURVE",
"209 432 CURVE",
"197 453 OFFCURVE",
"176 472 OFFCURVE",
"135 472 CURVE SMOOTH",
"27 472 OFFCURVE",
"25 295 OFFCURVE",
"25 178 CURVE SMOOTH",
"25 44 OFFCURVE",
"22 -143 OFFCURVE",
"127 -143 CURVE SMOOTH"
);
}
);
width = 600;
}
);
leftKerningGroup = o;
unicode = 0070;
},
{
glyphname = thorn;
lastChange = "2019-11-13 13:00:59 +0000";
layers = (
{
layerId = "09A42E70-DC24-4DD4-94A7-946B904CEA41";
paths = (
{
closed = 1;
nodes = (
"238 510 OFFCURVE",
"251 632 OFFCURVE",
"144 632 CURVE SMOOTH",
"42 632 OFFCURVE",
"25 489 OFFCURVE",
"25 291 CURVE SMOOTH",
"25 142 OFFCURVE",
"30 -120 OFFCURVE",
"150 -120 CURVE SMOOTH",
"230 -120 OFFCURVE",
"239 -47 OFFCURVE",
"238 24 CURVE",
"268 9 OFFCURVE",
"305 0 OFFCURVE",
"343 0 CURVE SMOOTH",
"455 0 OFFCURVE",
"574 81 OFFCURVE",
"574 240 CURVE SMOOTH",
"574 393 OFFCURVE",
"444 469 OFFCURVE",
"328 469 CURVE SMOOTH",
"296 469 OFFCURVE",
"264 462 OFFCURVE",
"238 452 CURVE"
);
},
{
closed = 1;
nodes = (
"283 151 OFFCURVE",
"247 187 OFFCURVE",
"247 228 CURVE SMOOTH",
"247 270 OFFCURVE",
"283 305 OFFCURVE",
"325 305 CURVE SMOOTH",
"366 305 OFFCURVE",
"402 270 OFFCURVE",
"402 228 CURVE SMOOTH",
"402 187 OFFCURVE",
"366 151 OFFCURVE",
"325 151 CURVE SMOOTH"
);
}
);
width = 600;
}
);
unicode = 00FE;
},
{
glyphname = r;
lastChange = "2019-11-21 00:34:14 +0000";
layers = (
{
layerId = "09A42E70-DC24-4DD4-94A7-946B904CEA41";
paths = (
{
closed = 1;
nodes = (
"227 0 OFFCURVE",
"224 109 OFFCURVE",
"224 178 CURVE SMOOTH",
"224 244 OFFCURVE",
"273 287 OFFCURVE",
"322 287 CURVE SMOOTH",
"350 287 OFFCURVE",
"360 270 OFFCURVE",
"395 270 CURVE SMOOTH",
"447 270 OFFCURVE",
"477 312 OFFCURVE",
"477 351 CURVE SMOOTH",
"477 419 OFFCURVE",
"396 470 OFFCURVE",
"333 470 CURVE SMOOTH",
"282 470 OFFCURVE",
"231 458 OFFCURVE",
"201 430 CURVE",
"193 463 OFFCURVE",
"160 480 OFFCURVE",
"124 480 CURVE SMOOTH",
"23 480 OFFCURVE",
"25 363 OFFCURVE",
"25 271 CURVE SMOOTH",
"25 131 OFFCURVE",
"40 0 OFFCURVE",
"132 0 CURVE SMOOTH"
);
}
);
width = 502;
}
);
leftKerningGroup = r;
rightKerningGroup = r;
unicode = 0072;
},
{
glyphname = s;
lastChange = "2019-11-20 23:52:08 +0000";
layers = (
{
layerId = "09A42E70-DC24-4DD4-94A7-946B904CEA41";
paths = (
{
closed = 1;
nodes = (
"350 0 OFFCURVE",
"439 52 OFFCURVE",
"439 139 CURVE SMOOTH",
"439 214 OFFCURVE",
"372 247 OFFCURVE",
"310 267 CURVE SMOOTH",
"294 272 OFFCURVE",
"288 281 OFFCURVE",
"288 289 CURVE SMOOTH",
"288 299 OFFCURVE",
"297 308 OFFCURVE",
"308 308 CURVE SMOOTH",
"337 308 OFFCURVE",
"342 287 OFFCURVE",
"379 287 CURVE SMOOTH",
"422 287 OFFCURVE",
"451 308 OFFCURVE",
"451 350 CURVE SMOOTH",
"451 416 OFFCURVE",
"363 470 OFFCURVE",
"247 470 CURVE SMOOTH",
"109 470 OFFCURVE",
"25 395 OFFCURVE",
"25 320 CURVE SMOOTH",
"25 277 OFFCURVE",
"51 234 OFFCURVE",
"115 204 CURVE SMOOTH",
"162 182 OFFCURVE",
"197 177 OFFCURVE",
"197 150 CURVE SMOOTH",
"197 139 OFFCURVE",
"188 135 OFFCURVE",
"176 135 CURVE SMOOTH",
"149 135 OFFCURVE",
"145 167 OFFCURVE",
"98 167 CURVE SMOOTH",
"58 167 OFFCURVE",
"25 146 OFFCURVE",
"25 104 CURVE SMOOTH",
"25 43 OFFCURVE",
"99 0 OFFCURVE",
"217 0 CURVE SMOOTH"
);
}
);
width = 476;
}
);
leftKerningGroup = o;
rightKerningGroup = s;
unicode = 0073;
},
{
glyphname = germandbls;
lastChange = "2019-11-13 13:33:00 +0000";
layers = (
{
layerId = "09A42E70-DC24-4DD4-94A7-946B904CEA41";
paths = (
{
closed = 1;
nodes = (
"327 -1 OFFCURVE",
"400 -1 CURVE SMOOTH",
"537 -1 OFFCURVE",
"605 95 OFFCURVE",
"605 185 CURVE SMOOTH",
"605 249 OFFCURVE",
"575 310 OFFCURVE",
"528 329 CURVE",
"575 367 OFFCURVE",
"594 418 OFFCURVE",
"594 469 CURVE SMOOTH",
"594 582 OFFCURVE",
"490 700 OFFCURVE",
"326 700 CURVE SMOOTH",
"198 700 OFFCURVE",
"25 621 OFFCURVE",
"25 325 CURVE SMOOTH",
"25 186 OFFCURVE",
"54 1 OFFCURVE",
"171 1 CURVE SMOOTH",
"220 1 OFFCURVE",
"247 43 OFFCURVE",
"247 109 CURVE SMOOTH",
"247 153 OFFCURVE",
"239 235 OFFCURVE",
"239 301 CURVE SMOOTH",
"239 415 OFFCURVE",
"261 484 OFFCURVE",
"342 484 CURVE SMOOTH",
"376 484 OFFCURVE",
"398 455 OFFCURVE",
"398 428 CURVE SMOOTH",
"398 403 OFFCURVE",
"381 381 OFFCURVE",
"360 381 CURVE SMOOTH",
"306 381 OFFCURVE",
"280 348 OFFCURVE",
"280 315 CURVE SMOOTH",
"280 281 OFFCURVE",
"307 248 OFFCURVE",
"360 248 CURVE SMOOTH",
"396 248 OFFCURVE",
"416 222 OFFCURVE",
"416 197 CURVE SMOOTH",
"416 177 OFFCURVE",
"401 153 OFFCURVE",
"368 156 CURVE SMOOTH",
"306 162 OFFCURVE",
"272 127 OFFCURVE",
"272 86 CURVE SMOOTH",
"272 25 OFFCURVE"
);
}
);
width = 630;
}
);
unicode = 00DF;
},
{
glyphname = t;
lastChange = "2019-11-23 18:31:53 +0000";
layers = (
{
guideLines = (
{
position = "{244, 373}";
}
);
layerId = "09A42E70-DC24-4DD4-94A7-946B904CEA41";
paths = (
{
closed = 1;
nodes = (
"417 0 OFFCURVE",
"468 26 OFFCURVE",
"468 72 CURVE SMOOTH",
"468 112 OFFCURVE",
"449 139 OFFCURVE",
"419 146 CURVE SMOOTH",
"373 157 OFFCURVE",
"349 145 OFFCURVE",
"337 181 CURVE SMOOTH",
"332 196 OFFCURVE",
"329 223 OFFCURVE",
"329 262 CURVE SMOOTH",
"329 332 OFFCURVE",
"332 399 OFFCURVE",
"333 443 CURVE SMOOTH",
"336 553 OFFCURVE",
"351 700 OFFCURVE",
"244 700 CURVE SMOOTH",
"131 700 OFFCURVE",
"140 515 OFFCURVE",
"140 443 CURVE SMOOTH",
"140 359 OFFCURVE",
"135 193 OFFCURVE",
"160 120 CURVE SMOOTH",
"186 44 OFFCURVE",
"266 0 OFFCURVE",
"337 0 CURVE SMOOTH"
);
},
{
closed = 1;
nodes = (
"354 344 OFFCURVE",
"513 330 OFFCURVE",
"513 433 CURVE SMOOTH",
"513 530 OFFCURVE",
"385 512 OFFCURVE",
"235 512 CURVE SMOOTH",
"113 512 OFFCURVE",
"-15 527 OFFCURVE",
"-15 421 CURVE SMOOTH",
"-15 330 OFFCURVE",
"143 344 OFFCURVE",
"235 344 CURVE SMOOTH"
);
}
);
width = 538;
}
);
leftKerningGroup = t;
unicode = 0074;
},
{
glyphname = tbar;
lastChange = "2019-11-13 13:10:29 +0000";
layers = (
{
components = (
{
name = t;
}
);
layerId = "09A42E70-DC24-4DD4-94A7-946B904CEA41";
paths = (
{
closed = 1;
nodes = (
"367 193 OFFCURVE",
"451 190 OFFCURVE",
"451 248 CURVE SMOOTH",
"451 306 OFFCURVE",
"367 304 OFFCURVE",
"246 304 CURVE SMOOTH",
"126 304 OFFCURVE",
"42 306 OFFCURVE",
"42 248 CURVE SMOOTH",
"42 190 OFFCURVE",
"126 193 OFFCURVE",
"246 193 CURVE SMOOTH"
);
}
);
width = 600;
}
);
unicode = 0167;
},
{
glyphname = tcaron;
lastChange = "2019-11-13 13:26:29 +0000";
layers = (
{
components = (
{
name = t;
}
);
layerId = "09A42E70-DC24-4DD4-94A7-946B904CEA41";
paths = (
{
closed = 1;
nodes = (
"514 578 OFFCURVE",
"521 742 OFFCURVE",
"521 763 CURVE SMOOTH",
"521 803 OFFCURVE",
"499 825 OFFCURVE",
"446 822 CURVE SMOOTH",
"397 819 OFFCURVE",
"390 781 OFFCURVE",
"390 743 CURVE SMOOTH",
"390 659 OFFCURVE",
"389 567 OFFCURVE",
"458 573 CURVE SMOOTH"
);
}
);
width = 538;
}
);
unicode = 0165;
},
{
glyphname = u;
lastChange = "2019-11-21 09:43:44 +0000";
layers = (
{
guideLines = (
{
position = "{297, 437}";
},
{
position = "{297, 234}";
},
{
angle = 270;
position = "{308, 317}";
},
{
angle = 270;
position = "{244, 304}";
},
{
angle = 270;
position = "{374, 317}";
},
{
position = "{-487, 192}";
}
);
layerId = "09A42E70-DC24-4DD4-94A7-946B904CEA41";
paths = (
{
closed = 1;
nodes = (
"428 0 OFFCURVE",
"509 118 OFFCURVE",
"509 290 CURVE SMOOTH",
"509 402 OFFCURVE",
"473 470 OFFCURVE",
"408 470 CURVE SMOOTH",
"340 470 OFFCURVE",
"323 428 OFFCURVE",
"323 382 CURVE SMOOTH",
"323 338 OFFCURVE",
"329 308 OFFCURVE",
"329 264 CURVE SMOOTH",
"329 201 OFFCURVE",
"300 174 OFFCURVE",
"267 174 CURVE SMOOTH",
"236 174 OFFCURVE",
"205 201 OFFCURVE",
"205 264 CURVE SMOOTH",
"205 308 OFFCURVE",
"212 345 OFFCURVE",
"212 383 CURVE SMOOTH",
"212 426 OFFCURVE",
"197 470 OFFCURVE",
"127 470 CURVE SMOOTH",
"62 470 OFFCURVE",
"25 402 OFFCURVE",
"25 290 CURVE SMOOTH",
"25 118 OFFCURVE",
"118 0 OFFCURVE",
"267 0 CURVE SMOOTH"
);
}
);
width = 537;
}
);
unicode = 0075;
},
{
glyphname = uhorn;
lastChange = "2019-11-13 13:29:37 +0000";
layers = (
{
components = (
{
name = u;
}
);
hints = (
{
place = "{211, 260.87}";
type = Stem;
}
);
layerId = "09A42E70-DC24-4DD4-94A7-946B904CEA41";
paths = (
{
closed = 1;
nodes = (
"553 353 OFFCURVE",
"591 412 OFFCURVE",
"591 473 CURVE SMOOTH",
"591 512 OFFCURVE",
"594 586 OFFCURVE",
"537 586 CURVE SMOOTH",
"489 586 OFFCURVE",
"478 545 OFFCURVE",
"478 515 CURVE SMOOTH",
"478 460 OFFCURVE",
"445 471 OFFCURVE",
"398 467 CURVE SMOOTH",
"366 464 OFFCURVE",
"348 443 OFFCURVE",
"348 409 CURVE SMOOTH",
"348 368 OFFCURVE",
"389 353 OFFCURVE",
"471 353 CURVE SMOOTH"
);
}
);
width = 591;
}
);
unicode = 01B0;
},
{
glyphname = v;
lastChange = "2019-11-21 09:43:48 +0000";
layers = (
{
guideLines = (
{
position = "{-487, 192}";
}
);
layerId = "09A42E70-DC24-4DD4-94A7-946B904CEA41";
paths = (
{
closed = 1;
nodes = (
"321 1 OFFCURVE",
"361 22 OFFCURVE",
"390 55 CURVE SMOOTH",
"431 96 OFFCURVE",
"537 247 OFFCURVE",
"537 379 CURVE SMOOTH",
"537 442 OFFCURVE",
"498 469 OFFCURVE",
"460 470 CURVE SMOOTH",
"367 472 OFFCURVE",
"326 330 OFFCURVE",
"282 204 CURVE",
"238 330 OFFCURVE",
"202 470 OFFCURVE",
"107 470 CURVE SMOOTH",
"65 470 OFFCURVE",
"25 431 OFFCURVE",
"25 373 CURVE SMOOTH",
"25 252 OFFCURVE",
"132 82 OFFCURVE",
"190 34 CURVE SMOOTH",
"232 0 OFFCURVE",
"262 1 OFFCURVE",
"286 1 CURVE SMOOTH"
);
}
);
width = 561;
}
);
leftKerningGroup = v;
rightKerningGroup = v;
unicode = 0076;
},
{
glyphname = w;
lastChange = "2019-11-21 00:22:02 +0000";
layers = (
{
guideLines = (
{
position = "{-473, 192}";
}
);
layerId = "09A42E70-DC24-4DD4-94A7-946B904CEA41";
paths = (
{
closed = 1;
nodes = (
"271 -1 OFFCURVE",
"317 24 OFFCURVE",
"346 58 CURVE",
"375 24 OFFCURVE",
"422 2 OFFCURVE",
"476 2 CURVE SMOOTH",
"594 2 OFFCURVE",
"668 98 OFFCURVE",
"668 246 CURVE SMOOTH",
"668 341 OFFCURVE",
"636 470 OFFCURVE",
"551 470 CURVE SMOOTH",
"501 470 OFFCURVE",
"479 441 OFFCURVE",
"479 384 CURVE SMOOTH",
"479 346 OFFCURVE",
"510 287 OFFCURVE",
"510 247 CURVE SMOOTH",
"510 204 OFFCURVE",
"495 183 OFFCURVE",
"463 183 CURVE SMOOTH",
"409 183 OFFCURVE",
"424 271 OFFCURVE",
"424 358 CURVE SMOOTH",
"424 400 OFFCURVE",
"400 441 OFFCURVE",
"346 441 CURVE SMOOTH",
"292 441 OFFCURVE",
"271 400 OFFCURVE",
"271 358 CURVE SMOOTH",
"271 271 OFFCURVE",
"281 183 OFFCURVE",
"233 183 CURVE SMOOTH",
"202 183 OFFCURVE",
"197 204 OFFCURVE",
"197 247 CURVE SMOOTH",
"197 287 OFFCURVE",
"219 346 OFFCURVE",
"219 382 CURVE SMOOTH",
"219 435 OFFCURVE",
"192 471 OFFCURVE",
"142 471 CURVE SMOOTH",
"57 471 OFFCURVE",
"25 341 OFFCURVE",
"25 245 CURVE SMOOTH",
"25 98 OFFCURVE",
"99 -1 OFFCURVE",
"217 -1 CURVE SMOOTH"
);
}
);
width = 693;
}
);
leftKerningGroup = o;
rightKerningGroup = w;
unicode = 0077;
},
{
glyphname = x;
lastChange = "2019-11-21 09:44:18 +0000";
layers = (
{
guideLines = (
{
angle = 270;
position = "{285, 261}";
}
);
layerId = "09A42E70-DC24-4DD4-94A7-946B904CEA41";
paths = (
{
closed = 1;
nodes = (
"178 6 OFFCURVE",
"245 67 OFFCURVE",
"317 145 CURVE SMOOTH",
"397 231 OFFCURVE",
"466 312 OFFCURVE",
"472 383 CURVE SMOOTH",
"476 435 OFFCURVE",
"443 470 OFFCURVE",
"392 470 CURVE SMOOTH",
"318 470 OFFCURVE",
"244 392 OFFCURVE",
"164 303 CURVE SMOOTH",
"88 217 OFFCURVE",
"25 136 OFFCURVE",
"25 76 CURVE SMOOTH",
"25 22 OFFCURVE",
"65 -8 OFFCURVE",
"123 -1 CURVE SMOOTH"
);
},
{
closed = 1;
nodes = (
"438 -1 OFFCURVE",
"471 31 OFFCURVE",
"471 82 CURVE SMOOTH",
"471 138 OFFCURVE",
"404 222 OFFCURVE",
"324 309 CURVE SMOOTH",
"246 393 OFFCURVE",
"173 468 OFFCURVE",
"112 468 CURVE SMOOTH",
"58 468 OFFCURVE",
"26 435 OFFCURVE",
"26 376 CURVE SMOOTH",
"26 312 OFFCURVE",
"87 246 OFFCURVE",
"155 170 CURVE SMOOTH",
"235 79 OFFCURVE",
"324 -1 OFFCURVE",
"383 -1 CURVE SMOOTH"
);
}
);
width = 497;
}
);
leftKerningGroup = x;
unicode = 0078;
},
{
glyphname = y;
lastChange = "2019-11-21 00:31:51 +0000";
layers = (
{
guideLines = (
{
position = "{-502, 192}";
}
);
layerId = "09A42E70-DC24-4DD4-94A7-946B904CEA41";
paths = (
{
closed = 1;
nodes = (
"444 -148 OFFCURVE",
"530 69 OFFCURVE",
"530 289 CURVE SMOOTH",
"530 386 OFFCURVE",
"502 468 OFFCURVE",
"427 468 CURVE SMOOTH",
"361 468 OFFCURVE",
"335 427 OFFCURVE",
"335 371 CURVE SMOOTH",
"335 281 OFFCURVE",
"352 194 OFFCURVE",
"277 194 CURVE SMOOTH",
"202 194 OFFCURVE",
"219 281 OFFCURVE",
"219 373 CURVE SMOOTH",
"219 424 OFFCURVE",
"193 468 OFFCURVE",
"127 468 CURVE SMOOTH",
"52 468 OFFCURVE",
"25 386 OFFCURVE",
"25 289 CURVE SMOOTH",
"25 107 OFFCURVE",
"92 30 OFFCURVE",
"276 30 CURVE",
"258 8 OFFCURVE",
"228 2 OFFCURVE",
"170 4 CURVE SMOOTH",
"117 6 OFFCURVE",
"66 -19 OFFCURVE",
"66 -65 CURVE SMOOTH",
"66 -123 OFFCURVE",
"126 -148 OFFCURVE",
"192 -148 CURVE SMOOTH"
);
}
);
width = 555;
}
);
leftKerningGroup = v;
unicode = 0079;
},
{
glyphname = z;
lastChange = "2019-11-21 09:44:25 +0000";
layers = (
{
guideLines = (
{
position = "{-467, 192}";
}
);
layerId = "09A42E70-DC24-4DD4-94A7-946B904CEA41";
paths = (
{
closed = 1;
nodes = (
"374 1 OFFCURVE",
"453 12 OFFCURVE",
"453 86 CURVE SMOOTH",
"453 156 OFFCURVE",
"386 161 OFFCURVE",
"292 161 CURVE",
"370 200 OFFCURVE",
"457 270 OFFCURVE",
"457 350 CURVE SMOOTH",
"457 448 OFFCURVE",
"377 470 OFFCURVE",
"239 470 CURVE SMOOTH",
"103 470 OFFCURVE",
"25 447 OFFCURVE",
"25 377 CURVE SMOOTH",
"25 290 OFFCURVE",
"93 290 OFFCURVE",
"209 290 CURVE",
"115 224 OFFCURVE",
"41 171 OFFCURVE",
"41 111 CURVE SMOOTH",
"41 12 OFFCURVE",
"117 1 OFFCURVE",
"247 1 CURVE SMOOTH"
);
}
);
width = 482;
}
);
leftKerningGroup = z;
rightKerningGroup = z;
unicode = 007A;
},
{
glyphname = a.ss01.001;
lastChange = "2019-12-02 11:43:17 +0000";
layers = (
{
components = (
{
name = maru;
transform = "{0.71035, 0, 0, 0.71035, 39, 43}";
}
);
guideLines = (
{
position = "{522, 714}";
}
);
hints = (
{
horizontal = 1;
place = "{0, 138}";
type = Stem;
}
);
layerId = "09A42E70-DC24-4DD4-94A7-946B904CEA41";
paths = (
{
closed = 1;
nodes = (
"527 0 OFFCURVE",
"559 37 OFFCURVE",
"559 87 CURVE SMOOTH",
"559 171 OFFCURVE",
"555 262 OFFCURVE",
"518 334 CURVE SMOOTH",
"465 435 OFFCURVE",
"384 472 OFFCURVE",
"288 472 CURVE SMOOTH",
"197 472 OFFCURVE",
"25 427 OFFCURVE",
"25 225 CURVE SMOOTH",
"25 92 OFFCURVE",
"135 2 OFFCURVE",
"240 2 CURVE SMOOTH",
"304 2 OFFCURVE",
"349 14 OFFCURVE",
"401 49 CURVE",
"409 23 OFFCURVE",
"438 0 OFFCURVE",
"483 0 CURVE SMOOTH"
);
}
);
width = 584;
}
);
leftKerningGroup = o;
rightKerningGroup = o;
},
{
glyphname = a.ss01;
lastChange = "2019-11-11 09:28:11 +0000";
layers = (
{
components = (
{
name = maru;
transform = "{0.71035, 0, 0, 0.71035, 39, 43}";
}
);
guideLines = (
{
position = "{522, 714}";
}
);
hints = (
{
horizontal = 1;
place = "{0, 138}";
type = Stem;
}
);
layerId = "09A42E70-DC24-4DD4-94A7-946B904CEA41";
paths = (
{
closed = 1;
nodes = (
"527 0 OFFCURVE",
"559 37 OFFCURVE",
"559 87 CURVE SMOOTH",
"559 171 OFFCURVE",
"555 262 OFFCURVE",
"518 334 CURVE SMOOTH",
"465 435 OFFCURVE",
"384 472 OFFCURVE",
"288 472 CURVE SMOOTH",
"197 472 OFFCURVE",
"25 427 OFFCURVE",
"25 225 CURVE SMOOTH",
"25 92 OFFCURVE",
"135 2 OFFCURVE",
"240 2 CURVE SMOOTH",
"304 2 OFFCURVE",
"349 14 OFFCURVE",
"401 49 CURVE",
"409 23 OFFCURVE",
"438 0 OFFCURVE",
"483 0 CURVE SMOOTH"
);
}
);
width = 584;
}
);
leftKerningGroup = o;
rightKerningGroup = o;
},
{
glyphname = "a-hira";
lastChange = "2019-12-02 11:50:34 +0000";
layers = (
{
guideLines = (
{
position = "{459, 789}";
}
);
hints = (
{
horizontal = 1;
place = "{700, 180}";
type = Stem;
}
);
layerId = "09A42E70-DC24-4DD4-94A7-946B904CEA41";
paths = (
{
closed = 1;
nodes = (
"620 0 OFFCURVE",
"684 75 OFFCURVE",
"684 174 CURVE SMOOTH",
"684 273 OFFCURVE",
"620 428 OFFCURVE",
"377 428 CURVE SMOOTH",
"182 428 OFFCURVE",
"55 335 OFFCURVE",
"55 194 CURVE SMOOTH",
"55 83 OFFCURVE",
"134 2 OFFCURVE",
"240 2 CURVE SMOOTH",
"484 2 OFFCURVE",
"565 203 OFFCURVE",
"565 270 CURVE SMOOTH",
"565 362 OFFCURVE",
"469 377 OFFCURVE",
"460 292 CURVE SMOOTH",
"444 141 OFFCURVE",
"211 81 OFFCURVE",
"211 194 CURVE SMOOTH",
"211 251 OFFCURVE",
"278 287 OFFCURVE",
"367 287 CURVE SMOOTH",
"486 287 OFFCURVE",
"539 216 OFFCURVE",
"539 158 CURVE SMOOTH",
"539 105 OFFCURVE",
"506 85 OFFCURVE",
"506 50 CURVE SMOOTH",
"506 22 OFFCURVE",
"520 0 OFFCURVE",
"560 0 CURVE SMOOTH"
);
},
{
closed = 1;
nodes = (
"423 0 OFFCURVE",
"448 20 OFFCURVE",
"448 55 CURVE SMOOTH",
"448 72 OFFCURVE",
"430 108 OFFCURVE",
"423 150 CURVE SMOOTH",
"413 204 OFFCURVE",
"410 268 OFFCURVE",
"410 335 CURVE SMOOTH",
"410 425 OFFCURVE",
"425 513 OFFCURVE",
"425 586 CURVE SMOOTH",
"425 647 OFFCURVE",
"413 709 OFFCURVE",
"341 709 CURVE SMOOTH",
"266 709 OFFCURVE",
"244 635 OFFCURVE",
"244 567 CURVE SMOOTH",
"244 413 OFFCURVE",
"251 161 OFFCURVE",
"330 40 CURVE SMOOTH",
"345 17 OFFCURVE",
"369 0 OFFCURVE",
"395 0 CURVE SMOOTH"
);
},
{
closed = 1;
nodes = (
"578 453 OFFCURVE",
"699 454 OFFCURVE",
"699 545 CURVE SMOOTH",
"699 636 OFFCURVE",
"578 637 OFFCURVE",
"362 637 CURVE SMOOTH",
"146 637 OFFCURVE",
"25 636 OFFCURVE",
"25 545 CURVE SMOOTH",
"25 454 OFFCURVE",
"146 453 OFFCURVE",
"362 453 CURVE SMOOTH"
);
}
);
width = 724;
}
);
leftKerningGroup = a;
unicode = 3042;
},
{
glyphname = "i-hira";
lastChange = "2019-12-02 11:53:20 +0000";
layers = (
{
guideLines = (
{
position = "{274, 0}";
}
);
hints = (
{
horizontal = 1;
place = "{700, 180}";
type = Stem;
}
);
layerId = "09A42E70-DC24-4DD4-94A7-946B904CEA41";
paths = (
{
closed = 1;
nodes = (
"337 17 OFFCURVE",
"449 92 OFFCURVE",
"449 162 CURVE SMOOTH",
"449 246 OFFCURVE",
"371 258 OFFCURVE",
"297 198 CURVE SMOOTH",
"276 181 OFFCURVE",
"244 254 OFFCURVE",
"248 356 CURVE SMOOTH",
"251 425 OFFCURVE",
"259 499 OFFCURVE",
"259 535 CURVE SMOOTH",
"259 590 OFFCURVE",
"225 630 OFFCURVE",
"159 630 CURVE SMOOTH",
"42 630 OFFCURVE",
"25 483 OFFCURVE",
"25 388 CURVE SMOOTH",
"25 141 OFFCURVE",
"151 11 OFFCURVE",
"272 15 CURVE SMOOTH"
);
},
{
closed = 1;
nodes = (
"736 113 OFFCURVE",
"771 216 OFFCURVE",
"771 304 CURVE SMOOTH",
"771 412 OFFCURVE",
"698 577 OFFCURVE",
"591 577 CURVE SMOOTH",
"535 577 OFFCURVE",
"494 535 OFFCURVE",
"504 477 CURVE SMOOTH",
"522 371 OFFCURVE",
"584 378 OFFCURVE",
"572 205 CURVE SMOOTH",
"568 149 OFFCURVE",
"617 113 OFFCURVE",
"667 113 CURVE SMOOTH"
);
}
);
width = 791;
}
);
unicode = 3044;
},
{
glyphname = "u-hira";
lastChange = "2019-12-02 11:50:29 +0000";
layers = (
{
hints = (
{
horizontal = 1;
place = "{700, 180}";
type = Stem;
},
{
horizontal = 1;
place = "{-144, 144}";
type = Stem;
}
);
layerId = "09A42E70-DC24-4DD4-94A7-946B904CEA41";
paths = (
{
closed = 1;
nodes = (
"415 2 OFFCURVE",
"562 92 OFFCURVE",
"562 251 CURVE SMOOTH",
"562 391 OFFCURVE",
"458 478 OFFCURVE",
"288 478 CURVE SMOOTH",
"180 478 OFFCURVE",
"48 441 OFFCURVE",
"48 344 CURVE SMOOTH",
"48 283 OFFCURVE",
"75 257 OFFCURVE",
"136 257 CURVE SMOOTH",
"185 257 OFFCURVE",
"214 287 OFFCURVE",
"269 287 CURVE SMOOTH",
"325 287 OFFCURVE",
"363 265 OFFCURVE",
"363 218 CURVE SMOOTH",
"363 169 OFFCURVE",
"328 150 OFFCURVE",
"283 129 CURVE SMOOTH",
"248 113 OFFCURVE",
"221 101 OFFCURVE",
"221 61 CURVE SMOOTH",
"221 33 OFFCURVE",
"241 2 OFFCURVE",
"294 2 CURVE SMOOTH"
);
},
{
closed = 1;
nodes = (
"466 526 OFFCURVE",
"583 517 OFFCURVE",
"583 609 CURVE SMOOTH",
"583 701 OFFCURVE",
"466 712 OFFCURVE",
"299 712 CURVE SMOOTH",
"132 712 OFFCURVE",
"15 701 OFFCURVE",
"15 609 CURVE SMOOTH",
"15 517 OFFCURVE",
"132 526 OFFCURVE",
"299 526 CURVE SMOOTH"
);
}
);
width = 608;
}
);
leftKerningGroup = u;
unicode = 3046;
},
{
glyphname = "e-hira";
lastChange = "2019-12-02 11:50:33 +0000";
layers = (
{
hints = (
{
horizontal = 1;
place = "{712, 180}";
type = Stem;
},
{
horizontal = 1;
origin = "{1, 11}";
target = "{1, 8}";
type = Stem;
},
{
horizontal = 1;
place = "{-120, 120}";
type = Stem;
}
);
layerId = "09A42E70-DC24-4DD4-94A7-946B904CEA41";
paths = (
{
closed = 1;
nodes = (
"503 2 OFFCURVE",
"558 12 OFFCURVE",
"558 67 CURVE SMOOTH",
"558 109 OFFCURVE",
"526 130 OFFCURVE",
"489 130 CURVE SMOOTH",
"469 130 OFFCURVE",
"453 127 OFFCURVE",
"449 145 CURVE SMOOTH",
"441 184 OFFCURVE",
"417 212 OFFCURVE",
"381 216 CURVE",
"475 279 OFFCURVE",
"519 293 OFFCURVE",
"519 379 CURVE SMOOTH",
"519 479 OFFCURVE",
"381 485 OFFCURVE",
"302 485 CURVE SMOOTH",
"155 485 OFFCURVE",
"36 468 OFFCURVE",
"36 394 CURVE SMOOTH",
"36 307 OFFCURVE",
"107 306 OFFCURVE",
"252 306 CURVE",
"175 236 OFFCURVE",
"59 155 OFFCURVE",
"59 75 CURVE SMOOTH",
"59 29 OFFCURVE",
"90 4 OFFCURVE",
"127 4 CURVE SMOOTH",
"208 4 OFFCURVE",
"216 99 OFFCURVE",
"289 99 CURVE SMOOTH",
"367 99 OFFCURVE",
"335 2 OFFCURVE",
"437 2 CURVE SMOOTH"
);
},
{
closed = 1;
nodes = (
"441 528 OFFCURVE",
"561 529 OFFCURVE",
"561 620 CURVE SMOOTH",
"561 711 OFFCURVE",
"441 712 OFFCURVE",
"293 712 CURVE SMOOTH",
"145 712 OFFCURVE",
"25 711 OFFCURVE",
"25 620 CURVE SMOOTH",
"25 529 OFFCURVE",
"145 528 OFFCURVE",
"293 528 CURVE SMOOTH"
);
}
);
width = 586;
}
);
unicode = 3048;
},
{
glyphname = "o-hira";
lastChange = "2019-12-02 11:38:43 +0000";
layers = (
{
guideLines = (
{
position = "{616, 777}";
},
{
position = "{274, 0}";
}
);
hints = (
{
horizontal = 1;
place = "{700, 180}";
type = Stem;
}
);
layerId = "09A42E70-DC24-4DD4-94A7-946B904CEA41";
paths = (
{
closed = 1;
nodes = (
"432 2 OFFCURVE",
"400 240 OFFCURVE",
"400 493 CURVE SMOOTH",
"400 603 OFFCURVE",
"408 700 OFFCURVE",
"311 700 CURVE SMOOTH",
"240 700 OFFCURVE",
"233 641 OFFCURVE",
"233 583 CURVE SMOOTH",
"233 436 OFFCURVE",
"242 315 OFFCURVE",
"242 270 CURVE SMOOTH",
"242 221 OFFCURVE",
"251 132 OFFCURVE",
"209 132 CURVE SMOOTH",
"179 132 OFFCURVE",
"168 152 OFFCURVE",
"172 178 CURVE SMOOTH",
"178 214 OFFCURVE",
"245 237 OFFCURVE",
"317 237 CURVE SMOOTH",
"402 237 OFFCURVE",
"491 213 OFFCURVE",
"491 152 CURVE SMOOTH",
"491 100 OFFCURVE",
"453 96 OFFCURVE",
"453 50 CURVE SMOOTH",
"453 18 OFFCURVE",
"489 2 OFFCURVE",
"520 5 CURVE SMOOTH",
"597 12 OFFCURVE",
"637 97 OFFCURVE",
"637 155 CURVE SMOOTH",
"637 308 OFFCURVE",
"493 404 OFFCURVE",
"334 404 CURVE SMOOTH",
"152 404 OFFCURVE",
"36 328 OFFCURVE",
"36 179 CURVE SMOOTH",
"36 75 OFFCURVE",
"116 2 OFFCURVE",
"219 2 CURVE SMOOTH"
);
},
{
closed = 1;
nodes = (
"450 439 OFFCURVE",
"572 440 OFFCURVE",
"572 531 CURVE SMOOTH",
"572 622 OFFCURVE",
"450 623 OFFCURVE",
"289 623 CURVE SMOOTH",
"127 623 OFFCURVE",
"15 622 OFFCURVE",
"15 531 CURVE SMOOTH",
"15 440 OFFCURVE",
"127 439 OFFCURVE",
"289 439 CURVE SMOOTH"
);
},
{
closed = 1;
nodes = (
"700 230 OFFCURVE",
"747 270 CURVE SMOOTH",
"814 327 OFFCURVE",
"711 487 OFFCURVE",
"615 487 CURVE SMOOTH",
"543 487 OFFCURVE",
"532 403 OFFCURVE",
"581 339 CURVE SMOOTH",
"643 258 OFFCURVE"
);
}
);
width = 781;
}
);
unicode = 304A;
},
{
glyphname = "ka-hira";
lastChange = "2019-12-02 11:50:40 +0000";
layers = (
{
hints = (
{
horizontal = 1;
place = "{700, 180}";
type = Stem;
}
);
layerId = "09A42E70-DC24-4DD4-94A7-946B904CEA41";
paths = (
{
closed = 1;
nodes = (
"542 4 OFFCURVE",
"609 111 OFFCURVE",
"609 281 CURVE SMOOTH",
"609 398 OFFCURVE",
"549 505 OFFCURVE",
"444 539 CURVE SMOOTH",
"391 556 OFFCURVE",
"272 558 OFFCURVE",
"207 558 CURVE SMOOTH",
"139 558 OFFCURVE",
"15 554 OFFCURVE",
"15 451 CURVE SMOOTH",
"15 374 OFFCURVE",
"85 359 OFFCURVE",
"151 364 CURVE SMOOTH",
"293 374 OFFCURVE",
"446 374 OFFCURVE",
"446 243 CURVE SMOOTH",
"446 172 OFFCURVE",
"434 144 OFFCURVE",
"392 133 CURVE SMOOTH",
"350 122 OFFCURVE",
"327 98 OFFCURVE",
"327 65 CURVE SMOOTH",
"327 36 OFFCURVE",
"350 4 OFFCURVE",
"396 4 CURVE SMOOTH"
);
},
{
closed = 1;
nodes = (
"186 -10 OFFCURVE",
"237 92 CURVE SMOOTH",
"283 184 OFFCURVE",
"371 449 OFFCURVE",
"390 596 CURVE SMOOTH",
"398 658 OFFCURVE",
"360 702 OFFCURVE",
"304 702 CURVE SMOOTH",
"227 702 OFFCURVE",
"209 647 OFFCURVE",
"200 569 CURVE SMOOTH",
"166 278 OFFCURVE",
"81 199 OFFCURVE",
"74 124 CURVE SMOOTH",
"64 22 OFFCURVE"
);
},
{
closed = 1;
nodes = (
"836 255 OFFCURVE",
"846 331 OFFCURVE",
"832 395 CURVE SMOOTH",
"811 489 OFFCURVE",
"714 635 OFFCURVE",
"605 635 CURVE SMOOTH",
"558 635 OFFCURVE",
"532 606 OFFCURVE",
"532 565 CURVE SMOOTH",
"532 497 OFFCURVE",
"610 479 OFFCURVE",
"658 389 CURVE SMOOTH",
"687 334 OFFCURVE",
"689 255 OFFCURVE",
"759 255 CURVE SMOOTH"
);
}
);
width = 862;
}
);
leftKerningGroup = ka;
unicode = 304B;
},
{
glyphname = "ki-hira";
lastChange = "2019-12-02 11:38:43 +0000";
layers = (
{
guideLines = (
{
position = "{104, 782}";
}
);
hints = (
{
horizontal = 1;
place = "{700, 180}";
type = Stem;
}
);
layerId = "09A42E70-DC24-4DD4-94A7-946B904CEA41";
paths = (
{
closed = 1;
nodes = (
"448 169 OFFCURVE",
"471 203 OFFCURVE",
"471 261 CURVE SMOOTH",
"471 309 OFFCURVE",
"431 543 OFFCURVE",
"419 622 CURVE SMOOTH",
"410 679 OFFCURVE",
"367 707 OFFCURVE",
"326 707 CURVE SMOOTH",
"283 707 OFFCURVE",
"242 677 OFFCURVE",
"242 618 CURVE SMOOTH",
"242 573 OFFCURVE",
"294 324 OFFCURVE",
"315 252 CURVE SMOOTH",
"330 202 OFFCURVE",
"358 169 OFFCURVE",
"405 169 CURVE SMOOTH"
);
},
{
closed = 1;
nodes = (
"450 27 OFFCURVE",
"450 80 CURVE SMOOTH",
"450 110 OFFCURVE",
"424 140 OFFCURVE",
"374 140 CURVE SMOOTH",
"275 140 OFFCURVE",
"249 160 OFFCURVE",
"219 202 CURVE SMOOTH",
"201 228 OFFCURVE",
"173 240 OFFCURVE",
"147 240 CURVE SMOOTH",
"113 240 OFFCURVE",
"82 217 OFFCURVE",
"82 172 CURVE SMOOTH",
"82 76 OFFCURVE",
"194 9 OFFCURVE",
"329 9 CURVE SMOOTH",
"388 9 OFFCURVE"
);
},
{
closed = 1;
nodes = (
"424 260 OFFCURVE",
"452 260 CURVE SMOOTH",
"556 260 OFFCURVE",
"635 268 OFFCURVE",
"635 343 CURVE SMOOTH",
"635 407 OFFCURVE",
"573 420 OFFCURVE",
"466 420 CURVE SMOOTH",
"446 420 OFFCURVE",
"270 420 OFFCURVE",
"256 420 CURVE SMOOTH",
"112 420 OFFCURVE",
"34 417 OFFCURVE",
"34 343 CURVE SMOOTH",
"34 269 OFFCURVE",
"120 260 OFFCURVE",
"256 260 CURVE SMOOTH",
"290 260 OFFCURVE"
);
},
{
closed = 1;
nodes = (
"365 455 OFFCURVE",
"401 455 CURVE SMOOTH",
"561 455 OFFCURVE",
"641 462 OFFCURVE",
"641 540 CURVE SMOOTH",
"641 617 OFFCURVE",
"565 629 OFFCURVE",
"443 629 CURVE SMOOTH",
"424 629 OFFCURVE",
"339 629 OFFCURVE",
"322 629 CURVE SMOOTH",
"112 629 OFFCURVE",
"25 625 OFFCURVE",
"25 535 CURVE SMOOTH",
"25 461 OFFCURVE",
"107 455 OFFCURVE",
"224 455 CURVE SMOOTH",
"242 455 OFFCURVE"
);
}
);
width = 666;
}
);
leftKerningGroup = ki;
unicode = 304D;
},
{
glyphname = "ku-hira";
lastChange = "2019-12-02 11:38:43 +0000";
layers = (
{
hints = (
{
horizontal = 1;
place = "{700, 180}";
type = Stem;
}
);
layerId = "09A42E70-DC24-4DD4-94A7-946B904CEA41";
paths = (
{
closed = 1;
nodes = (
"499 -2 OFFCURVE",
"536 29 OFFCURVE",
"536 75 CURVE SMOOTH",
"536 147 OFFCURVE",
"466 194 OFFCURVE",
"254 310 CURVE SMOOTH",
"231 324 OFFCURVE",
"231 335 OFFCURVE",
"254 351 CURVE SMOOTH",
"459 489 OFFCURVE",
"530 519 OFFCURVE",
"530 595 CURVE SMOOTH",
"530 653 OFFCURVE",
"481 682 OFFCURVE",
"430 682 CURVE SMOOTH",
"352 682 OFFCURVE",
"203 573 OFFCURVE",
"124 497 CURVE SMOOTH",
"45 419 OFFCURVE",
"15 382 OFFCURVE",
"15 327 CURVE SMOOTH",
"15 270 OFFCURVE",
"36 234 OFFCURVE",
"124 169 CURVE SMOOTH",
"278 58 OFFCURVE",
"390 -2 OFFCURVE",
"452 -2 CURVE SMOOTH"
);
}
);
width = 561;
}
);
leftKerningGroup = ku;
unicode = 304F;
},
{
glyphname = "ke-hira";
lastChange = "2019-12-02 11:38:43 +0000";
layers = (
{
hints = (
{
horizontal = 1;
place = "{700, 180}";
type = Stem;
}
);
layerId = "09A42E70-DC24-4DD4-94A7-946B904CEA41";
paths = (
{
closed = 1;
nodes = (
"534 7 OFFCURVE",
"601 70 OFFCURVE",
"633 169 CURVE SMOOTH",
"658 245 OFFCURVE",
"670 364 OFFCURVE",
"670 431 CURVE SMOOTH",
"670 561 OFFCURVE",
"663 699 OFFCURVE",
"558 699 CURVE SMOOTH",
"495 699 OFFCURVE",
"466 662 OFFCURVE",
"466 588 CURVE SMOOTH",
"466 525 OFFCURVE",
"489 452 OFFCURVE",
"489 377 CURVE SMOOTH",
"489 283 OFFCURVE",
"476 197 OFFCURVE",
"418 139 CURVE SMOOTH",
"393 114 OFFCURVE",
"379 89 OFFCURVE",
"379 66 CURVE SMOOTH",
"379 34 OFFCURVE",
"407 7 OFFCURVE",
"450 7 CURVE SMOOTH"
);
},
{
closed = 1;
nodes = (
"234 6 OFFCURVE",
"255 39 OFFCURVE",
"255 71 CURVE SMOOTH",
"255 137 OFFCURVE",
"209 197 OFFCURVE",
"209 336 CURVE SMOOTH",
"209 389 OFFCURVE",
"228 467 OFFCURVE",
"226 528 CURVE SMOOTH",
"224 582 OFFCURVE",
"205 624 OFFCURVE",
"148 624 CURVE SMOOTH",
"42 624 OFFCURVE",
"25 496 OFFCURVE",
"25 387 CURVE SMOOTH",
"25 218 OFFCURVE",
"70 33 OFFCURVE",
"187 14 CURVE SMOOTH"
);
},
{
closed = 1;
nodes = (
"711 385 OFFCURVE",
"810 385 OFFCURVE",
"810 480 CURVE SMOOTH",
"810 577 OFFCURVE",
"711 577 OFFCURVE",
"531 577 CURVE SMOOTH",
"351 577 OFFCURVE",
"252 577 OFFCURVE",
"252 480 CURVE SMOOTH",
"252 385 OFFCURVE",
"351 385 OFFCURVE",
"531 385 CURVE SMOOTH"
);
}
);
width = 835;
}
);
leftKerningGroup = ke;
unicode = 3051;
},
{
glyphname = "ko-hira";
lastChange = "2019-12-02 11:38:43 +0000";
layers = (
{
guideLines = (
{
angle = 270;
position = "{6, 363}";
},
{
angle = 270;
position = "{588, 372}";
},
{
position = "{128, 263}";
},
{
position = "{155, 14}";
},
{
angle = 270;
position = "{297, 460}";
}
);
hints = (
{
horizontal = 1;
place = "{700, 180}";
type = Stem;
}
);
layerId = "09A42E70-DC24-4DD4-94A7-946B904CEA41";
paths = (
{
closed = 1;
nodes = (
"434 10 OFFCURVE",
"579 56 OFFCURVE",
"579 166 CURVE SMOOTH",
"579 207 OFFCURVE",
"550 246 OFFCURVE",
"502 246 CURVE SMOOTH",
"444 246 OFFCURVE",
"422 184 OFFCURVE",
"297 184 CURVE SMOOTH",
"176 184 OFFCURVE",
"162 252 OFFCURVE",
"96 252 CURVE SMOOTH",
"51 252 OFFCURVE",
"20 214 OFFCURVE",
"20 173 CURVE SMOOTH",
"20 53 OFFCURVE",
"170 10 OFFCURVE",
"297 10 CURVE SMOOTH"
);
},
{
closed = 1;
nodes = (
"544 440 OFFCURVE",
"575 479 OFFCURVE",
"575 521 CURVE SMOOTH",
"575 640 OFFCURVE",
"424 674 OFFCURVE",
"297 674 CURVE SMOOTH",
"178 674 OFFCURVE",
"24 647 OFFCURVE",
"23 528 CURVE SMOOTH",
"23 487 OFFCURVE",
"50 448 OFFCURVE",
"96 448 CURVE SMOOTH",
"161 448 OFFCURVE",
"177 471 OFFCURVE",
"297 471 CURVE SMOOTH",
"432 471 OFFCURVE",
"425 440 OFFCURVE",
"493 440 CURVE SMOOTH"
);
}
);
width = 604;
}
);
leftKerningGroup = ko;
unicode = 3053;
},
{
glyphname = "sa-hira";
lastChange = "2019-12-02 11:38:43 +0000";
layers = (
{
guideLines = (
{
position = "{516, 185}";
},
{
position = "{510, 780}";
}
);
hints = (
{
horizontal = 1;
place = "{700, 180}";
type = Stem;
}
);
layerId = "09A42E70-DC24-4DD4-94A7-946B904CEA41";
paths = (
{
closed = 1;
nodes = (
"603 381 OFFCURVE",
"701 383 OFFCURVE",
"701 477 CURVE SMOOTH",
"701 572 OFFCURVE",
"603 574 OFFCURVE",
"353 574 CURVE SMOOTH",
"113 574 OFFCURVE",
"15 572 OFFCURVE",
"15 477 CURVE SMOOTH",
"15 383 OFFCURVE",
"113 381 OFFCURVE",
"353 381 CURVE SMOOTH"
);
},
{
closed = 1;
nodes = (
"439 0 OFFCURVE",
"515 18 OFFCURVE",
"515 75 CURVE SMOOTH",
"515 119 OFFCURVE",
"480 154 OFFCURVE",
"409 149 CURVE SMOOTH",
"343 144 OFFCURVE",
"269 160 OFFCURVE",
"248 236 CURVE SMOOTH",
"235 283 OFFCURVE",
"202 301 OFFCURVE",
"169 301 CURVE SMOOTH",
"127 301 OFFCURVE",
"85 272 OFFCURVE",
"85 207 CURVE SMOOTH",
"85 77 OFFCURVE",
"236 0 OFFCURVE",
"352 0 CURVE SMOOTH"
);
},
{
closed = 1;
nodes = (
"484 186 OFFCURVE",
"508 217 OFFCURVE",
"508 273 CURVE SMOOTH",
"508 320 OFFCURVE",
"468 594 OFFCURVE",
"428 658 CURVE SMOOTH",
"407 692 OFFCURVE",
"380 703 OFFCURVE",
"353 703 CURVE SMOOTH",
"298 703 OFFCURVE",
"263 665 OFFCURVE",
"263 617 CURVE SMOOTH",
"263 556 OFFCURVE",
"318 310 OFFCURVE",
"330 274 CURVE SMOOTH",
"353 205 OFFCURVE",
"391 186 OFFCURVE",
"434 186 CURVE SMOOTH"
);
}
);
width = 716;
}
);
leftKerningGroup = sa;
unicode = 3055;
},
{
glyphname = "si-hira";
lastChange = "2019-12-02 11:38:43 +0000";
layers = (
{
guideLines = (
{
position = "{59, 780}";
}
);
hints = (
{
horizontal = 1;
place = "{700, 180}";
type = Stem;
}
);
layerId = "09A42E70-DC24-4DD4-94A7-946B904CEA41";
paths = (
{
closed = 1;
nodes = (
"481 0 OFFCURVE",
"613 114 OFFCURVE",
"620 223 CURVE SMOOTH",
"624 274 OFFCURVE",
"586 312 OFFCURVE",
"543 312 CURVE SMOOTH",
"451 312 OFFCURVE",
"450 162 OFFCURVE",
"340 162 CURVE SMOOTH",
"236 162 OFFCURVE",
"227 250 OFFCURVE",
"227 357 CURVE SMOOTH",
"227 462 OFFCURVE",
"260 558 OFFCURVE",
"240 623 CURVE SMOOTH",
"227 659 OFFCURVE",
"201 680 OFFCURVE",
"165 680 CURVE SMOOTH",
"118 680 OFFCURVE",
"83 668 OFFCURVE",
"59 623 CURVE SMOOTH",
"36 580 OFFCURVE",
"25 507 OFFCURVE",
"25 423 CURVE SMOOTH",
"25 199 OFFCURVE",
"75 0 OFFCURVE",
"325 0 CURVE SMOOTH"
);
}
);
width = 635;
}
);
leftKerningGroup = si;
unicode = 3057;
},
{
glyphname = "su-hira";
lastChange = "2019-12-02 11:38:43 +0000";
layers = (
{
components = (
{
name = maru;
transform = "{0.42865, 0, 0, 0.42865, 176, 156}";
}
);
hints = (
{
horizontal = 1;
place = "{700, 180}";
type = Stem;
}
);
layerId = "09A42E70-DC24-4DD4-94A7-946B904CEA41";
paths = (
{
closed = 1;
nodes = (
"401 1 OFFCURVE",
"555 98 OFFCURVE",
"555 360 CURVE SMOOTH",
"555 544 OFFCURVE",
"546 713 OFFCURVE",
"432 713 CURVE SMOOTH",
"370 713 OFFCURVE",
"342 673 OFFCURVE",
"342 613 CURVE SMOOTH",
"342 544 OFFCURVE",
"360 491 OFFCURVE",
"367 428 CURVE",
"292 448 OFFCURVE",
"144 428 OFFCURVE",
"144 275 CURVE SMOOTH",
"144 149 OFFCURVE",
"270 107 OFFCURVE",
"327 124 CURVE",
"298 105 OFFCURVE",
"243 94 OFFCURVE",
"239 58 CURVE SMOOTH",
"235 24 OFFCURVE",
"263 1 OFFCURVE",
"302 1 CURVE SMOOTH"
);
},
{
closed = 1;
nodes = (
"600 456 OFFCURVE",
"709 458 OFFCURVE",
"709 555 CURVE SMOOTH",
"709 652 OFFCURVE",
"600 654 OFFCURVE",
"357 654 CURVE SMOOTH",
"124 654 OFFCURVE",
"15 652 OFFCURVE",
"15 555 CURVE SMOOTH",
"15 458 OFFCURVE",
"124 456 OFFCURVE",
"357 456 CURVE SMOOTH"
);
}
);
width = 723;
}
);
leftKerningGroup = su;
unicode = 3059;
},
{
glyphname = "se-hira";
lastChange = "2019-12-02 11:38:43 +0000";
layers = (
{
hints = (
{
horizontal = 1;
place = "{700, 180}";
type = Stem;
}
);
layerId = "09A42E70-DC24-4DD4-94A7-946B904CEA41";
paths = (
{
closed = 1;
nodes = (
"647 5 OFFCURVE",
"699 39 OFFCURVE",
"699 99 CURVE SMOOTH",
"699 151 OFFCURVE",
"645 166 OFFCURVE",
"600 166 CURVE SMOOTH",
"562 166 OFFCURVE",
"521 161 OFFCURVE",
"469 161 CURVE SMOOTH",
"291 161 OFFCURVE",
"352 402 OFFCURVE",
"352 573 CURVE SMOOTH",
"352 634 OFFCURVE",
"332 697 OFFCURVE",
"260 697 CURVE SMOOTH",
"136 697 OFFCURVE",
"154 510 OFFCURVE",
"154 435 CURVE SMOOTH",
"154 334 OFFCURVE",
"157 192 OFFCURVE",
"218 110 CURVE SMOOTH",
"295 7 OFFCURVE",
"417 2 OFFCURVE",
"554 2 CURVE SMOOTH"
);
},
{
closed = 1;
nodes = (
"687 364 OFFCURVE",
"812 356 OFFCURVE",
"812 463 CURVE SMOOTH",
"812 570 OFFCURVE",
"687 562 OFFCURVE",
"414 562 CURVE SMOOTH",
"140 562 OFFCURVE",
"15 570 OFFCURVE",
"15 463 CURVE SMOOTH",
"15 356 OFFCURVE",
"140 364 OFFCURVE",
"414 364 CURVE SMOOTH"
);
},
{
closed = 1;
nodes = (
"592 217 OFFCURVE",
"627 245 OFFCURVE",
"639 306 CURVE SMOOTH",
"655 389 OFFCURVE",
"656 561 OFFCURVE",
"656 587 CURVE SMOOTH",
"656 651 OFFCURVE",
"626 696 OFFCURVE",
"567 696 CURVE SMOOTH",
"493 696 OFFCURVE",
"468 645 OFFCURVE",
"468 548 CURVE SMOOTH",
"468 511 OFFCURVE",
"465 434 OFFCURVE",
"465 366 CURVE SMOOTH",
"465 283 OFFCURVE",
"480 217 OFFCURVE",
"549 217 CURVE SMOOTH"
);
}
);
width = 827;
}
);
leftKerningGroup = se;
unicode = 305B;
},
{
glyphname = "so-hira";
lastChange = "2019-12-02 11:38:43 +0000";
layers = (
{
guideLines = (
{
position = "{64, 782}";
}
);
hints = (
{
horizontal = 1;
place = "{700, 180}";
type = Stem;
},
{
horizontal = 1;
place = "{-144, 144}";
type = Stem;
}
);
layerId = "09A42E70-DC24-4DD4-94A7-946B904CEA41";
paths = (
{
closed = 1;
nodes = (
"476 0 OFFCURVE",
"501 41 OFFCURVE",
"501 64 CURVE SMOOTH",
"501 87 OFFCURVE",
"486 129 OFFCURVE",
"425 129 CURVE SMOOTH",
"383 129 OFFCURVE",
"357 135 OFFCURVE",
"357 168 CURVE SMOOTH",
"357 202 OFFCURVE",
"399 225 OFFCURVE",
"477 225 CURVE SMOOTH",
"537 225 OFFCURVE",
"578 262 OFFCURVE",
"578 309 CURVE SMOOTH",
"578 407 OFFCURVE",
"471 389 OFFCURVE",
"368 391 CURVE",
"466 439 OFFCURVE",
"595 493 OFFCURVE",
"595 591 CURVE SMOOTH",
"595 708 OFFCURVE",
"437 700 OFFCURVE",
"312 701 CURVE SMOOTH",
"181 700 OFFCURVE",
"15 721 OFFCURVE",
"15 602 CURVE SMOOTH",
"15 490 OFFCURVE",
"189 505 OFFCURVE",
"286 505 CURVE",
"227 472 OFFCURVE",
"144 423 OFFCURVE",
"95 391 CURVE SMOOTH",
"56 366 OFFCURVE",
"46 342 OFFCURVE",
"46 314 CURVE SMOOTH",
"46 240 OFFCURVE",
"132 239 OFFCURVE",
"217 239 CURVE",
"182 208 OFFCURVE",
"175 175 OFFCURVE",
"175 140 CURVE SMOOTH",
"175 77 OFFCURVE",
"233 0 OFFCURVE",
"409 0 CURVE SMOOTH"
);
}
);
width = 620;
}
);
leftKerningGroup = so;
unicode = 305D;
},
{
glyphname = "ta-hira";
lastChange = "2019-12-02 11:50:42 +0000";
layers = (
{
guideLines = (
{
angle = 270;
position = "{342, 240}";
},
{
angle = 270;
position = "{689, 159}";
},
{
position = "{59, 782}";
},
{
position = "{427, 23}";
},
{
position = "{423, 273}";
}
);
hints = (
{
horizontal = 1;
place = "{700, 180}";
type = Stem;
}
);
layerId = "09A42E70-DC24-4DD4-94A7-946B904CEA41";
paths = (
{
closed = 1;
nodes = (
"200 113 OFFCURVE",
"243 186 OFFCURVE",
"270 239 CURVE SMOOTH",
"330 357 OFFCURVE",
"359 491 OFFCURVE",
"359 620 CURVE SMOOTH",
"359 684 OFFCURVE",
"316 714 OFFCURVE",
"266 714 CURVE SMOOTH",
"217 714 OFFCURVE",
"172 684 OFFCURVE",
"166 620 CURVE SMOOTH",
"154 485 OFFCURVE",
"136 389 OFFCURVE",
"93 301 CURVE SMOOTH",
"76 266 OFFCURVE",
"54 229 OFFCURVE",
"54 186 CURVE SMOOTH",
"54 150 OFFCURVE",
"84 113 OFFCURVE",
"133 113 CURVE SMOOTH"
);
},
{
closed = 1;
nodes = (
"612 0 OFFCURVE",
"704 33 OFFCURVE",
"704 109 CURVE SMOOTH",
"704 140 OFFCURVE",
"683 174 OFFCURVE",
"632 174 CURVE SMOOTH",
"594 174 OFFCURVE",
"583 148 OFFCURVE",
"510 148 CURVE SMOOTH",
"436 148 OFFCURVE",
"419 174 OFFCURVE",
"373 174 CURVE SMOOTH",
"324 174 OFFCURVE",
"302 139 OFFCURVE",
"302 109 CURVE SMOOTH",
"302 33 OFFCURVE",
"411 0 OFFCURVE",
"510 0 CURVE SMOOTH"
);
},
{
closed = 1;
nodes = (
"424 247 OFFCURVE",
"468 250 OFFCURVE",
"507 250 CURVE SMOOTH",
"529 250 OFFCURVE",
"577 250 OFFCURVE",
"601 249 CURVE SMOOTH",
"644 247 OFFCURVE",
"674 268 OFFCURVE",
"674 309 CURVE SMOOTH",
"674 383 OFFCURVE",
"596 403 OFFCURVE",
"507 403 CURVE SMOOTH",
"429 403 OFFCURVE",
"342 383 OFFCURVE",
"342 309 CURVE SMOOTH",
"342 269 OFFCURVE",
"369 247 OFFCURVE",
"410 247 CURVE SMOOTH"
);
},
{
closed = 1;
nodes = (
"576 453 OFFCURVE",
"688 454 OFFCURVE",
"688 547 CURVE SMOOTH",
"688 640 OFFCURVE",
"576 641 OFFCURVE",
"331 641 CURVE SMOOTH",
"127 641 OFFCURVE",
"15 640 OFFCURVE",
"15 547 CURVE SMOOTH",
"15 454 OFFCURVE",
"127 453 OFFCURVE",
"331 453 CURVE SMOOTH"
);
}
);
width = 719;
}
);
leftKerningGroup = ta;
unicode = 305F;
},
{
glyphname = "ti-hira";
lastChange = "2019-12-02 11:50:45 +0000";
layers = (
{
hints = (
{
horizontal = 1;
place = "{700, 180}";
type = Stem;
},
{
horizontal = 1;
origin = "{1, 11}";
target = "{1, 8}";
type = Stem;
}
);
layerId = "09A42E70-DC24-4DD4-94A7-946B904CEA41";
paths = (
{
closed = 1;
nodes = (
"500 2 OFFCURVE",
"649 70 OFFCURVE",
"649 214 CURVE SMOOTH",
"649 340 OFFCURVE",
"562 416 OFFCURVE",
"418 416 CURVE SMOOTH",
"385 416 OFFCURVE",
"353 413 OFFCURVE",
"325 409 CURVE",
"344 472 OFFCURVE",
"378 582 OFFCURVE",
"378 629 CURVE SMOOTH",
"378 684 OFFCURVE",
"333 709 OFFCURVE",
"298 709 CURVE SMOOTH",
"262 709 OFFCURVE",
"214 688 OFFCURVE",
"196 628 CURVE SMOOTH",
"169 536 OFFCURVE",
"123 334 OFFCURVE",
"120 265 CURVE SMOOTH",
"118 222 OFFCURVE",
"152 190 OFFCURVE",
"199 190 CURVE SMOOTH",
"286 190 OFFCURVE",
"294 265 OFFCURVE",
"390 265 CURVE SMOOTH",
"438 265 OFFCURVE",
"483 243 OFFCURVE",
"483 195 CURVE SMOOTH",
"483 143 OFFCURVE",
"430 132 OFFCURVE",
"344 127 CURVE SMOOTH",
"309 125 OFFCURVE",
"282 99 OFFCURVE",
"282 61 CURVE SMOOTH",
"282 20 OFFCURVE",
"320 2 OFFCURVE",
"376 2 CURVE SMOOTH"
);
},
{
closed = 1;
nodes = (
"553 465 OFFCURVE",
"671 455 OFFCURVE",
"671 554 CURVE SMOOTH",
"671 653 OFFCURVE",
"553 643 OFFCURVE",
"348 643 CURVE SMOOTH",
"133 643 OFFCURVE",
"15 653 OFFCURVE",
"15 556 CURVE SMOOTH",
"15 465 OFFCURVE",
"133 465 OFFCURVE",
"348 465 CURVE SMOOTH"
);
}
);
width = 696;
}
);
leftKerningGroup = ti;
unicode = 3061;
},
{
glyphname = "tu-hira";
lastChange = "2019-12-02 11:49:35 +0000";
layers = (
{
hints = (
{
horizontal = 1;
place = "{700, 180}";
type = Stem;
}
);
layerId = "09A42E70-DC24-4DD4-94A7-946B904CEA41";
paths = (
{
closed = 1;
nodes = (
"542 27 OFFCURVE",
"707 128 OFFCURVE",
"707 329 CURVE SMOOTH",
"707 578 OFFCURVE",
"489 636 OFFCURVE",
"332 636 CURVE SMOOTH",
"201 636 OFFCURVE",
"25 612 OFFCURVE",
"25 493 CURVE SMOOTH",
"25 417 OFFCURVE",
"85 389 OFFCURVE",
"158 401 CURVE SMOOTH",
"200 408 OFFCURVE",
"256 416 OFFCURVE",
"343 416 CURVE SMOOTH",
"428 416 OFFCURVE",
"495 386 OFFCURVE",
"495 303 CURVE SMOOTH",
"495 232 OFFCURVE",
"416 195 OFFCURVE",
"335 191 CURVE SMOOTH",
"269 188 OFFCURVE",
"223 161 OFFCURVE",
"223 104 CURVE SMOOTH",
"223 35 OFFCURVE",
"306 17 OFFCURVE",
"380 20 CURVE SMOOTH"
);
}
);
width = 732;
}
);
leftKerningGroup = tu;
unicode = 3064;
},
{
glyphname = "te-hira";
lastChange = "2019-12-02 11:53:24 +0000";
layers = (
{
hints = (
{
horizontal = 1;
place = "{700, 180}";
type = Stem;
}
);
layerId = "09A42E70-DC24-4DD4-94A7-946B904CEA41";
paths = (
{
closed = 1;
nodes = (
"578 5 OFFCURVE",
"623 34 OFFCURVE",
"623 77 CURVE SMOOTH",
"623 118 OFFCURVE",
"593 149 OFFCURVE",
"529 149 CURVE SMOOTH",
"461 149 OFFCURVE",
"420 197 OFFCURVE",
"420 241 CURVE SMOOTH",
"420 307 OFFCURVE",
"498 397 OFFCURVE",
"629 414 CURVE SMOOTH",
"698 423 OFFCURVE",
"740 480 OFFCURVE",
"740 535 CURVE SMOOTH",
"740 652 OFFCURVE",
"573 661 OFFCURVE",
"393 661 CURVE SMOOTH",
"177 661 OFFCURVE",
"25 656 OFFCURVE",
"25 547 CURVE SMOOTH",
"25 440 OFFCURVE",
"168 439 OFFCURVE",
"332 439 CURVE",
"247 382 OFFCURVE",
"231 305 OFFCURVE",
"231 227 CURVE SMOOTH",
"231 87 OFFCURVE",
"370 5 OFFCURVE",
"493 5 CURVE SMOOTH"
);
}
);
width = 765;
}
);
leftKerningGroup = te;
unicode = 3066;
},
{
glyphname = "to-hira";
lastChange = "2019-12-02 11:38:43 +0000";
layers = (
{
hints = (
{
horizontal = 1;
place = "{700, 180}";
type = Stem;
}
);
layerId = "09A42E70-DC24-4DD4-94A7-946B904CEA41";
paths = (
{
closed = 1;
nodes = (
"488 5 OFFCURVE",
"564 35 OFFCURVE",
"564 95 CURVE SMOOTH",
"564 184 OFFCURVE",
"463 184 OFFCURVE",
"388 174 CURVE SMOOTH",
"323 165 OFFCURVE",
"247 184 OFFCURVE",
"247 247 CURVE SMOOTH",
"247 322 OFFCURVE",
"352 384 OFFCURVE",
"512 414 CURVE SMOOTH",
"577 426 OFFCURVE",
"600 475 OFFCURVE",
"600 500 CURVE SMOOTH",
"600 550 OFFCURVE",
"556 605 OFFCURVE",
"461 600 CURVE SMOOTH",
"224 586 OFFCURVE",
"52 393 OFFCURVE",
"52 229 CURVE SMOOTH",
"52 15 OFFCURVE",
"269 5 OFFCURVE",
"362 5 CURVE SMOOTH"
);
},
{
closed = 1;
nodes = (
"249 336 OFFCURVE",
"311 382 OFFCURVE",
"311 428 CURVE SMOOTH",
"311 453 OFFCURVE",
"238 592 OFFCURVE",
"210 645 CURVE SMOOTH",
"192 679 OFFCURVE",
"162 705 OFFCURVE",
"120 705 CURVE SMOOTH",
"72 705 OFFCURVE",
"25 677 OFFCURVE",
"25 613 CURVE SMOOTH",
"25 554 OFFCURVE",
"90 423 OFFCURVE",
"154 354 CURVE SMOOTH",
"166 341 OFFCURVE",
"181 336 OFFCURVE",
"199 336 CURVE SMOOTH"
);
}
);
width = 625;
}
);
leftKerningGroup = to;
unicode = 3068;
},
{
glyphname = "na-hira";
lastChange = "2019-12-02 11:38:43 +0000";
layers = (
{
hints = (
{
horizontal = 1;
place = "{700, 180}";
type = Stem;
},
{
horizontal = 1;
place = "{-144, 144}";
type = Stem;
}
);
layerId = "09A42E70-DC24-4DD4-94A7-946B904CEA41";
paths = (
{
closed = 1;
nodes = (
"578 -10 OFFCURVE",
"610 130 OFFCURVE",
"610 251 CURVE SMOOTH",
"610 342 OFFCURVE",
"568 425 OFFCURVE",
"502 425 CURVE SMOOTH",
"458 425 OFFCURVE",
"425 401 OFFCURVE",
"425 356 CURVE SMOOTH",
"425 306 OFFCURVE",
"461 235 OFFCURVE",
"461 176 CURVE SMOOTH",
"461 142 OFFCURVE",
"458 112 OFFCURVE",
"429 112 CURVE SMOOTH",
"407 112 OFFCURVE",
"387 125 OFFCURVE",
"387 145 CURVE SMOOTH",
"387 171 OFFCURVE",
"414 186 OFFCURVE",
"438 186 CURVE SMOOTH",
"524 186 OFFCURVE",
"569 91 OFFCURVE",
"642 91 CURVE SMOOTH",
"690 91 OFFCURVE",
"712 122 OFFCURVE",
"712 155 CURVE SMOOTH",
"712 177 OFFCURVE",
"705 201 OFFCURVE",
"680 228 CURVE SMOOTH",
"637 275 OFFCURVE",
"535 316 OFFCURVE",
"450 316 CURVE SMOOTH",
"325 316 OFFCURVE",
"267 230 OFFCURVE",
"267 149 CURVE SMOOTH",
"267 80 OFFCURVE",
"315 5 OFFCURVE",
"401 0 CURVE SMOOTH"
);
},
{
closed = 1;
nodes = (
"176 155 OFFCURVE",
"208 175 OFFCURVE",
"241 230 CURVE SMOOTH",
"287 306 OFFCURVE",
"363 501 OFFCURVE",
"363 625 CURVE SMOOTH",
"363 682 OFFCURVE",
"329 713 OFFCURVE",
"279 713 CURVE SMOOTH",
"241 713 OFFCURVE",
"199 686 OFFCURVE",
"188 621 CURVE SMOOTH",
"145 364 OFFCURVE",
"63 302 OFFCURVE",
"63 231 CURVE SMOOTH",
"63 190 OFFCURVE",
"83 159 OFFCURVE",
"130 157 CURVE SMOOTH"
);
},
{
closed = 1;
nodes = (
"412 441 OFFCURVE",
"518 442 OFFCURVE",
"518 533 CURVE SMOOTH",
"518 624 OFFCURVE",
"412 625 OFFCURVE",
"272 625 CURVE SMOOTH",
"120 625 OFFCURVE",
"15 624 OFFCURVE",
"15 533 CURVE SMOOTH",
"15 442 OFFCURVE",
"120 441 OFFCURVE",
"272 441 CURVE SMOOTH"
);
},
{
closed = 1;
nodes = (
"763 344 OFFCURVE",
"795 380 OFFCURVE",
"795 411 CURVE SMOOTH",
"795 477 OFFCURVE",
"696 572 OFFCURVE",
"613 572 CURVE SMOOTH",
"583 572 OFFCURVE",
"549 545 OFFCURVE",
"549 508 CURVE SMOOTH",
"549 443 OFFCURVE",
"655 344 OFFCURVE",
"732 344 CURVE SMOOTH"
);
}
);
width = 810;
}
);
unicode = 306A;
},
{
glyphname = "ni-hira";
lastChange = "2019-12-02 11:38:43 +0000";
layers = (
{
guideLines = (
{
position = "{433, 682}";
},
{
position = "{474, 265}";
}
);
hints = (
{
horizontal = 1;
place = "{700, 180}";
type = Stem;
}
);
layerId = "09A42E70-DC24-4DD4-94A7-946B904CEA41";
paths = (
{
closed = 1;
nodes = (
"225 0 OFFCURVE",
"253 30 OFFCURVE",
"253 81 CURVE SMOOTH",
"253 146 OFFCURVE",
"205 165 OFFCURVE",
"205 326 CURVE SMOOTH",
"205 437 OFFCURVE",
"257 500 OFFCURVE",
"257 578 CURVE SMOOTH",
"257 631 OFFCURVE",
"239 677 OFFCURVE",
"165 677 CURVE SMOOTH",
"47 677 OFFCURVE",
"25 500 OFFCURVE",
"25 365 CURVE SMOOTH",
"25 198 OFFCURVE",
"78 0 OFFCURVE",
"179 0 CURVE SMOOTH"
);
},
{
closed = 1;
nodes = (
"598 29 OFFCURVE",
"732 75 OFFCURVE",
"732 160 CURVE SMOOTH",
"732 203 OFFCURVE",
"707 233 OFFCURVE",
"659 233 CURVE SMOOTH",
"624 233 OFFCURVE",
"572 194 OFFCURVE",
"510 194 CURVE SMOOTH",
"433 194 OFFCURVE",
"387 239 OFFCURVE",
"350 239 CURVE SMOOTH",
"309 239 OFFCURVE",
"287 207 OFFCURVE",
"287 174 CURVE SMOOTH",
"287 77 OFFCURVE",
"390 29 OFFCURVE",
"510 29 CURVE SMOOTH"
);
},
{
closed = 1;
nodes = (
"671 391 OFFCURVE",
"733 422 OFFCURVE",
"733 491 CURVE SMOOTH",
"733 570 OFFCURVE",
"626 619 OFFCURVE",
"508 619 CURVE SMOOTH",
"395 619 OFFCURVE",
"285 580 OFFCURVE",
"285 491 CURVE SMOOTH",
"285 414 OFFCURVE",
"346 400 OFFCURVE",
"408 418 CURVE SMOOTH",
"471 436 OFFCURVE",
"550 432 OFFCURVE",
"617 409 CURVE SMOOTH"
);
}
);
width = 758;
}
);
unicode = 306B;
},
{
glyphname = "nu-hira";
lastChange = "2019-12-02 11:38:43 +0000";
layers = (
{
hints = (
{
horizontal = 1;
place = "{700, 180}";
type = Stem;
}
);
layerId = "09A42E70-DC24-4DD4-94A7-946B904CEA41";
paths = (
{
closed = 1;
nodes = (
"394 33 OFFCURVE",
"564 409 OFFCURVE",
"564 597 CURVE SMOOTH",
"564 645 OFFCURVE",
"529 682 OFFCURVE",
"482 682 CURVE SMOOTH",
"437 682 OFFCURVE",
"402 644 OFFCURVE",
"394 580 CURVE SMOOTH",
"355 261 OFFCURVE",
"258 160 OFFCURVE",
"221 160 CURVE SMOOTH",
"190 160 OFFCURVE",
"161 189 OFFCURVE",
"161 237 CURVE SMOOTH",
"161 288 OFFCURVE",
"206 429 OFFCURVE",
"382 429 CURVE SMOOTH",
"550 429 OFFCURVE",
"609 286 OFFCURVE",
"609 208 CURVE SMOOTH",
"609 159 OFFCURVE",
"591 137 OFFCURVE",
"574 137 CURVE SMOOTH",
"538 137 OFFCURVE",
"536 199 OFFCURVE",
"590 199 CURVE SMOOTH",
"641 199 OFFCURVE",
"675 156 OFFCURVE",
"721 156 CURVE SMOOTH",
"758 156 OFFCURVE",
"787 183 OFFCURVE",
"787 219 CURVE SMOOTH",
"787 287 OFFCURVE",
"708 316 OFFCURVE",
"625 316 CURVE SMOOTH",
"516 316 OFFCURVE",
"443 251 OFFCURVE",
"443 159 CURVE SMOOTH",
"443 81 OFFCURVE",
"493 26 OFFCURVE",
"568 26 CURVE SMOOTH",
"661 26 OFFCURVE",
"750 97 OFFCURVE",
"750 221 CURVE SMOOTH",
"750 409 OFFCURVE",
"629 601 OFFCURVE",
"383 601 CURVE SMOOTH",
"200 601 OFFCURVE",
"25 463 OFFCURVE",
"25 244 CURVE SMOOTH",
"25 102 OFFCURVE",
"101 33 OFFCURVE",
"199 33 CURVE SMOOTH"
);
},
{
closed = 1;
nodes = (
"383 47 OFFCURVE",
"401 73 OFFCURVE",
"401 111 CURVE SMOOTH",
"401 143 OFFCURVE",
"340 354 OFFCURVE",
"285 546 CURVE SMOOTH",
"263 624 OFFCURVE",
"234 658 OFFCURVE",
"191 658 CURVE SMOOTH",
"136 658 OFFCURVE",
"107 618 OFFCURVE",
"106 574 CURVE SMOOTH",
"105 528 OFFCURVE",
"136 431 OFFCURVE",
"175 334 CURVE SMOOTH",
"219 220 OFFCURVE",
"291 47 OFFCURVE",
"347 47 CURVE SMOOTH"
);
}
);
width = 812;
}
);
unicode = 306C;
},
{
glyphname = "ne-hira";
lastChange = "2019-12-02 11:38:43 +0000";
layers = (
{
guideLines = (
{
position = "{286, 0}";
},
{
position = "{397, 699}";
}
);
hints = (
{
horizontal = 1;
place = "{700, 180}";
type = Stem;
}
);
layerId = "09A42E70-DC24-4DD4-94A7-946B904CEA41";
paths = (
{
closed = 1;
nodes = (
"617 0 OFFCURVE",
"723 55 OFFCURVE",
"723 196 CURVE SMOOTH",
"723 355 OFFCURVE",
"629 424 OFFCURVE",
"513 424 CURVE",
"556 456 OFFCURVE",
"594 488 OFFCURVE",
"594 553 CURVE SMOOTH",
"594 660 OFFCURVE",
"431 655 OFFCURVE",
"299 655 CURVE SMOOTH",
"154 655 OFFCURVE",
"5 667 OFFCURVE",
"5 564 CURVE SMOOTH",
"5 452 OFFCURVE",
"146 470 OFFCURVE",
"388 470 CURVE",
"264 377 OFFCURVE",
"149 305 OFFCURVE",
"78 255 CURVE SMOOTH",
"45 232 OFFCURVE",
"29 201 OFFCURVE",
"29 178 CURVE SMOOTH",
"29 128 OFFCURVE",
"62 102 OFFCURVE",
"108 102 CURVE SMOOTH",
"194 102 OFFCURVE",
"289 281 OFFCURVE",
"434 281 CURVE SMOOTH",
"537 281 OFFCURVE",
"572 209 OFFCURVE",
"572 163 CURVE SMOOTH",
"572 129 OFFCURVE",
"554 114 OFFCURVE",
"534 114 CURVE SMOOTH",
"516 114 OFFCURVE",
"497 129 OFFCURVE",
"497 153 CURVE SMOOTH",
"497 177 OFFCURVE",
"521 196 OFFCURVE",
"563 196 CURVE SMOOTH",
"595 196 OFFCURVE",
"667 177 OFFCURVE",
"685 177 CURVE SMOOTH",
"743 177 OFFCURVE",
"770 205 OFFCURVE",
"770 246 CURVE SMOOTH",
"770 310 OFFCURVE",
"708 341 OFFCURVE",
"646 341 CURVE SMOOTH",
"478 341 OFFCURVE",
"370 276 OFFCURVE",
"370 153 CURVE SMOOTH",
"370 50 OFFCURVE",
"447 0 OFFCURVE",
"527 0 CURVE SMOOTH"
);
},
{
closed = 1;
nodes = (
"309 4 OFFCURVE",
"325 88 OFFCURVE",
"325 353 CURVE SMOOTH",
"325 596 OFFCURVE",
"327 702 OFFCURVE",
"233 702 CURVE SMOOTH",
"139 702 OFFCURVE",
"137 596 OFFCURVE",
"137 353 CURVE SMOOTH",
"137 88 OFFCURVE",
"157 4 OFFCURVE",
"233 4 CURVE SMOOTH"
);
}
);
width = 775;
}
);
unicode = 306D;
},
{
glyphname = "no-hira";
lastChange = "2019-12-02 11:38:43 +0000";
layers = (
{
guideLines = (
{
position = "{-142, 774}";
}
);
hints = (
{
horizontal = 1;
place = "{700, 180}";
type = Stem;
}
);
layerId = "09A42E70-DC24-4DD4-94A7-946B904CEA41";
paths = (
{
closed = 1;
nodes = (
"451 19 OFFCURVE",
"502 299 OFFCURVE",
"492 477 CURVE SMOOTH",
"490 523 OFFCURVE",
"446 550 OFFCURVE",
"407 550 CURVE SMOOTH",
"371 550 OFFCURVE",
"338 529 OFFCURVE",
"338 481 CURVE SMOOTH",
"338 266 OFFCURVE",
"303 167 OFFCURVE",
"253 167 CURVE SMOOTH",
"208 167 OFFCURVE",
"182 209 OFFCURVE",
"182 264 CURVE SMOOTH",
"182 344 OFFCURVE",
"237 438 OFFCURVE",
"376 438 CURVE SMOOTH",
"477 438 OFFCURVE",
"575 401 OFFCURVE",
"575 269 CURVE SMOOTH",
"575 136 OFFCURVE",
"499 143 OFFCURVE",
"499 82 CURVE SMOOTH",
"499 41 OFFCURVE",
"525 24 OFFCURVE",
"551 24 CURVE SMOOTH",
"657 24 OFFCURVE",
"745 151 OFFCURVE",
"745 282 CURVE SMOOTH",
"745 488 OFFCURVE",
"599 648 OFFCURVE",
"380 648 CURVE SMOOTH",
"127 648 OFFCURVE",
"25 438 OFFCURVE",
"25 283 CURVE SMOOTH",
"25 105 OFFCURVE",
"129 19 OFFCURVE",
"256 19 CURVE SMOOTH"
);
}
);
width = 770;
}
);
unicode = 306E;
},
{
glyphname = "ha-hira";
lastChange = "2019-12-02 11:38:43 +0000";
layers = (
{
guideLines = (
{
position = "{367, 779}";
}
);
hints = (
{
horizontal = 1;
place = "{700, 180}";
type = Stem;
},
{
origin = "{0, 11}";
target = "{0, 8}";
type = Stem;
}
);
layerId = "09A42E70-DC24-4DD4-94A7-946B904CEA41";
paths = (
{
closed = 1;
nodes = (
"649 14 OFFCURVE",
"684 183 OFFCURVE",
"690 313 CURVE SMOOTH",
"693 370 OFFCURVE",
"697 508 OFFCURVE",
"697 570 CURVE SMOOTH",
"697 623 OFFCURVE",
"692 692 OFFCURVE",
"609 692 CURVE SMOOTH",
"527 692 OFFCURVE",
"522 623 OFFCURVE",
"522 570 CURVE SMOOTH",
"522 515 OFFCURVE",
"537 385 OFFCURVE",
"537 275 CURVE SMOOTH",
"537 219 OFFCURVE",
"543 138 OFFCURVE",
"481 145 CURVE SMOOTH",
"453 145 OFFCURVE",
"433 164 OFFCURVE",
"433 191 CURVE SMOOTH",
"433 217 OFFCURVE",
"456 233 OFFCURVE",
"483 233 CURVE SMOOTH",
"588 233 OFFCURVE",
"619 60 OFFCURVE",
"723 60 CURVE SMOOTH",
"763 60 OFFCURVE",
"787 90 OFFCURVE",
"787 126 CURVE SMOOTH",
"787 230 OFFCURVE",
"654 369 OFFCURVE",
"493 369 CURVE SMOOTH",
"375 369 OFFCURVE",
"284 300 OFFCURVE",
"284 183 CURVE SMOOTH",
"284 92 OFFCURVE",
"359 14 OFFCURVE",
"459 14 CURVE SMOOTH"
);
},
{
closed = 1;
nodes = (
"206 10 OFFCURVE",
"236 39 OFFCURVE",
"236 79 CURVE SMOOTH",
"236 142 OFFCURVE",
"199 170 OFFCURVE",
"199 327 CURVE SMOOTH",
"199 434 OFFCURVE",
"249 496 OFFCURVE",
"249 571 CURVE SMOOTH",
"249 623 OFFCURVE",
"222 668 OFFCURVE",
"160 668 CURVE SMOOTH",
"45 668 OFFCURVE",
"25 496 OFFCURVE",
"25 365 CURVE SMOOTH",
"25 202 OFFCURVE",
"75 10 OFFCURVE",
"173 10 CURVE SMOOTH"
);
},
{
closed = 1;
nodes = (
"720 431 OFFCURVE",
"816 431 OFFCURVE",
"816 519 CURVE SMOOTH",
"816 605 OFFCURVE",
"720 605 OFFCURVE",
"545 605 CURVE SMOOTH",
"371 605 OFFCURVE",
"274 605 OFFCURVE",
"274 519 CURVE SMOOTH",
"274 431 OFFCURVE",
"371 431 OFFCURVE",
"545 431 CURVE SMOOTH"
);
}
);
width = 831;
}
);
leftKerningGroup = ha;
rightKerningGroup = ha;
unicode = 306F;
},
{
glyphname = "hi-hira";
lastChange = "2019-12-02 11:38:43 +0000";
layers = (
{
guideLines = (
{
position = "{232, 781}";
}
);
hints = (
{
horizontal = 1;
place = "{700, 180}";
type = Stem;
}
);
layerId = "09A42E70-DC24-4DD4-94A7-946B904CEA41";
paths = (
{
closed = 1;
nodes = (
"531 8 OFFCURVE",
"619 114 OFFCURVE",
"628 266 CURVE",
"665 235 OFFCURVE",
"702 224 OFFCURVE",
"735 224 CURVE SMOOTH",
"776 224 OFFCURVE",
"809 253 OFFCURVE",
"809 302 CURVE SMOOTH",
"809 385 OFFCURVE",
"663 465 OFFCURVE",
"592 465 CURVE SMOOTH",
"518 465 OFFCURVE",
"484 422 OFFCURVE",
"484 357 CURVE SMOOTH",
"484 298 OFFCURVE",
"494 169 OFFCURVE",
"373 169 CURVE SMOOTH",
"319 169 OFFCURVE",
"276 209 OFFCURVE",
"276 274 CURVE SMOOTH",
"276 375 OFFCURVE",
"348 439 OFFCURVE",
"427 464 CURVE SMOOTH",
"499 487 OFFCURVE",
"524 517 OFFCURVE",
"524 575 CURVE SMOOTH",
"524 665 OFFCURVE",
"427 700 OFFCURVE",
"243 700 CURVE SMOOTH",
"141 700 OFFCURVE",
"25 694 OFFCURVE",
"25 597 CURVE SMOOTH",
"25 522 OFFCURVE",
"103 516 OFFCURVE",
"153 516 CURVE SMOOTH",
"191 516 OFFCURVE",
"228 514 OFFCURVE",
"239 516 CURVE",
"138 449 OFFCURVE",
"103 337 OFFCURVE",
"103 262 CURVE SMOOTH",
"103 98 OFFCURVE",
"231 8 OFFCURVE",
"371 8 CURVE SMOOTH"
);
}
);
width = 824;
}
);
leftKerningGroup = hi;
unicode = 3072;
},
{
glyphname = "hu-hira";
lastChange = "2019-12-02 11:38:43 +0000";
layers = (
{
guideLines = (
{
position = "{244, 774}";
},
{
angle = 180;
position = "{199, 1}";
},
{
position = "{225, 322}";
},
{
angle = 180;
position = "{199, 21}";
}
);
hints = (
{
horizontal = 1;
place = "{700, 180}";
type = Stem;
}
);
layerId = "09A42E70-DC24-4DD4-94A7-946B904CEA41";
paths = (
{
closed = 1;
nodes = (
"409 1 OFFCURVE",
"497 82 OFFCURVE",
"497 220 CURVE SMOOTH",
"497 278 OFFCURVE",
"471 325 OFFCURVE",
"429 352 CURVE",
"536 407 OFFCURVE",
"589 487 OFFCURVE",
"589 559 CURVE SMOOTH",
"589 692 OFFCURVE",
"441 697 OFFCURVE",
"304 697 CURVE SMOOTH",
"190 697 OFFCURVE",
"36 694 OFFCURVE",
"36 603 CURVE SMOOTH",
"36 486 OFFCURVE",
"186 504 OFFCURVE",
"377 504 CURVE",
"347 464 OFFCURVE",
"288 431 OFFCURVE",
"251 407 CURVE SMOOTH",
"229 393 OFFCURVE",
"219 375 OFFCURVE",
"219 358 CURVE SMOOTH",
"219 344 OFFCURVE",
"222 321 OFFCURVE",
"254 302 CURVE SMOOTH",
"304 272 OFFCURVE",
"319 253 OFFCURVE",
"319 206 CURVE SMOOTH",
"319 176 OFFCURVE",
"306 134 OFFCURVE",
"265 122 CURVE SMOOTH",
"225 110 OFFCURVE",
"215 90 OFFCURVE",
"215 60 CURVE SMOOTH",
"215 34 OFFCURVE",
"236 1 OFFCURVE",
"290 1 CURVE SMOOTH"
);
},
{
closed = 1;
nodes = (
"166 18 OFFCURVE",
"160 67 OFFCURVE",
"197 135 CURVE SMOOTH",
"212 162 OFFCURVE",
"219 191 OFFCURVE",
"219 216 CURVE SMOOTH",
"219 258 OFFCURVE",
"198 290 OFFCURVE",
"147 290 CURVE SMOOTH",
"68 290 OFFCURVE",
"25 186 OFFCURVE",
"25 116 CURVE SMOOTH",
"25 60 OFFCURVE",
"48 18 OFFCURVE",
"99 18 CURVE SMOOTH"
);
},
{
closed = 1;
nodes = (
"690 25 OFFCURVE",
"716 58 OFFCURVE",
"716 121 CURVE SMOOTH",
"716 196 OFFCURVE",
"666 289 OFFCURVE",
"586 289 CURVE SMOOTH",
"552 289 OFFCURVE",
"524 270 OFFCURVE",
"524 232 CURVE SMOOTH",
"524 190 OFFCURVE",
"554 150 OFFCURVE",
"564 77 CURVE SMOOTH",
"569 39 OFFCURVE",
"602 15 OFFCURVE",
"638 19 CURVE SMOOTH"
);
}
);
width = 741;
}
);
leftKerningGroup = hu;
unicode = 3075;
},
{
glyphname = "he-hira";
lastChange = "2019-12-02 11:38:43 +0000";
layers = (
{
hints = (
{
horizontal = 1;
place = "{700, 180}";
type = Stem;
}
);
layerId = "09A42E70-DC24-4DD4-94A7-946B904CEA41";
paths = (
{
closed = 1;
nodes = (
"757 53 OFFCURVE",
"800 80 OFFCURVE",
"800 134 CURVE SMOOTH",
"800 194 OFFCURVE",
"750 269 OFFCURVE",
"632 398 CURVE SMOOTH",
"515 526 OFFCURVE",
"440 601 OFFCURVE",
"329 601 CURVE SMOOTH",
"216 601 OFFCURVE",
"112 477 OFFCURVE",
"65 391 CURVE SMOOTH",
"34 334 OFFCURVE",
"15 305 OFFCURVE",
"15 250 CURVE SMOOTH",
"15 185 OFFCURVE",
"54 161 OFFCURVE",
"90 161 CURVE SMOOTH",
"162 161 OFFCURVE",
"218 273 OFFCURVE",
"267 334 CURVE SMOOTH",
"295 369 OFFCURVE",
"338 380 OFFCURVE",
"368 351 CURVE SMOOTH",
"434 287 OFFCURVE",
"637 58 OFFCURVE",
"711 55 CURVE SMOOTH"
);
}
);
width = 815;
}
);
leftKerningGroup = he;
unicode = 3078;
},
{
glyphname = "ho-hira";
lastChange = "2019-12-02 11:38:43 +0000";
layers = (
{
guideLines = (
{
position = "{367, 779}";
}
);
hints = (
{
horizontal = 1;
place = "{700, 180}";
type = Stem;
},
{
horizontal = 1;
origin = "{2, 11}";
target = "{2, 8}";
type = Stem;
},
{
origin = "{2, 8}";
target = "{2, 5}";
type = Stem;
}
);
layerId = "09A42E70-DC24-4DD4-94A7-946B904CEA41";
paths = (
{
closed = 1;
nodes = (
"593 10 OFFCURVE",
"667 76 OFFCURVE",
"667 202 CURVE SMOOTH",
"667 416 OFFCURVE",
"668 482 OFFCURVE",
"668 535 CURVE SMOOTH",
"668 605 OFFCURVE",
"513 611 OFFCURVE",
"513 535 CURVE SMOOTH",
"513 406 OFFCURVE",
"519 188 OFFCURVE",
"519 170 CURVE SMOOTH",
"519 147 OFFCURVE",
"515 116 OFFCURVE",
"487 116 CURVE SMOOTH",
"434 116 OFFCURVE",
"428 184 OFFCURVE",
"496 184 CURVE SMOOTH",
"619 184 OFFCURVE",
"638 66 OFFCURVE",
"717 66 CURVE SMOOTH",
"750 66 OFFCURVE",
"778 94 OFFCURVE",
"778 138 CURVE SMOOTH",
"778 184 OFFCURVE",
"709 307 OFFCURVE",
"490 307 CURVE SMOOTH",
"255 307 OFFCURVE",
"249 10 OFFCURVE",
"485 10 CURVE SMOOTH"
);
},
{
closed = 1;
nodes = (
"206 10 OFFCURVE",
"236 39 OFFCURVE",
"236 79 CURVE SMOOTH",
"236 142 OFFCURVE",
"199 162 OFFCURVE",
"199 318 CURVE SMOOTH",
"199 434 OFFCURVE",
"249 496 OFFCURVE",
"249 571 CURVE SMOOTH",
"249 623 OFFCURVE",
"222 667 OFFCURVE",
"160 667 CURVE SMOOTH",
"45 667 OFFCURVE",
"25 496 OFFCURVE",
"25 356 CURVE SMOOTH",
"25 194 OFFCURVE",
"75 10 OFFCURVE",
"173 10 CURVE SMOOTH"
);
},
{
closed = 1;
nodes = (
"707 334 OFFCURVE",
"796 334 OFFCURVE",
"796 409 CURVE SMOOTH",
"796 484 OFFCURVE",
"707 484 OFFCURVE",
"545 484 CURVE SMOOTH",
"383 484 OFFCURVE",
"295 484 OFFCURVE",
"295 409 CURVE SMOOTH",
"295 334 OFFCURVE",
"383 334 OFFCURVE",
"545 334 CURVE SMOOTH"
);
},
{
closed = 1;
nodes = (
"720 518 OFFCURVE",
"816 518 OFFCURVE",
"816 600 CURVE SMOOTH",
"816 683 OFFCURVE",
"720 683 OFFCURVE",
"545 683 CURVE SMOOTH",
"371 683 OFFCURVE",
"274 683 OFFCURVE",
"274 600 CURVE SMOOTH",
"274 518 OFFCURVE",
"371 518 OFFCURVE",
"545 518 CURVE SMOOTH"
);
}
);
width = 821;
}
);
leftKerningGroup = ho;
unicode = 307B;
},
{
glyphname = "ma-hira";
lastChange = "2019-12-02 11:53:34 +0000";
layers = (
{
hints = (
{
horizontal = 1;
place = "{700, 180}";
type = Stem;
}
);
layerId = "09A42E70-DC24-4DD4-94A7-946B904CEA41";
paths = (
{
closed = 1;
nodes = (
"445 0 OFFCURVE",
"486 96 OFFCURVE",
"486 244 CURVE SMOOTH",
"486 326 OFFCURVE",
"481 558 OFFCURVE",
"474 628 CURVE SMOOTH",
"465 712 OFFCURVE",
"426 735 OFFCURVE",
"371 735 CURVE SMOOTH",
"327 735 OFFCURVE",
"279 711 OFFCURVE",
"279 631 CURVE SMOOTH",
"279 551 OFFCURVE",
"320 220 OFFCURVE",
"320 150 CURVE SMOOTH",
"320 128 OFFCURVE",
"310 107 OFFCURVE",
"278 107 CURVE SMOOTH",
"254 107 OFFCURVE",
"238 122 OFFCURVE",
"238 142 CURVE SMOOTH",
"238 161 OFFCURVE",
"255 176 OFFCURVE",
"290 176 CURVE SMOOTH",
"392 176 OFFCURVE",
"490 44 OFFCURVE",
"568 44 CURVE SMOOTH",
"615 44 OFFCURVE",
"640 76 OFFCURVE",
"640 115 CURVE SMOOTH",
"640 224 OFFCURVE",
"462 306 OFFCURVE",
"302 306 CURVE SMOOTH",
"197 306 OFFCURVE",
"88 259 OFFCURVE",
"88 143 CURVE SMOOTH",
"88 53 OFFCURVE",
"163 0 OFFCURVE",
"271 0 CURVE SMOOTH"
);
},
{
closed = 1;
nodes = (
"615 322 OFFCURVE",
"691 322 OFFCURVE",
"691 398 CURVE SMOOTH",
"691 474 OFFCURVE",
"615 474 OFFCURVE",
"365 474 CURVE SMOOTH",
"115 474 OFFCURVE",
"39 474 OFFCURVE",
"39 398 CURVE SMOOTH",
"39 322 OFFCURVE",
"115 322 OFFCURVE",
"365 322 CURVE SMOOTH"
);
},
{
closed = 1;
nodes = (
"605 501 OFFCURVE",
"705 501 OFFCURVE",
"705 584 CURVE SMOOTH",
"705 668 OFFCURVE",
"605 668 OFFCURVE",
"365 668 CURVE SMOOTH",
"125 668 OFFCURVE",
"25 668 OFFCURVE",
"25 584 CURVE SMOOTH",
"25 501 OFFCURVE",
"125 501 OFFCURVE",
"365 501 CURVE SMOOTH"
);
}
);
width = 730;
}
);
unicode = 307E;
},
{
glyphname = "mi-hira";
lastChange = "2019-12-02 11:38:43 +0000";
layers = (
{
hints = (
{
horizontal = 1;
place = "{700, 180}";
type = Stem;
}
);
layerId = "09A42E70-DC24-4DD4-94A7-946B904CEA41";
paths = (
{
closed = 1;
nodes = (
"254 0 OFFCURVE",
"309 21 OFFCURVE",
"356 78 CURVE SMOOTH",
"452 195 OFFCURVE",
"479 519 OFFCURVE",
"479 571 CURVE SMOOTH",
"479 623 OFFCURVE",
"465 663 OFFCURVE",
"416 682 CURVE SMOOTH",
"352 706 OFFCURVE",
"234 705 OFFCURVE",
"150 698 CURVE SMOOTH",
"78 692 OFFCURVE",
"24 656 OFFCURVE",
"24 600 CURVE SMOOTH",
"24 491 OFFCURVE",
"132 498 OFFCURVE",
"282 498 CURVE",
"287 422 OFFCURVE",
"272 149 OFFCURVE",
"205 149 CURVE SMOOTH",
"179 149 OFFCURVE",
"163 169 OFFCURVE",
"163 198 CURVE SMOOTH",
"163 232 OFFCURVE",
"203 256 OFFCURVE",
"252 256 CURVE SMOOTH",
"361 256 OFFCURVE",
"535 212 OFFCURVE",
"634 166 CURVE SMOOTH",
"670 149 OFFCURVE",
"696 138 OFFCURVE",
"724 138 CURVE SMOOTH",
"757 138 OFFCURVE",
"785 171 OFFCURVE",
"785 204 CURVE SMOOTH",
"785 242 OFFCURVE",
"775 266 OFFCURVE",
"743 292 CURVE SMOOTH",
"645 374 OFFCURVE",
"417 421 OFFCURVE",
"267 421 CURVE SMOOTH",
"109 421 OFFCURVE",
"17 332 OFFCURVE",
"17 198 CURVE SMOOTH",
"17 91 OFFCURVE",
"96 6 OFFCURVE",
"210 2 CURVE SMOOTH"
);
},
{
closed = 1;
nodes = (
"551 0 OFFCURVE",
"578 13 OFFCURVE",
"595 30 CURVE SMOOTH",
"667 102 OFFCURVE",
"710 258 OFFCURVE",
"710 400 CURVE SMOOTH",
"710 473 OFFCURVE",
"666 503 OFFCURVE",
"620 503 CURVE SMOOTH",
"578 503 OFFCURVE",
"537 475 OFFCURVE",
"537 405 CURVE SMOOTH",
"537 359 OFFCURVE",
"538 258 OFFCURVE",
"525 213 CURVE SMOOTH",
"502 129 OFFCURVE",
"475 96 OFFCURVE",
"475 52 CURVE SMOOTH",
"475 23 OFFCURVE",
"500 0 OFFCURVE",
"528 0 CURVE SMOOTH"
);
}
);
width = 810;
}
);
unicode = 307F;
},
{
glyphname = "mu-hira";
lastChange = "2019-12-02 11:50:30 +0000";
layers = (
{
guideLines = (
{
position = "{69, 779}";
},
{
position = "{96, 470}";
}
);
hints = (
{
horizontal = 1;
place = "{700, 180}";
type = Stem;
},
{
horizontal = 1;
origin = "{1, 11}";
target = "{1, 8}";
type = Stem;
}
);
layerId = "09A42E70-DC24-4DD4-94A7-946B904CEA41";
paths = (
{
closed = 1;
nodes = (
"605 3 OFFCURVE",
"694 64 OFFCURVE",
"694 145 CURVE SMOOTH",
"694 177 OFFCURVE",
"669 203 OFFCURVE",
"637 203 CURVE SMOOTH",
"561 203 OFFCURVE",
"560 141 OFFCURVE",
"486 141 CURVE SMOOTH",
"438 141 OFFCURVE",
"412 172 OFFCURVE",
"379 231 CURVE SMOOTH",
"338 305 OFFCURVE",
"287 352 OFFCURVE",
"201 352 CURVE SMOOTH",
"117 352 OFFCURVE",
"25 296 OFFCURVE",
"25 179 CURVE SMOOTH",
"25 73 OFFCURVE",
"117 15 OFFCURVE",
"197 15 CURVE SMOOTH",
"295 15 OFFCURVE",
"386 73 OFFCURVE",
"406 194 CURVE SMOOTH",
"420 276 OFFCURVE",
"412 447 OFFCURVE",
"412 542 CURVE SMOOTH",
"412 631 OFFCURVE",
"422 702 OFFCURVE",
"321 702 CURVE SMOOTH",
"236 702 OFFCURVE",
"232 631 OFFCURVE",
"232 542 CURVE SMOOTH",
"232 453 OFFCURVE",
"234 257 OFFCURVE",
"234 225 CURVE SMOOTH",
"234 165 OFFCURVE",
"222 144 OFFCURVE",
"192 144 CURVE SMOOTH",
"173 144 OFFCURVE",
"155 159 OFFCURVE",
"155 179 CURVE SMOOTH",
"155 199 OFFCURVE",
"172 214 OFFCURVE",
"194 214 CURVE SMOOTH",
"235 214 OFFCURVE",
"245 162 OFFCURVE",
"275 104 CURVE SMOOTH",
"317 20 OFFCURVE",
"403 -1 OFFCURVE",
"506 1 CURVE SMOOTH"
);
},
{
closed = 1;
nodes = (
"515 431 OFFCURVE",
"630 421 OFFCURVE",
"630 520 CURVE SMOOTH",
"630 619 OFFCURVE",
"515 609 OFFCURVE",
"330 609 CURVE SMOOTH",
"145 609 OFFCURVE",
"30 618 OFFCURVE",
"30 520 CURVE SMOOTH",
"30 421 OFFCURVE",
"145 431 OFFCURVE",
"330 431 CURVE SMOOTH"
);
},
{
closed = 1;
nodes = (
"775 189 OFFCURVE",
"803 217 OFFCURVE",
"803 259 CURVE SMOOTH",
"803 346 OFFCURVE",
"714 424 OFFCURVE",
"634 424 CURVE SMOOTH",
"591 424 OFFCURVE",
"558 398 OFFCURVE",
"558 361 CURVE SMOOTH",
"558 323 OFFCURVE",
"576 291 OFFCURVE",
"620 269 CURVE SMOOTH",
"681 240 OFFCURVE",
"694 189 OFFCURVE",
"747 189 CURVE SMOOTH"
);
}
);
width = 828;
}
);
unicode = 3080;
},
{
glyphname = "me-hira";
lastChange = "2019-12-02 11:49:26 +0000";
layers = (
{
guideLines = (
{
position = "{270, 770}";
}
);
hints = (
{
horizontal = 1;
place = "{700, 180}";
type = Stem;
}
);
layerId = "09A42E70-DC24-4DD4-94A7-946B904CEA41";
paths = (
{
closed = 1;
nodes = (
"267 17 OFFCURVE",
"368 51 OFFCURVE",
"427 116 CURVE SMOOTH",
"561 257 OFFCURVE",
"631 497 OFFCURVE",
"631 603 CURVE SMOOTH",
"631 653 OFFCURVE",
"597 681 OFFCURVE",
"552 681 CURVE SMOOTH",
"504 681 OFFCURVE",
"478 654 OFFCURVE",
"468 613 CURVE SMOOTH",
"447 520 OFFCURVE",
"423 325 OFFCURVE",
"339 219 CURVE SMOOTH",
"285 154 OFFCURVE",
"258 145 OFFCURVE",
"235 145 CURVE SMOOTH",
"196 145 OFFCURVE",
"172 201 OFFCURVE",
"172 242 CURVE SMOOTH",
"172 310 OFFCURVE",
"248 404 OFFCURVE",
"367 404 CURVE SMOOTH",
"486 404 OFFCURVE",
"567 349 OFFCURVE",
"567 244 CURVE SMOOTH",
"567 163 OFFCURVE",
"511 145 OFFCURVE",
"511 99 CURVE SMOOTH",
"511 60 OFFCURVE",
"534 36 OFFCURVE",
"581 36 CURVE SMOOTH",
"642 36 OFFCURVE",
"729 126 OFFCURVE",
"729 247 CURVE SMOOTH",
"729 452 OFFCURVE",
"599 588 OFFCURVE",
"384 588 CURVE SMOOTH",
"211 588 OFFCURVE",
"15 467 OFFCURVE",
"15 255 CURVE SMOOTH",
"15 117 OFFCURVE",
"86 17 OFFCURVE",
"224 17 CURVE SMOOTH"
);
},
{
closed = 1;
nodes = (
"412 24 OFFCURVE",
"436 55 OFFCURVE",
"436 90 CURVE SMOOTH",
"436 137 OFFCURVE",
"357 375 OFFCURVE",
"296 549 CURVE SMOOTH",
"264 639 OFFCURVE",
"234 673 OFFCURVE",
"185 673 CURVE SMOOTH",
"137 673 OFFCURVE",
"102 637 OFFCURVE",
"102 585 CURVE SMOOTH",
"102 513 OFFCURVE",
"236 179 OFFCURVE",
"305 75 CURVE SMOOTH",
"331 37 OFFCURVE",
"359 24 OFFCURVE",
"382 24 CURVE SMOOTH"
);
}
);
width = 744;
}
);
unicode = 3081;
},
{
glyphname = "mo-hira";
lastChange = "2019-12-02 11:45:55 +0000";
layers = (
{
guideLines = (
{
position = "{499, 254}";
},
{
position = "{499, 499}";
},
{
position = "{463, 659}";
}
);
hints = (
{
horizontal = 1;
place = "{700, 180}";
type = Stem;
},
{
horizontal = 1;
place = "{-144, 144}";
type = Stem;
}
);
layerId = "09A42E70-DC24-4DD4-94A7-946B904CEA41";
paths = (
{
closed = 1;
nodes = (
"580 4 OFFCURVE",
"690 79 OFFCURVE",
"690 151 CURVE SMOOTH",
"690 176 OFFCURVE",
"668 205 OFFCURVE",
"635 205 CURVE SMOOTH",
"549 205 OFFCURVE",
"562 137 OFFCURVE",
"479 137 CURVE SMOOTH",
"438 137 OFFCURVE",
"393 158 OFFCURVE",
"390 244 CURVE SMOOTH",
"389 309 OFFCURVE",
"406 582 OFFCURVE",
"406 624 CURVE SMOOTH",
"406 664 OFFCURVE",
"369 700 OFFCURVE",
"321 700 CURVE SMOOTH",
"274 700 OFFCURVE",
"244 675 OFFCURVE",
"231 637 CURVE SMOOTH",
"214 589 OFFCURVE",
"206 398 OFFCURVE",
"206 318 CURVE SMOOTH",
"206 210 OFFCURVE",
"209 -6 OFFCURVE",
"477 1 CURVE SMOOTH"
);
},
{
closed = 1;
nodes = (
"528 214 OFFCURVE",
"632 215 OFFCURVE",
"632 302 CURVE SMOOTH",
"632 389 OFFCURVE",
"528 390 OFFCURVE",
"331 390 CURVE SMOOTH",
"135 390 OFFCURVE",
"31 389 OFFCURVE",
"31 302 CURVE SMOOTH",
"31 215 OFFCURVE",
"135 214 OFFCURVE",
"331 214 CURVE SMOOTH"
);
},
{
closed = 1;
nodes = (
"522 428 OFFCURVE",
"626 429 OFFCURVE",
"626 520 CURVE SMOOTH",
"626 611 OFFCURVE",
"522 612 OFFCURVE",
"325 612 CURVE SMOOTH",
"129 612 OFFCURVE",
"25 611 OFFCURVE",
"25 520 CURVE SMOOTH",
"25 429 OFFCURVE",
"129 428 OFFCURVE",
"325 428 CURVE SMOOTH"
);
}
);
width = 705;
}
);
unicode = 3082;
},
{
glyphname = "ya-hira";
lastChange = "2019-12-02 11:49:23 +0000";
layers = (
{
hints = (
{
horizontal = 1;
place = "{700, 180}";
type = Stem;
},
{
horizontal = 1;
place = "{-144, 144}";
type = Stem;
}
);
layerId = "09A42E70-DC24-4DD4-94A7-946B904CEA41";
paths = (
{
closed = 1;
nodes = (
"667 126 OFFCURVE",
"787 211 OFFCURVE",
"787 353 CURVE SMOOTH",
"787 512 OFFCURVE",
"620 568 OFFCURVE",
"496 564 CURVE SMOOTH",
"351 559 OFFCURVE",
"203 512 OFFCURVE",
"112 467 CURVE SMOOTH",
"64 443 OFFCURVE",
"25 408 OFFCURVE",
"25 358 CURVE SMOOTH",
"25 319 OFFCURVE",
"50 267 OFFCURVE",
"124 267 CURVE SMOOTH",
"229 267 OFFCURVE",
"361 370 OFFCURVE",
"512 370 CURVE SMOOTH",
"562 370 OFFCURVE",
"594 356 OFFCURVE",
"594 308 CURVE SMOOTH",
"594 257 OFFCURVE",
"504 255 OFFCURVE",
"504 191 CURVE SMOOTH",
"504 148 OFFCURVE",
"536 126 OFFCURVE",
"566 126 CURVE SMOOTH"
);
},
{
closed = 1;
nodes = (
"424 3 OFFCURVE",
"452 31 OFFCURVE",
"452 67 CURVE SMOOTH",
"452 90 OFFCURVE",
"445 131 OFFCURVE",
"436 169 CURVE SMOOTH",
"407 292 OFFCURVE",
"372 428 OFFCURVE",
"329 586 CURVE SMOOTH",
"315 641 OFFCURVE",
"284 672 OFFCURVE",
"227 672 CURVE SMOOTH",
"178 672 OFFCURVE",
"142 635 OFFCURVE",
"142 586 CURVE SMOOTH",
"142 489 OFFCURVE",
"251 186 OFFCURVE",
"293 94 CURVE SMOOTH",
"323 30 OFFCURVE",
"346 3 OFFCURVE",
"382 3 CURVE SMOOTH"
);
},
{
closed = 1;
nodes = (
"528 417 OFFCURVE",
"557 429 OFFCURVE",
"582 461 CURVE SMOOTH",
"605 490 OFFCURVE",
"637 575 OFFCURVE",
"637 625 CURVE SMOOTH",
"637 674 OFFCURVE",
"595 704 OFFCURVE",
"556 704 CURVE SMOOTH",
"517 704 OFFCURVE",
"481 681 OFFCURVE",
"463 634 CURVE SMOOTH",
"449 598 OFFCURVE",
"428 502 OFFCURVE",
"428 469 CURVE SMOOTH",
"428 441 OFFCURVE",
"456 417 OFFCURVE",
"492 417 CURVE SMOOTH"
);
}
);
width = 812;
}
);
unicode = 3084;
},
{
glyphname = "yu-hira";
lastChange = "2019-12-02 11:45:44 +0000";
layers = (
{
guideLines = (
{
position = "{429, 784}";
}
);
hints = (
{
horizontal = 1;
place = "{700, 180}";
type = Stem;
},
{
horizontal = 1;
place = "{-144, 144}";
type = Stem;
}
);
layerId = "09A42E70-DC24-4DD4-94A7-946B904CEA41";
paths = (
{
closed = 1;
nodes = (
"486 4 OFFCURVE",
"620 173 OFFCURVE",
"620 431 CURVE SMOOTH",
"620 569 OFFCURVE",
"567 707 OFFCURVE",
"417 707 CURVE SMOOTH",
"263 707 OFFCURVE",
"213 588 OFFCURVE",
"213 456 CURVE SMOOTH",
"213 266 OFFCURVE",
"312 82 OFFCURVE",
"507 82 CURVE SMOOTH",
"667 82 OFFCURVE",
"762 176 OFFCURVE",
"762 296 CURVE SMOOTH",
"762 422 OFFCURVE",
"672 508 OFFCURVE",
"517 508 CURVE SMOOTH",
"375 508 OFFCURVE",
"243 407 OFFCURVE",
"197 320 CURVE",
"197 448 OFFCURVE",
"151 479 OFFCURVE",
"102 479 CURVE SMOOTH",
"55 479 OFFCURVE",
"25 445 OFFCURVE",
"25 378 CURVE SMOOTH",
"25 307 OFFCURVE",
"72 61 OFFCURVE",
"174 61 CURVE SMOOTH",
"207 61 OFFCURVE",
"245 90 OFFCURVE",
"248 136 CURVE SMOOTH",
"252 204 OFFCURVE",
"380 340 OFFCURVE",
"514 338 CURVE SMOOTH",
"597 337 OFFCURVE",
"637 303 OFFCURVE",
"637 269 CURVE SMOOTH",
"637 231 OFFCURVE",
"607 190 OFFCURVE",
"502 205 CURVE SMOOTH",
"411 218 OFFCURVE",
"359 335 OFFCURVE",
"359 425 CURVE SMOOTH",
"359 480 OFFCURVE",
"371 526 OFFCURVE",
"410 526 CURVE SMOOTH",
"460 526 OFFCURVE",
"460 453 OFFCURVE",
"460 388 CURVE SMOOTH",
"460 315 OFFCURVE",
"453 221 OFFCURVE",
"429 173 CURVE SMOOTH",
"401 119 OFFCURVE",
"370 94 OFFCURVE",
"366 53 CURVE SMOOTH",
"364 29 OFFCURVE",
"385 4 OFFCURVE",
"414 4 CURVE SMOOTH"
);
}
);
width = 787;
}
);
unicode = 3086;
},
{
glyphname = "yo-hira";
lastChange = "2019-12-02 11:49:18 +0000";
layers = (
{
hints = (
{
horizontal = 1;
place = "{700, 180}";
type = Stem;
},
{
horizontal = 1;
place = "{-144, 144}";
type = Stem;
}
);
layerId = "09A42E70-DC24-4DD4-94A7-946B904CEA41";
paths = (
{
closed = 1;
nodes = (
"402 11 OFFCURVE",
"483 151 OFFCURVE",
"483 347 CURVE SMOOTH",
"483 482 OFFCURVE",
"432 711 OFFCURVE",
"309 711 CURVE SMOOTH",
"254 711 OFFCURVE",
"215 676 OFFCURVE",
"215 627 CURVE SMOOTH",
"215 577 OFFCURVE",
"262 530 OFFCURVE",
"284 466 CURVE SMOOTH",
"306 401 OFFCURVE",
"306 341 OFFCURVE",
"306 261 CURVE SMOOTH",
"306 200 OFFCURVE",
"271 146 OFFCURVE",
"230 146 CURVE SMOOTH",
"198 146 OFFCURVE",
"177 174 OFFCURVE",
"177 204 CURVE SMOOTH",
"177 249 OFFCURVE",
"220 270 OFFCURVE",
"258 270 CURVE SMOOTH",
"313 270 OFFCURVE",
"368 233 OFFCURVE",
"420 191 CURVE SMOOTH",
"484 142 OFFCURVE",
"527 80 OFFCURVE",
"590 80 CURVE SMOOTH",
"634 80 OFFCURVE",
"662 113 OFFCURVE",
"662 162 CURVE SMOOTH",
"662 271 OFFCURVE",
"451 409 OFFCURVE",
"270 409 CURVE SMOOTH",
"140 409 OFFCURVE",
"23 339 OFFCURVE",
"25 200 CURVE SMOOTH",
"32 52 OFFCURVE",
"133 -4 OFFCURVE",
"259 3 CURVE SMOOTH"
);
},
{
closed = 1;
nodes = (
"631 444 OFFCURVE",
"723 438 OFFCURVE",
"723 529 CURVE SMOOTH",
"723 613 OFFCURVE",
"631 619 OFFCURVE",
"515 619 CURVE SMOOTH",
"382 619 OFFCURVE",
"294 619 OFFCURVE",
"294 528 CURVE SMOOTH",
"294 440 OFFCURVE",
"376 444 OFFCURVE",
"515 444 CURVE SMOOTH"
);
}
);
width = 748;
}
);
unicode = 3088;
},
{
glyphname = "ra-hira";
lastChange = "2019-12-02 11:45:32 +0000";
layers = (
{
hints = (
{
horizontal = 1;
place = "{700, 180}";
type = Stem;
},
{
horizontal = 1;
place = "{-144, 144}";
type = Stem;
}
);
layerId = "09A42E70-DC24-4DD4-94A7-946B904CEA41";
paths = (
{
closed = 1;
nodes = (
"245 -2 OFFCURVE",
"313 -2 CURVE SMOOTH",
"471 -2 OFFCURVE",
"624 68 OFFCURVE",
"624 226 CURVE SMOOTH",
"624 361 OFFCURVE",
"503 430 OFFCURVE",
"381 430 CURVE SMOOTH",
"322 430 OFFCURVE",
"264 414 OFFCURVE",
"217 383 CURVE",
"219 400 OFFCURVE",
"224 426 OFFCURVE",
"224 453 CURVE SMOOTH",
"224 500 OFFCURVE",
"209 548 OFFCURVE",
"142 548 CURVE SMOOTH",
"39 548 OFFCURVE",
"25 424 OFFCURVE",
"25 304 CURVE SMOOTH",
"25 231 OFFCURVE",
"62 183 OFFCURVE",
"125 183 CURVE SMOOTH",
"225 183 OFFCURVE",
"236 256 OFFCURVE",
"332 272 CURVE SMOOTH",
"369 280 OFFCURVE",
"431 269 OFFCURVE",
"431 214 CURVE SMOOTH",
"431 138 OFFCURVE",
"312 138 OFFCURVE",
"268 143 CURVE SMOOTH",
"200 148 OFFCURVE",
"164 115 OFFCURVE",
"164 79 CURVE SMOOTH",
"164 19 OFFCURVE"
);
},
{
closed = 1;
nodes = (
"548 488 OFFCURVE",
"579 523 OFFCURVE",
"579 563 CURVE SMOOTH",
"579 592 OFFCURVE",
"563 623 OFFCURVE",
"529 644 CURVE SMOOTH",
"464 685 OFFCURVE",
"342 710 OFFCURVE",
"280 710 CURVE SMOOTH",
"219 710 OFFCURVE",
"181 670 OFFCURVE",
"181 629 CURVE SMOOTH",
"181 600 OFFCURVE",
"197 572 OFFCURVE",
"232 552 CURVE SMOOTH",
"302 511 OFFCURVE",
"433 488 OFFCURVE",
"489 488 CURVE SMOOTH"
);
}
);
width = 639;
}
);
unicode = 3089;
},
{
glyphname = "ri-hira";
lastChange = "2019-12-02 11:49:11 +0000";
layers = (
{
hints = (
{
horizontal = 1;
place = "{700, 180}";
type = Stem;
}
);
layerId = "09A42E70-DC24-4DD4-94A7-946B904CEA41";
paths = (
{
closed = 1;
nodes = (
"504 4 OFFCURVE",
"636 163 OFFCURVE",
"636 404 CURVE SMOOTH",
"636 523 OFFCURVE",
"597 683 OFFCURVE",
"494 683 CURVE SMOOTH",
"429 683 OFFCURVE",
"398 645 OFFCURVE",
"398 588 CURVE SMOOTH",
"398 535 OFFCURVE",
"435 455 OFFCURVE",
"435 369 CURVE SMOOTH",
"435 285 OFFCURVE",
"414 212 OFFCURVE",
"346 154 CURVE SMOOTH",
"296 111 OFFCURVE",
"288 93 OFFCURVE",
"288 65 CURVE SMOOTH",
"288 31 OFFCURVE",
"319 4 OFFCURVE",
"361 4 CURVE SMOOTH"
);
},
{
closed = 1;
nodes = (
"243 198 OFFCURVE",
"330 304 OFFCURVE",
"330 369 CURVE SMOOTH",
"330 405 OFFCURVE",
"309 436 OFFCURVE",
"274 436 CURVE SMOOTH",
"218 436 OFFCURVE",
"206 400 OFFCURVE",
"198 400 CURVE SMOOTH",
"193 400 OFFCURVE",
"190 410 OFFCURVE",
"190 426 CURVE SMOOTH",
"190 485 OFFCURVE",
"237 565 OFFCURVE",
"237 603 CURVE SMOOTH",
"237 650 OFFCURVE",
"212 683 OFFCURVE",
"153 683 CURVE SMOOTH",
"63 683 OFFCURVE",
"15 563 OFFCURVE",
"15 430 CURVE SMOOTH",
"15 309 OFFCURVE",
"43 198 OFFCURVE",
"153 198 CURVE SMOOTH"
);
}
);
width = 661;
}
);
unicode = 308A;
},
{
glyphname = "ru-hira";
lastChange = "2019-12-02 11:38:43 +0000";
layers = (
{
hints = (
{
horizontal = 1;
place = "{700, 180}";
type = Stem;
}
);
layerId = "09A42E70-DC24-4DD4-94A7-946B904CEA41";
paths = (
{
closed = 1;
nodes = (
"468 3 OFFCURVE",
"588 89 OFFCURVE",
"588 227 CURVE SMOOTH",
"588 351 OFFCURVE",
"496 408 OFFCURVE",
"408 422 CURVE",
"522 479 OFFCURVE",
"568 532 OFFCURVE",
"568 599 CURVE SMOOTH",
"568 703 OFFCURVE",
"443 707 OFFCURVE",
"291 707 CURVE SMOOTH",
"126 707 OFFCURVE",
"15 700 OFFCURVE",
"15 600 CURVE SMOOTH",
"15 504 OFFCURVE",
"144 514 OFFCURVE",
"286 514 CURVE",
"139 441 OFFCURVE",
"41 405 OFFCURVE",
"41 344 CURVE SMOOTH",
"41 304 OFFCURVE",
"64 271 OFFCURVE",
"116 271 CURVE SMOOTH",
"148 271 OFFCURVE",
"211 297 OFFCURVE",
"269 297 CURVE SMOOTH",
"345 297 OFFCURVE",
"427 262 OFFCURVE",
"427 203 CURVE SMOOTH",
"427 135 OFFCURVE",
"366 102 OFFCURVE",
"295 102 CURVE SMOOTH",
"259 102 OFFCURVE",
"237 109 OFFCURVE",
"237 126 CURVE SMOOTH",
"237 137 OFFCURVE",
"248 153 OFFCURVE",
"270 153 CURVE SMOOTH",
"296 153 OFFCURVE",
"295 132 OFFCURVE",
"295 106 CURVE SMOOTH",
"295 67 OFFCURVE",
"288 42 OFFCURVE",
"332 42 CURVE SMOOTH",
"377 42 OFFCURVE",
"402 82 OFFCURVE",
"402 131 CURVE SMOOTH",
"402 206 OFFCURVE",
"348 257 OFFCURVE",
"268 257 CURVE SMOOTH",
"170 257 OFFCURVE",
"114 193 OFFCURVE",
"114 128 CURVE SMOOTH",
"114 44 OFFCURVE",
"203 3 OFFCURVE",
"316 3 CURVE SMOOTH"
);
}
);
width = 603;
}
);
unicode = 308B;
},
{
glyphname = "re-hira";
lastChange = "2019-12-02 11:38:43 +0000";
layers = (
{
hints = (
{
horizontal = 1;
place = "{700, 180}";
type = Stem;
},
{
origin = "{1, 8}";
target = "{1, 5}";
type = Stem;
},
{
horizontal = 1;
place = "{-120, 144}";
type = Stem;
}
);
layerId = "09A42E70-DC24-4DD4-94A7-946B904CEA41";
paths = (
{
closed = 1;
nodes = (
"735 11 OFFCURVE",
"756 51 OFFCURVE",
"756 86 CURVE SMOOTH",
"756 114 OFFCURVE",
"737 138 OFFCURVE",
"696 138 CURVE SMOOTH",
"669 138 OFFCURVE",
"642 148 OFFCURVE",
"642 185 CURVE SMOOTH",
"642 236 OFFCURVE",
"706 251 OFFCURVE",
"706 327 CURVE SMOOTH",
"706 391 OFFCURVE",
"651 422 OFFCURVE",
"575 410 CURVE",
"596 427 OFFCURVE",
"639 479 OFFCURVE",
"639 533 CURVE SMOOTH",
"639 639 OFFCURVE",
"497 641 OFFCURVE",
"328 641 CURVE SMOOTH",
"133 641 OFFCURVE",
"15 643 OFFCURVE",
"15 539 CURVE SMOOTH",
"15 440 OFFCURVE",
"127 449 OFFCURVE",
"408 449 CURVE",
"291 371 OFFCURVE",
"157 310 OFFCURVE",
"74 251 CURVE SMOOTH",
"-9 192 OFFCURVE",
"45 90 OFFCURVE",
"123 111 CURVE SMOOTH",
"221 138 OFFCURVE",
"386 222 OFFCURVE",
"472 265 CURVE",
"429 103 OFFCURVE",
"503 1 OFFCURVE",
"664 8 CURVE SMOOTH"
);
},
{
closed = 1;
nodes = (
"339 4 OFFCURVE",
"349 88 OFFCURVE",
"349 353 CURVE SMOOTH",
"349 621 OFFCURVE",
"356 702 OFFCURVE",
"264 702 CURVE SMOOTH",
"172 702 OFFCURVE",
"165 621 OFFCURVE",
"165 353 CURVE SMOOTH",
"165 88 OFFCURVE",
"189 4 OFFCURVE",
"264 4 CURVE SMOOTH"
);
}
);
width = 771;
}
);
unicode = 308C;
},
{
glyphname = "ro-hira";
lastChange = "2019-12-02 11:38:43 +0000";
layers = (
{
guideLines = (
{
position = "{211, 779}";
}
);
hints = (
{
horizontal = 1;
place = "{700, 180}";
type = Stem;
},
{
horizontal = 1;
origin = "{0, 4}";
type = Anchor;
}
);
layerId = "09A42E70-DC24-4DD4-94A7-946B904CEA41";
paths = (
{
closed = 1;
nodes = (
"514 -6 OFFCURVE",
"615 80 OFFCURVE",
"615 223 CURVE SMOOTH",
"615 318 OFFCURVE",
"544 396 OFFCURVE",
"436 405 CURVE",
"538 472 OFFCURVE",
"605 492 OFFCURVE",
"605 571 CURVE SMOOTH",
"605 699 OFFCURVE",
"439 703 OFFCURVE",
"319 701 CURVE SMOOTH",
"175 699 OFFCURVE",
"25 701 OFFCURVE",
"25 595 CURVE SMOOTH",
"25 492 OFFCURVE",
"147 501 OFFCURVE",
"310 501 CURVE",
"270 469 OFFCURVE",
"183 414 OFFCURVE",
"119 370 CURVE SMOOTH",
"84 346 OFFCURVE",
"64 324 OFFCURVE",
"64 287 CURVE SMOOTH",
"64 253 OFFCURVE",
"96 221 OFFCURVE",
"137 221 CURVE SMOOTH",
"191 221 OFFCURVE",
"254 257 OFFCURVE",
"327 257 CURVE SMOOTH",
"362 257 OFFCURVE",
"423 248 OFFCURVE",
"422 197 CURVE SMOOTH",
"421 143 OFFCURVE",
"334 130 OFFCURVE",
"253 130 CURVE SMOOTH",
"202 130 OFFCURVE",
"179 97 OFFCURVE",
"179 68 CURVE SMOOTH",
"179 8 OFFCURVE",
"249 -6 OFFCURVE",
"329 -6 CURVE SMOOTH"
);
}
);
width = 640;
}
);
unicode = 308D;
},
{
glyphname = "wa-hira";
lastChange = "2019-12-02 11:46:00 +0000";
layers = (
{
guideLines = (
{
position = "{78, 0}";
}
);
hints = (
{
horizontal = 1;
place = "{700, 180}";
type = Stem;
}
);
layerId = "09A42E70-DC24-4DD4-94A7-946B904CEA41";
paths = (
{
closed = 1;
nodes = (
"620 0 OFFCURVE",
"725 81 OFFCURVE",
"725 206 CURVE SMOOTH",
"725 316 OFFCURVE",
"640 387 OFFCURVE",
"526 382 CURVE",
"578 424 OFFCURVE",
"596 462 OFFCURVE",
"596 506 CURVE SMOOTH",
"596 642 OFFCURVE",
"416 643 OFFCURVE",
"276 643 CURVE SMOOTH",
"134 643 OFFCURVE",
"15 636 OFFCURVE",
"15 543 CURVE SMOOTH",
"15 467 OFFCURVE",
"91 454 OFFCURVE",
"205 454 CURVE SMOOTH",
"265 454 OFFCURVE",
"327 458 OFFCURVE",
"403 458 CURVE",
"254 349 OFFCURVE",
"141 291 OFFCURVE",
"77 243 CURVE SMOOTH",
"49 222 OFFCURVE",
"40 200 OFFCURVE",
"40 175 CURVE SMOOTH",
"40 143 OFFCURVE",
"68 108 OFFCURVE",
"107 108 CURVE SMOOTH",
"219 108 OFFCURVE",
"320 251 OFFCURVE",
"445 251 CURVE SMOOTH",
"516 251 OFFCURVE",
"549 221 OFFCURVE",
"549 177 CURVE SMOOTH",
"549 146 OFFCURVE",
"516 135 OFFCURVE",
"490 124 CURVE SMOOTH",
"456 109 OFFCURVE",
"442 84 OFFCURVE",
"442 61 CURVE SMOOTH",
"442 29 OFFCURVE",
"468 0 OFFCURVE",
"512 0 CURVE SMOOTH"
);
},
{
closed = 1;
nodes = (
"334 -2 OFFCURVE",
"349 64 OFFCURVE",
"349 369 CURVE SMOOTH",
"349 610 OFFCURVE",
"348 702 OFFCURVE",
"258 702 CURVE SMOOTH",
"166 702 OFFCURVE",
"165 606 OFFCURVE",
"165 353 CURVE SMOOTH",
"165 62 OFFCURVE",
"183 -2 OFFCURVE",
"258 -2 CURVE SMOOTH"
);
}
);
width = 740;
}
);
unicode = 308F;
},
{
glyphname = "wi-hira";
lastChange = "2019-12-02 11:49:20 +0000";
layers = (
{
guideLines = (
{
position = "{-17, 778}";
}
);
hints = (
{
horizontal = 1;
place = "{704, 180}";
type = Stem;
},
{
horizontal = 1;
place = "{-144, 144}";
type = Stem;
}
);
layerId = "09A42E70-DC24-4DD4-94A7-946B904CEA41";
paths = (
{
closed = 1;
nodes = (
"648 -4 OFFCURVE",
"713 91 OFFCURVE",
"713 202 CURVE SMOOTH",
"713 355 OFFCURVE",
"599 480 OFFCURVE",
"373 480 CURVE SMOOTH",
"194 480 OFFCURVE",
"25 368 OFFCURVE",
"25 186 CURVE SMOOTH",
"25 70 OFFCURVE",
"92 -2 OFFCURVE",
"191 -2 CURVE SMOOTH",
"403 -2 OFFCURVE",
"482 345 OFFCURVE",
"482 544 CURVE SMOOTH",
"482 640 OFFCURVE",
"446 698 OFFCURVE",
"356 704 CURVE SMOOTH",
"231 712 OFFCURVE",
"29 717 OFFCURVE",
"29 604 CURVE SMOOTH",
"29 494 OFFCURVE",
"166 506 OFFCURVE",
"298 511 CURVE",
"287 192 OFFCURVE",
"228 141 OFFCURVE",
"209 141 CURVE SMOOTH",
"192 141 OFFCURVE",
"180 157 OFFCURVE",
"180 185 CURVE SMOOTH",
"180 250 OFFCURVE",
"256 308 OFFCURVE",
"375 308 CURVE SMOOTH",
"521 308 OFFCURVE",
"575 225 OFFCURVE",
"575 157 CURVE SMOOTH",
"575 118 OFFCURVE",
"567 86 OFFCURVE",
"537 86 CURVE SMOOTH",
"520 86 OFFCURVE",
"508 97 OFFCURVE",
"508 112 CURVE SMOOTH",
"508 127 OFFCURVE",
"521 140 OFFCURVE",
"537 140 CURVE SMOOTH",
"559 140 OFFCURVE",
"565 127 OFFCURVE",
"565 110 CURVE SMOOTH",
"565 63 OFFCURVE",
"504 67 OFFCURVE",
"504 41 CURVE SMOOTH",
"504 28 OFFCURVE",
"518 8 OFFCURVE",
"542 8 CURVE SMOOTH",
"584 8 OFFCURVE",
"645 57 OFFCURVE",
"645 110 CURVE SMOOTH",
"645 178 OFFCURVE",
"614 235 OFFCURVE",
"533 235 CURVE SMOOTH",
"452 235 OFFCURVE",
"409 174 OFFCURVE",
"409 116 CURVE SMOOTH",
"409 55 OFFCURVE",
"448 -4 OFFCURVE",
"537 -4 CURVE SMOOTH"
);
}
);
width = 738;
}
);
unicode = 3090;
},
{
glyphname = "we-hira";
lastChange = "2019-12-02 11:49:16 +0000";
layers = (
{
guideLines = (
{
position = "{-43, 778}";
},
{
position = "{-19, 0}";
},
{
position = "{-5, 63}";
}
);
hints = (
{
horizontal = 1;
place = "{649, 180}";
type = Stem;
},
{
horizontal = 1;
place = "{-144, 144}";
type = Stem;
}
);
layerId = "09A42E70-DC24-4DD4-94A7-946B904CEA41";
paths = (
{
closed = 1;
nodes = (
"647 -2 OFFCURVE",
"676 23 OFFCURVE",
"676 55 CURVE SMOOTH",
"676 124 OFFCURVE",
"576 181 OFFCURVE",
"486 181 CURVE SMOOTH",
"446 181 OFFCURVE",
"399 166 OFFCURVE",
"370 145 CURVE",
"361 155 OFFCURVE",
"348 162 OFFCURVE",
"335 166 CURVE",
"388 190 OFFCURVE",
"417 249 OFFCURVE",
"417 294 CURVE SMOOTH",
"417 350 OFFCURVE",
"365 404 OFFCURVE",
"294 404 CURVE SMOOTH",
"210 404 OFFCURVE",
"163 352 OFFCURVE",
"163 293 CURVE SMOOTH",
"163 224 OFFCURVE",
"241 181 OFFCURVE",
"332 181 CURVE SMOOTH",
"473 181 OFFCURVE",
"571 253 OFFCURVE",
"571 371 CURVE SMOOTH",
"571 465 OFFCURVE",
"505 521 OFFCURVE",
"453 530 CURVE",
"504 552 OFFCURVE",
"569 588 OFFCURVE",
"569 649 CURVE SMOOTH",
"569 740 OFFCURVE",
"455 741 OFFCURVE",
"314 741 CURVE SMOOTH",
"173 741 OFFCURVE",
"59 740 OFFCURVE",
"59 649 CURVE SMOOTH",
"59 570 OFFCURVE",
"155 566 OFFCURVE",
"245 575 CURVE",
"197 550 OFFCURVE",
"103 518 OFFCURVE",
"103 464 CURVE SMOOTH",
"103 429 OFFCURVE",
"123 400 OFFCURVE",
"167 400 CURVE SMOOTH",
"210 400 OFFCURVE",
"243 431 OFFCURVE",
"306 431 CURVE SMOOTH",
"379 431 OFFCURVE",
"427 395 OFFCURVE",
"427 352 CURVE SMOOTH",
"427 301 OFFCURVE",
"391 262 OFFCURVE",
"317 262 CURVE SMOOTH",
"277 262 OFFCURVE",
"264 275 OFFCURVE",
"264 289 CURVE SMOOTH",
"264 302 OFFCURVE",
"271 316 OFFCURVE",
"288 316 CURVE SMOOTH",
"304 316 OFFCURVE",
"313 308 OFFCURVE",
"313 293 CURVE SMOOTH",
"313 239 OFFCURVE",
"237 218 OFFCURVE",
"72 124 CURVE SMOOTH",
"39 105 OFFCURVE",
"25 77 OFFCURVE",
"25 52 CURVE SMOOTH",
"25 21 OFFCURVE",
"54 -1 OFFCURVE",
"87 -1 CURVE SMOOTH",
"157 -1 OFFCURVE",
"155 48 OFFCURVE",
"226 48 CURVE SMOOTH",
"296 48 OFFCURVE",
"292 0 OFFCURVE",
"362 0 CURVE SMOOTH",
"429 0 OFFCURVE",
"426 48 OFFCURVE",
"490 48 CURVE SMOOTH",
"551 48 OFFCURVE",
"551 -2 OFFCURVE",
"613 -2 CURVE SMOOTH"
);
}
);
width = 691;
}
);
unicode = 3091;
},
{
glyphname = "wo-hira";
lastChange = "2019-12-02 11:38:43 +0000";
layers = (
{
guideLines = (
{
position = "{132, 776}";
}
);
hints = (
{
horizontal = 1;
place = "{700, 180}";
type = Stem;
}
);
layerId = "09A42E70-DC24-4DD4-94A7-946B904CEA41";
paths = (
{
closed = 1;
nodes = (
"483 148 OFFCURVE",
"517 177 OFFCURVE",
"517 217 CURVE SMOOTH",
"517 309 OFFCURVE",
"463 434 OFFCURVE",
"337 434 CURVE",
"373 495 OFFCURVE",
"410 592 OFFCURVE",
"410 641 CURVE SMOOTH",
"410 680 OFFCURVE",
"375 707 OFFCURVE",
"331 707 CURVE SMOOTH",
"293 707 OFFCURVE",
"263 690 OFFCURVE",
"248 665 CURVE SMOOTH",
"192 572 OFFCURVE",
"140 422 OFFCURVE",
"135 363 CURVE SMOOTH",
"132 327 OFFCURVE",
"149 289 OFFCURVE",
"197 289 CURVE SMOOTH",
"240 289 OFFCURVE",
"249 316 OFFCURVE",
"288 316 CURVE SMOOTH",
"312 316 OFFCURVE",
"340 305 OFFCURVE",
"358 244 CURVE SMOOTH",
"374 189 OFFCURVE",
"399 148 OFFCURVE",
"442 148 CURVE SMOOTH"
);
},
{
closed = 1;
nodes = (
"459 0 OFFCURVE",
"537 10 OFFCURVE",
"537 64 CURVE SMOOTH",
"537 100 OFFCURVE",
"502 126 OFFCURVE",
"452 119 CURVE SMOOTH",
"405 112 OFFCURVE",
"338 107 OFFCURVE",
"338 144 CURVE SMOOTH",
"338 170 OFFCURVE",
"377 207 OFFCURVE",
"475 231 CURVE SMOOTH",
"568 254 OFFCURVE",
"614 284 OFFCURVE",
"614 333 CURVE SMOOTH",
"614 377 OFFCURVE",
"577 400 OFFCURVE",
"531 400 CURVE SMOOTH",
"475 400 OFFCURVE",
"206 310 OFFCURVE",
"186 157 CURVE SMOOTH",
"176 74 OFFCURVE",
"229 0 OFFCURVE",
"361 0 CURVE SMOOTH"
);
},
{
closed = 1;
nodes = (
"535 468 OFFCURVE",
"659 469 OFFCURVE",
"659 560 CURVE SMOOTH",
"659 651 OFFCURVE",
"535 652 OFFCURVE",
"337 652 CURVE SMOOTH",
"119 652 OFFCURVE",
"5 651 OFFCURVE",
"5 560 CURVE SMOOTH",
"5 469 OFFCURVE",
"119 468 OFFCURVE",
"337 468 CURVE SMOOTH"
);
}
);
width = 684;
}
);
unicode = 3092;
},
{
glyphname = "n-hira";
lastChange = "2019-12-02 11:38:43 +0000";
layers = (
{
guideLines = (
{
position = "{45, 785}";
}
);
hints = (
{
horizontal = 1;
place = "{700, 180}";
type = Stem;
}
);
layerId = "09A42E70-DC24-4DD4-94A7-946B904CEA41";
paths = (
{
closed = 1;
nodes = (
"167 4 OFFCURVE",
"194 49 OFFCURVE",
"204 91 CURVE SMOOTH",
"218 152 OFFCURVE",
"231 218 OFFCURVE",
"269 218 CURVE SMOOTH",
"296 218 OFFCURVE",
"315 198 OFFCURVE",
"315 158 CURVE SMOOTH",
"315 116 OFFCURVE",
"331 6 OFFCURVE",
"489 6 CURVE SMOOTH",
"599 6 OFFCURVE",
"680 103 OFFCURVE",
"680 217 CURVE SMOOTH",
"680 267 OFFCURVE",
"647 293 OFFCURVE",
"617 293 CURVE SMOOTH",
"584 293 OFFCURVE",
"560 271 OFFCURVE",
"546 233 CURVE SMOOTH",
"535 204 OFFCURVE",
"529 162 OFFCURVE",
"494 162 CURVE SMOOTH",
"462 162 OFFCURVE",
"467 189 OFFCURVE",
"467 224 CURVE SMOOTH",
"467 325 OFFCURVE",
"430 411 OFFCURVE",
"324 411 CURVE SMOOTH",
"304 411 OFFCURVE",
"287 409 OFFCURVE",
"269 401 CURVE",
"290 463 OFFCURVE",
"330 572 OFFCURVE",
"330 621 CURVE SMOOTH",
"330 679 OFFCURVE",
"292 704 OFFCURVE",
"252 704 CURVE SMOOTH",
"211 704 OFFCURVE",
"170 679 OFFCURVE",
"139 607 CURVE SMOOTH",
"67 439 OFFCURVE",
"25 217 OFFCURVE",
"25 101 CURVE SMOOTH",
"25 50 OFFCURVE",
"59 4 OFFCURVE",
"121 4 CURVE SMOOTH"
);
}
);
width = 695;
}
);
unicode = 3093;
},
{
glyphname = "digraphyori-hira";
lastChange = "2019-12-02 11:48:59 +0000";
layers = (
{
guideLines = (
{
position = "{9, 771}";
},
{
position = "{83, 0}";
}
);
hints = (
{
horizontal = 1;
place = "{700, 180}";
type = Stem;
}
);
layerId = "09A42E70-DC24-4DD4-94A7-946B904CEA41";
paths = (
{
closed = 1;
nodes = (
"547 2 OFFCURVE",
"645 96 OFFCURVE",
"645 222 CURVE SMOOTH",
"645 339 OFFCURVE",
"558 432 OFFCURVE",
"395 432 CURVE SMOOTH",
"264 432 OFFCURVE",
"96 303 OFFCURVE",
"96 209 CURVE SMOOTH",
"96 183 OFFCURVE",
"105 163 OFFCURVE",
"127 163 CURVE SMOOTH",
"156 163 OFFCURVE",
"214 200 OFFCURVE",
"223 241 CURVE SMOOTH",
"258 392 OFFCURVE",
"351 522 OFFCURVE",
"351 596 CURVE SMOOTH",
"351 662 OFFCURVE",
"320 696 OFFCURVE",
"262 696 CURVE SMOOTH",
"201 696 OFFCURVE",
"166 644 OFFCURVE",
"122 512 CURVE SMOOTH",
"69 354 OFFCURVE",
"25 171 OFFCURVE",
"25 96 CURVE SMOOTH",
"25 35 OFFCURVE",
"66 11 OFFCURVE",
"104 11 CURVE SMOOTH",
"141 11 OFFCURVE",
"186 35 OFFCURVE",
"197 106 CURVE SMOOTH",
"221 261 OFFCURVE",
"327 283 OFFCURVE",
"387 283 CURVE SMOOTH",
"435 283 OFFCURVE",
"470 255 OFFCURVE",
"470 214 CURVE SMOOTH",
"470 170 OFFCURVE",
"434 147 OFFCURVE",
"398 147 CURVE SMOOTH",
"341 147 OFFCURVE",
"331 177 OFFCURVE",
"288 177 CURVE SMOOTH",
"242 177 OFFCURVE",
"224 132 OFFCURVE",
"224 104 CURVE SMOOTH",
"224 23 OFFCURVE",
"320 2 OFFCURVE",
"391 2 CURVE SMOOTH"
);
},
{
closed = 1;
nodes = (
"303 418 OFFCURVE",
"269 483 OFFCURVE",
"510 477 CURVE SMOOTH",
"589 475 OFFCURVE",
"652 486 OFFCURVE",
"652 565 CURVE SMOOTH",
"652 644 OFFCURVE",
"564 668 OFFCURVE",
"477 668 CURVE SMOOTH",
"379 668 OFFCURVE",
"278 637 OFFCURVE",
"213 573 CURVE SMOOTH",
"183 544 OFFCURVE",
"172 503 OFFCURVE",
"172 476 CURVE SMOOTH",
"172 438 OFFCURVE",
"195 418 OFFCURVE",
"221 418 CURVE SMOOTH"
);
}
);
width = 677;
}
);
unicode = 309F;
},
{
glyphname = "a-kata";
lastChange = "2019-12-02 11:53:04 +0000";
layers = (
{
guideLines = (
{
position = "{365, 789}";
}
);
hints = (
{
horizontal = 1;
place = "{700, 180}";
type = Stem;
},
{
horizontal = 1;
place = "{-144, 144}";
type = Stem;
}
);
layerId = "09A42E70-DC24-4DD4-94A7-946B904CEA41";
paths = (
{
closed = 1;
nodes = (
"556 126 OFFCURVE",
"752 253 OFFCURVE",
"752 461 CURVE SMOOTH",
"752 667 OFFCURVE",
"593 707 OFFCURVE",
"385 707 CURVE SMOOTH",
"196 707 OFFCURVE",
"25 688 OFFCURVE",
"25 565 CURVE SMOOTH",
"25 459 OFFCURVE",
"134 456 OFFCURVE",
"250 456 CURVE SMOOTH",
"428 456 OFFCURVE",
"429 459 OFFCURVE",
"547 459 CURVE",
"547 371 OFFCURVE",
"482 302 OFFCURVE",
"367 279 CURVE SMOOTH",
"306 266 OFFCURVE",
"283 238 OFFCURVE",
"283 198 CURVE SMOOTH",
"283 151 OFFCURVE",
"319 126 OFFCURVE",
"383 126 CURVE SMOOTH"
);
},
{
closed = 1;
nodes = (
"381 -16 OFFCURVE",
"437 98 OFFCURVE",
"437 237 CURVE SMOOTH",
"437 322 OFFCURVE",
"408 406 OFFCURVE",
"325 406 CURVE SMOOTH",
"229 406 OFFCURVE",
"226 320 OFFCURVE",
"226 255 CURVE SMOOTH",
"226 114 OFFCURVE",
"176 144 OFFCURVE",
"176 63 CURVE SMOOTH",
"176 16 OFFCURVE",
"219 -16 OFFCURVE",
"260 -16 CURVE SMOOTH"
);
}
);
width = 777;
}
);
unicode = 30A2;
},
{
glyphname = "i-kata";
lastChange = "2019-12-02 11:38:43 +0000";
layers = (
{
guideLines = (
{
position = "{302, 789}";
}
);
hints = (
{
horizontal = 1;
place = "{700, 180}";
type = Stem;
}
);
layerId = "09A42E70-DC24-4DD4-94A7-946B904CEA41";
paths = (
{
closed = 1;
nodes = (
"270 161 OFFCURVE",
"699 336 OFFCURVE",
"699 594 CURVE SMOOTH",
"699 669 OFFCURVE",
"648 713 OFFCURVE",
"590 713 CURVE SMOOTH",
"531 713 OFFCURVE",
"496 692 OFFCURVE",
"464 645 CURVE SMOOTH",
"397 548 OFFCURVE",
"320 418 OFFCURVE",
"125 361 CURVE SMOOTH",
"57 341 OFFCURVE",
"25 294 OFFCURVE",
"25 252 CURVE SMOOTH",
"25 204 OFFCURVE",
"64 161 OFFCURVE",
"133 161 CURVE SMOOTH"
);
},
{
closed = 1;
nodes = (
"489 8 OFFCURVE",
"521 92 OFFCURVE",
"521 185 CURVE SMOOTH",
"521 289 OFFCURVE",
"500 431 OFFCURVE",
"423 431 CURVE SMOOTH",
"371 431 OFFCURVE",
"303 391 OFFCURVE",
"303 338 CURVE SMOOTH",
"303 264 OFFCURVE",
"315 232 OFFCURVE",
"315 108 CURVE SMOOTH",
"315 46 OFFCURVE",
"349 8 OFFCURVE",
"414 8 CURVE SMOOTH"
);
}
);
width = 724;
}
);
unicode = 30A4;
},
{
glyphname = "u-kata";
lastChange = "2019-12-02 11:38:43 +0000";
layers = (
{
guideLines = (
{
position = "{215, 789}";
}
);
hints = (
{
horizontal = 1;
place = "{700, 180}";
type = Stem;
}
);
layerId = "09A42E70-DC24-4DD4-94A7-946B904CEA41";
paths = (
{
closed = 1;
nodes = (
"592 3 OFFCURVE",
"736 182 OFFCURVE",
"736 387 CURVE SMOOTH",
"736 602 OFFCURVE",
"646 620 OFFCURVE",
"381 620 CURVE SMOOTH",
"116 620 OFFCURVE",
"25 602 OFFCURVE",
"25 387 CURVE SMOOTH",
"25 259 OFFCURVE",
"78 187 OFFCURVE",
"160 199 CURVE SMOOTH",
"250 212 OFFCURVE",
"248 309 OFFCURVE",
"248 400 CURVE",
"520 400 LINE",
"520 309 OFFCURVE",
"515 212 OFFCURVE",
"356 140 CURVE SMOOTH",
"327 127 OFFCURVE",
"309 101 OFFCURVE",
"309 75 CURVE SMOOTH",
"309 31 OFFCURVE",
"341 3 OFFCURVE",
"394 3 CURVE SMOOTH"
);
},
{
closed = 1;
nodes = (
"478 451 OFFCURVE",
"493 495 OFFCURVE",
"493 579 CURVE SMOOTH",
"493 642 OFFCURVE",
"496 731 OFFCURVE",
"383 731 CURVE SMOOTH",
"275 731 OFFCURVE",
"275 642 OFFCURVE",
"275 579 CURVE SMOOTH",
"275 497 OFFCURVE",
"289 451 OFFCURVE",
"383 451 CURVE SMOOTH"
);
}
);
width = 761;
}
);
unicode = 30A6;
},
{
glyphname = "e-kata";
lastChange = "2019-12-02 11:48:45 +0000";
layers = (
{
guideLines = (
{
angle = 270;
position = "{-13, 251}";
},
{
angle = 270;
position = "{744, 307}";
},
{
position = "{205, 789}";
}
);
hints = (
{
horizontal = 1;
place = "{700, 180}";
type = Stem;
}
);
layerId = "09A42E70-DC24-4DD4-94A7-946B904CEA41";
paths = (
{
closed = 1;
nodes = (
"599 456 OFFCURVE",
"706 468 OFFCURVE",
"706 571 CURVE SMOOTH",
"706 672 OFFCURVE",
"599 692 OFFCURVE",
"366 692 CURVE SMOOTH",
"133 692 OFFCURVE",
"25 672 OFFCURVE",
"25 571 CURVE SMOOTH",
"25 468 OFFCURVE",
"133 456 OFFCURVE",
"366 456 CURVE SMOOTH"
);
},
{
closed = 1;
nodes = (
"599 2 OFFCURVE",
"706 13 OFFCURVE",
"706 106 CURVE SMOOTH",
"706 198 OFFCURVE",
"599 216 OFFCURVE",
"366 216 CURVE SMOOTH",
"133 216 OFFCURVE",
"25 198 OFFCURVE",
"25 106 CURVE SMOOTH",
"25 13 OFFCURVE",
"133 2 OFFCURVE",
"366 2 CURVE SMOOTH"
);
},
{
closed = 1;
nodes = (
"452 35 OFFCURVE",
"470 135 OFFCURVE",
"470 328 CURVE SMOOTH",
"470 520 OFFCURVE",
"452 624 OFFCURVE",
"360 624 CURVE SMOOTH",
"267 624 OFFCURVE",
"256 512 OFFCURVE",
"256 328 CURVE SMOOTH",
"256 143 OFFCURVE",
"267 35 OFFCURVE",
"360 35 CURVE SMOOTH"
);
}
);
width = 731;
}
);
unicode = 30A8;
},
{
glyphname = "o-kata";
lastChange = "2019-12-02 11:49:07 +0000";
layers = (
{
guideLines = (
{
position = "{127, 789}";
},
{
position = "{169, 0}";
}
);
hints = (
{
horizontal = 1;
place = "{700, 180}";
type = Stem;
}
);
layerId = "09A42E70-DC24-4DD4-94A7-946B904CEA41";
paths = (
{
closed = 1;
nodes = (
"265 38 OFFCURVE",
"522 265 OFFCURVE",
"522 373 CURVE SMOOTH",
"522 440 OFFCURVE",
"493 473 OFFCURVE",
"434 473 CURVE SMOOTH",
"348 473 OFFCURVE",
"269 342 OFFCURVE",
"157 265 CURVE SMOOTH",
"89 218 OFFCURVE",
"33 197 OFFCURVE",
"33 117 CURVE SMOOTH",
"33 74 OFFCURVE",
"77 38 OFFCURVE",
"131 38 CURVE SMOOTH"
);
},
{
closed = 1;
nodes = (
"575 -1 OFFCURVE",
"573 82 OFFCURVE",
"573 183 CURVE SMOOTH",
"573 271 OFFCURVE",
"572 529 OFFCURVE",
"572 575 CURVE SMOOTH",
"572 671 OFFCURVE",
"543 713 OFFCURVE",
"469 713 CURVE SMOOTH",
"392 713 OFFCURVE",
"366 671 OFFCURVE",
"366 575 CURVE SMOOTH",
"366 509 OFFCURVE",
"369 186 OFFCURVE",
"369 183 CURVE SMOOTH",
"369 82 OFFCURVE",
"371 -1 OFFCURVE",
"469 -1 CURVE SMOOTH"
);
},
{
closed = 1;
nodes = (
"645 393 OFFCURVE",
"772 393 OFFCURVE",
"772 509 CURVE SMOOTH",
"772 618 OFFCURVE",
"645 621 OFFCURVE",
"392 621 CURVE SMOOTH",
"142 621 OFFCURVE",
"15 621 OFFCURVE",
"15 509 CURVE SMOOTH",
"15 393 OFFCURVE",
"142 393 OFFCURVE",
"394 393 CURVE SMOOTH"
);
}
);
width = 787;
}
);
unicode = 30AA;
},
{
glyphname = "ka-kata";
lastChange = "2019-12-02 11:53:09 +0000";
layers = (
{
guideLines = (
{
position = "{354, 789}";
}
);
hints = (
{
horizontal = 1;
place = "{700, 180}";
type = Stem;
}
);
layerId = "09A42E70-DC24-4DD4-94A7-946B904CEA41";
paths = (
{
closed = 1;
nodes = (
"650 5 OFFCURVE",
"707 185 OFFCURVE",
"707 337 CURVE SMOOTH",
"707 472 OFFCURVE",
"645 590 OFFCURVE",
"492 590 CURVE SMOOTH",
"455 590 OFFCURVE",
"208 595 OFFCURVE",
"163 595 CURVE SMOOTH",
"91 595 OFFCURVE",
"25 558 OFFCURVE",
"25 493 CURVE SMOOTH",
"25 414 OFFCURVE",
"74 381 OFFCURVE",
"143 378 CURVE SMOOTH",
"197 376 OFFCURVE",
"279 376 OFFCURVE",
"345 376 CURVE SMOOTH",
"440 376 OFFCURVE",
"523 390 OFFCURVE",
"517 282 CURVE SMOOTH",
"514 235 OFFCURVE",
"502 201 OFFCURVE",
"470 165 CURVE SMOOTH",
"443 138 OFFCURVE",
"422 112 OFFCURVE",
"422 83 CURVE SMOOTH",
"422 50 OFFCURVE",
"449 5 OFFCURVE",
"507 5 CURVE SMOOTH"
);
},
{
closed = 1;
nodes = (
"256 17 OFFCURVE",
"304 81 OFFCURVE",
"348 176 CURVE SMOOTH",
"393 275 OFFCURVE",
"432 480 OFFCURVE",
"432 577 CURVE SMOOTH",
"432 662 OFFCURVE",
"407 710 OFFCURVE",
"335 710 CURVE SMOOTH",
"249 710 OFFCURVE",
"235 637 OFFCURVE",
"235 546 CURVE SMOOTH",
"235 406 OFFCURVE",
"216 290 OFFCURVE",
"148 200 CURVE SMOOTH",
"125 170 OFFCURVE",
"103 137 OFFCURVE",
"103 104 CURVE SMOOTH",
"103 59 OFFCURVE",
"135 17 OFFCURVE",
"193 17 CURVE SMOOTH"
);
}
);
width = 731;
}
);
leftKerningGroup = "ka-kata";
unicode = 30AB;
},
{
glyphname = "ki-kata";
lastChange = "2019-12-02 11:48:42 +0000";
layers = (
{
guideLines = (
{
position = "{283, 789}";
}
);
hints = (
{
horizontal = 1;
place = "{700, 180}";
type = Stem;
}
);
layerId = "09A42E70-DC24-4DD4-94A7-946B904CEA41";
paths = (
{
closed = 1;
nodes = (
"503 3 OFFCURVE",
"528 52 OFFCURVE",
"528 115 CURVE SMOOTH",
"528 198 OFFCURVE",
"497 370 OFFCURVE",
"477 511 CURVE SMOOTH",
"457 654 OFFCURVE",
"423 709 OFFCURVE",
"343 709 CURVE SMOOTH",
"269 709 OFFCURVE",
"235 675 OFFCURVE",
"235 603 CURVE SMOOTH",
"235 569 OFFCURVE",
"270 374 OFFCURVE",
"297 185 CURVE SMOOTH",
"308 98 OFFCURVE",
"332 3 OFFCURVE",
"438 3 CURVE SMOOTH"
);
},
{
closed = 1;
nodes = (
"602 146 OFFCURVE",
"710 148 OFFCURVE",
"710 248 CURVE SMOOTH",
"710 347 OFFCURVE",
"601 350 OFFCURVE",
"380 350 CURVE SMOOTH",
"159 350 OFFCURVE",
"50 348 OFFCURVE",
"50 248 CURVE SMOOTH",
"50 148 OFFCURVE",
"159 146 OFFCURVE",
"380 146 CURVE SMOOTH"
);
},
{
closed = 1;
nodes = (
"576 415 OFFCURVE",
"685 417 OFFCURVE",
"685 518 CURVE SMOOTH",
"685 618 OFFCURVE",
"576 620 OFFCURVE",
"355 620 CURVE SMOOTH",
"133 620 OFFCURVE",
"25 618 OFFCURVE",
"25 518 CURVE SMOOTH",
"25 417 OFFCURVE",
"133 415 OFFCURVE",
"355 415 CURVE SMOOTH"
);
}
);
width = 735;
}
);
leftKerningGroup = "ki-kata";
unicode = 30AD;
},
{
glyphname = "ku-kata";
lastChange = "2019-12-02 11:53:13 +0000";
layers = (
{
hints = (
{
horizontal = 1;
place = "{700, 180}";
type = Stem;
}
);
layerId = "09A42E70-DC24-4DD4-94A7-946B904CEA41";
paths = (
{
closed = 1;
nodes = (
"490 4 OFFCURVE",
"675 231 OFFCURVE",
"675 490 CURVE SMOOTH",
"675 568 OFFCURVE",
"655 640 OFFCURVE",
"601 679 CURVE SMOOTH",
"553 715 OFFCURVE",
"436 715 OFFCURVE",
"366 715 CURVE SMOOTH",
"303 715 OFFCURVE",
"211 724 OFFCURVE",
"156 672 CURVE SMOOTH",
"120 637 OFFCURVE",
"109 577 OFFCURVE",
"86 529 CURVE SMOOTH",
"58 470 OFFCURVE",
"25 428 OFFCURVE",
"25 368 CURVE SMOOTH",
"25 310 OFFCURVE",
"64 276 OFFCURVE",
"117 276 CURVE SMOOTH",
"183 276 OFFCURVE",
"265 327 OFFCURVE",
"298 504 CURVE",
"464 504 LINE",
"467 428 OFFCURVE",
"448 324 OFFCURVE",
"369 247 CURVE SMOOTH",
"308 188 OFFCURVE",
"216 162 OFFCURVE",
"216 86 CURVE SMOOTH",
"216 34 OFFCURVE",
"263 4 OFFCURVE",
"314 4 CURVE SMOOTH"
);
}
);
width = 700;
}
);
leftKerningGroup = "ku-kana";
unicode = 30AF;
},
{
glyphname = "ke-kata";
lastChange = "2019-12-02 11:38:43 +0000";
layers = (
{
hints = (
{
horizontal = 1;
place = "{700, 180}";
type = Stem;
}
);
layerId = "09A42E70-DC24-4DD4-94A7-946B904CEA41";
paths = (
{
closed = 1;
nodes = (
"365 -15 OFFCURVE",
"511 43 OFFCURVE",
"571 136 CURVE SMOOTH",
"628 225 OFFCURVE",
"633 297 OFFCURVE",
"630 393 CURVE SMOOTH",
"627 516 OFFCURVE",
"425 497 OFFCURVE",
"425 421 CURVE SMOOTH",
"425 306 OFFCURVE",
"412 215 OFFCURVE",
"324 161 CURVE SMOOTH",
"284 136 OFFCURVE",
"244 121 OFFCURVE",
"244 78 CURVE SMOOTH",
"244 41 OFFCURVE",
"263 17 OFFCURVE",
"297 7 CURVE SMOOTH"
);
},
{
closed = 1;
nodes = (
"281 299 OFFCURVE",
"323 457 OFFCURVE",
"323 579 CURVE SMOOTH",
"323 685 OFFCURVE",
"283 733 OFFCURVE",
"211 733 CURVE SMOOTH",
"141 733 OFFCURVE",
"94 690 OFFCURVE",
"90 617 CURVE SMOOTH",
"85 523 OFFCURVE",
"90 456 OFFCURVE",
"59 394 CURVE SMOOTH",
"38 352 OFFCURVE",
"19 308 OFFCURVE",
"27 260 CURVE SMOOTH",
"37 197 OFFCURVE",
"124 163 OFFCURVE",
"205 233 CURVE SMOOTH"
);
},
{
closed = 1;
nodes = (
"663 377 OFFCURVE",
"766 377 OFFCURVE",
"766 480 CURVE SMOOTH",
"766 581 OFFCURVE",
"663 581 OFFCURVE",
"446 581 CURVE SMOOTH",
"240 581 OFFCURVE",
"126 581 OFFCURVE",
"126 480 CURVE SMOOTH",
"126 377 OFFCURVE",
"240 377 OFFCURVE",
"446 377 CURVE SMOOTH"
);
}
);
width = 791;
}
);
leftKerningGroup = "ke-kana";
unicode = 30B1;
},
{
glyphname = "ko-kata";
lastChange = "2019-12-02 11:47:47 +0000";
layers = (
{
hints = (
{
place = "{157, 94}";
type = Stem;
},
{
horizontal = 1;
place = "{700, 180}";
type = Stem;
}
);
layerId = "09A42E70-DC24-4DD4-94A7-946B904CEA41";
paths = (
{
closed = 1;
nodes = (
"425 1 OFFCURVE",
"575 -8 OFFCURVE",
"632 110 CURVE SMOOTH",
"657 159 OFFCURVE",
"675 254 OFFCURVE",
"675 352 CURVE SMOOTH",
"675 444 OFFCURVE",
"657 539 OFFCURVE",
"614 595 CURVE SMOOTH",
"550 681 OFFCURVE",
"446 693 OFFCURVE",
"336 693 CURVE SMOOTH",
"189 693 OFFCURVE",
"25 690 OFFCURVE",
"25 562 CURVE SMOOTH",
"25 434 OFFCURVE",
"173 443 OFFCURVE",
"315 443 CURVE SMOOTH",
"354 443 OFFCURVE",
"432 443 OFFCURVE",
"442 443 CURVE",
"448 400 OFFCURVE",
"451 357 OFFCURVE",
"451 317 CURVE SMOOTH",
"451 275 OFFCURVE",
"448 237 OFFCURVE",
"443 198 CURVE",
"381 198 OFFCURVE",
"315 200 OFFCURVE",
"266 200 CURVE SMOOTH",
"150 200 OFFCURVE",
"65 195 OFFCURVE",
"65 103 CURVE SMOOTH",
"65 8 OFFCURVE",
"211 1 OFFCURVE",
"328 1 CURVE SMOOTH"
);
}
);
width = 700;
}
);
leftKerningGroup = "ko-kana";
unicode = 30B3;
},
{
glyphname = "sa-kata";
lastChange = "2019-12-02 11:38:43 +0000";
layers = (
{
guideLines = (
{
position = "{347, 789}";
}
);
hints = (
{
horizontal = 1;
place = "{700, 180}";
type = Stem;
}
);
layerId = "09A42E70-DC24-4DD4-94A7-946B904CEA41";
paths = (
{
closed = 1;
nodes = (
"529 0 OFFCURVE",
"653 102 OFFCURVE",
"676 277 CURVE SMOOTH",
"689 372 OFFCURVE",
"688 545 OFFCURVE",
"688 601 CURVE SMOOTH",
"688 664 OFFCURVE",
"662 711 OFFCURVE",
"592 711 CURVE SMOOTH",
"524 711 OFFCURVE",
"490 659 OFFCURVE",
"490 597 CURVE SMOOTH",
"490 554 OFFCURVE",
"490 459 OFFCURVE",
"490 423 CURVE SMOOTH",
"490 288 OFFCURVE",
"497 187 OFFCURVE",
"337 161 CURVE SMOOTH",
"277 151 OFFCURVE",
"251 127 OFFCURVE",
"251 81 CURVE SMOOTH",
"251 39 OFFCURVE",
"291 0 OFFCURVE",
"372 0 CURVE SMOOTH"
);
},
{
closed = 1;
nodes = (
"326 230 OFFCURVE",
"354 284 OFFCURVE",
"354 397 CURVE SMOOTH",
"354 457 OFFCURVE",
"353 530 OFFCURVE",
"352 589 CURVE SMOOTH",
"351 655 OFFCURVE",
"333 711 OFFCURVE",
"256 711 CURVE SMOOTH",
"181 711 OFFCURVE",
"160 654 OFFCURVE",
"160 575 CURVE SMOOTH",
"160 514 OFFCURVE",
"159 442 OFFCURVE",
"159 397 CURVE SMOOTH",
"159 289 OFFCURVE",
"179 230 OFFCURVE",
"256 230 CURVE SMOOTH"
);
},
{
closed = 1;
nodes = (
"718 382 OFFCURVE",
"819 372 OFFCURVE",
"819 480 CURVE SMOOTH",
"819 589 OFFCURVE",
"718 579 OFFCURVE",
"422 579 CURVE SMOOTH",
"126 579 OFFCURVE",
"25 589 OFFCURVE",
"25 480 CURVE SMOOTH",
"25 372 OFFCURVE",
"126 382 OFFCURVE",
"422 382 CURVE SMOOTH"
);
}
);
width = 844;
}
);
leftKerningGroup = "sa-kata";
unicode = 30B5;
},
{
glyphname = "si-kata";
lastChange = "2019-12-02 11:38:43 +0000";
layers = (
{
guideLines = (
{
position = "{254, 789}";
}
);
hints = (
{
horizontal = 1;
place = "{700, 180}";
type = Stem;
}
);
layerId = "09A42E70-DC24-4DD4-94A7-946B904CEA41";
paths = (
{
closed = 1;
nodes = (
"522 1 OFFCURVE",
"747 202 OFFCURVE",
"734 433 CURVE SMOOTH",
"731 487 OFFCURVE",
"687 522 OFFCURVE",
"640 522 CURVE SMOOTH",
"599 522 OFFCURVE",
"552 496 OFFCURVE",
"533 435 CURVE SMOOTH",
"486 287 OFFCURVE",
"420 240 OFFCURVE",
"266 200 CURVE SMOOTH",
"209 186 OFFCURVE",
"173 156 OFFCURVE",
"173 95 CURVE SMOOTH",
"173 37 OFFCURVE",
"234 1 OFFCURVE",
"303 1 CURVE SMOOTH"
);
},
{
closed = 1;
nodes = (
"344 280 OFFCURVE",
"417 307 OFFCURVE",
"417 383 CURVE SMOOTH",
"417 457 OFFCURVE",
"343 475 OFFCURVE",
"217 475 CURVE SMOOTH",
"105 475 OFFCURVE",
"31 447 OFFCURVE",
"31 371 CURVE SMOOTH",
"31 285 OFFCURVE",
"120 280 OFFCURVE",
"213 280 CURVE SMOOTH"
);
},
{
closed = 1;
nodes = (
"323 518 OFFCURVE",
"409 530 OFFCURVE",
"409 604 CURVE SMOOTH",
"409 697 OFFCURVE",
"316 709 OFFCURVE",
"217 709 CURVE SMOOTH",
"112 709 OFFCURVE",
"25 690 OFFCURVE",
"25 611 CURVE SMOOTH",
"25 533 OFFCURVE",
"103 518 OFFCURVE",
"198 518 CURVE SMOOTH"
);
}
);
width = 760;
}
);
leftKerningGroup = "si-kata";
unicode = 30B7;
},
{
glyphname = "su-kata";
lastChange = "2019-12-02 11:44:55 +0000";
layers = (
{
guideLines = (
{
position = "{236, 789}";
},
{
position = "{282, 0}";
}
);
hints = (
{
horizontal = 1;
place = "{700, 180}";
type = Stem;
}
);
layerId = "09A42E70-DC24-4DD4-94A7-946B904CEA41";
paths = (
{
closed = 1;
nodes = (
"335 2 OFFCURVE",
"641 286 OFFCURVE",
"641 461 CURVE SMOOTH",
"641 646 OFFCURVE",
"506 677 OFFCURVE",
"299 677 CURVE SMOOTH",
"187 677 OFFCURVE",
"25 658 OFFCURVE",
"25 545 CURVE SMOOTH",
"25 418 OFFCURVE",
"231 446 OFFCURVE",
"404 446 CURVE",
"337 268 OFFCURVE",
"184 208 OFFCURVE",
"85 151 CURVE SMOOTH",
"52 132 OFFCURVE",
"38 102 OFFCURVE",
"38 75 CURVE SMOOTH",
"38 34 OFFCURVE",
"70 2 OFFCURVE",
"127 2 CURVE SMOOTH"
);
},
{
closed = 1;
nodes = (
"621 0 OFFCURVE",
"663 35 OFFCURVE",
"663 88 CURVE SMOOTH",
"663 158 OFFCURVE",
"600 214 OFFCURVE",
"510 287 CURVE",
"347 159 LINE",
"424 79 OFFCURVE",
"496 0 OFFCURVE",
"566 0 CURVE SMOOTH"
);
}
);
width = 678;
}
);
unicode = 30B9;
},
{
glyphname = "se-kata";
lastChange = "2019-12-02 11:38:43 +0000";
layers = (
{
guideLines = (
{
position = "{241, 789}";
}
);
hints = (
{
horizontal = 1;
place = "{700, 180}";
type = Stem;
}
);
layerId = "09A42E70-DC24-4DD4-94A7-946B904CEA41";
paths = (
{
closed = 1;
nodes = (
"613 1 OFFCURVE",
"708 15 OFFCURVE",
"708 97 CURVE SMOOTH",
"708 148 OFFCURVE",
"657 171 OFFCURVE",
"593 171 CURVE SMOOTH",
"465 171 OFFCURVE",
"395 180 OFFCURVE",
"395 331 CURVE SMOOTH",
"395 372 OFFCURVE",
"401 458 OFFCURVE",
"401 533 CURVE SMOOTH",
"401 629 OFFCURVE",
"397 710 OFFCURVE",
"296 710 CURVE SMOOTH",
"177 710 OFFCURVE",
"181 550 OFFCURVE",
"181 401 CURVE SMOOTH",
"181 112 OFFCURVE",
"275 1 OFFCURVE",
"505 1 CURVE SMOOTH"
);
},
{
closed = 1;
nodes = (
"692 218 OFFCURVE",
"797 294 OFFCURVE",
"797 413 CURVE SMOOTH",
"797 578 OFFCURVE",
"667 596 OFFCURVE",
"418 596 CURVE SMOOTH",
"162 596 OFFCURVE",
"25 588 OFFCURVE",
"25 473 CURVE SMOOTH",
"25 352 OFFCURVE",
"181 365 OFFCURVE",
"347 365 CURVE SMOOTH",
"426 365 OFFCURVE",
"500 366 OFFCURVE",
"579 369 CURVE",
"554 345 OFFCURVE",
"532 315 OFFCURVE",
"532 291 CURVE SMOOTH",
"532 249 OFFCURVE",
"567 218 OFFCURVE",
"611 218 CURVE SMOOTH"
);
}
);
width = 822;
}
);
leftKerningGroup = "se-kata";
unicode = 30BB;
},
{
glyphname = "so-kata";
lastChange = "2019-12-02 11:38:43 +0000";
layers = (
{
guideLines = (
{
position = "{144, 789}";
}
);
hints = (
{
horizontal = 1;
place = "{700, 180}";
type = Stem;
},
{
horizontal = 1;
place = "{-144, 144}";
type = Stem;
}
);
layerId = "09A42E70-DC24-4DD4-94A7-946B904CEA41";
paths = (
{
closed = 1;
nodes = (
"591 35 OFFCURVE",
"741 283 OFFCURVE",
"741 494 CURVE SMOOTH",
"741 593 OFFCURVE",
"714 689 OFFCURVE",
"608 689 CURVE SMOOTH",
"537 689 OFFCURVE",
"498 628 OFFCURVE",
"490 551 CURVE SMOOTH",
"472 374 OFFCURVE",
"502 260 OFFCURVE",
"272 168 CURVE SMOOTH",
"232 152 OFFCURVE",
"213 121 OFFCURVE",
"213 93 CURVE SMOOTH",
"213 26 OFFCURVE",
"282 1 OFFCURVE",
"336 7 CURVE SMOOTH"
);
},
{
closed = 1;
nodes = (
"274 293 OFFCURVE",
"321 339 OFFCURVE",
"321 400 CURVE SMOOTH",
"321 513 OFFCURVE",
"226 685 OFFCURVE",
"131 685 CURVE SMOOTH",
"76 685 OFFCURVE",
"25 642 OFFCURVE",
"25 571 CURVE SMOOTH",
"25 449 OFFCURVE",
"113 293 OFFCURVE",
"217 293 CURVE SMOOTH"
);
}
);
width = 766;
}
);
leftKerningGroup = "so-kata";
unicode = 30BD;
},
{
glyphname = "ta-kata";
lastChange = "2019-12-02 11:38:43 +0000";
layers = (
{
guideLines = (
{
position = "{341, 0}";
}
);
hints = (
{
horizontal = 1;
place = "{700, 180}";
type = Stem;
}
);
layerId = "09A42E70-DC24-4DD4-94A7-946B904CEA41";
paths = (
{
closed = 1;
nodes = (
"403 0 OFFCURVE",
"720 124 OFFCURVE",
"720 490 CURVE SMOOTH",
"720 633 OFFCURVE",
"673 683 OFFCURVE",
"585 699 CURVE SMOOTH",
"520 708 OFFCURVE",
"377 706 OFFCURVE",
"352 705 CURVE SMOOTH",
"287 702 OFFCURVE",
"234 695 OFFCURVE",
"189 641 CURVE SMOOTH",
"159 605 OFFCURVE",
"117 529 OFFCURVE",
"77 454 CURVE SMOOTH",
"46 397 OFFCURVE",
"25 366 OFFCURVE",
"25 321 CURVE SMOOTH",
"25 273 OFFCURVE",
"54 244 OFFCURVE",
"107 244 CURVE SMOOTH",
"188 244 OFFCURVE",
"285 366 OFFCURVE",
"343 500 CURVE",
"504 500 LINE",
"497 348 OFFCURVE",
"420 225 OFFCURVE",
"264 183 CURVE SMOOTH",
"181 160 OFFCURVE",
"138 124 OFFCURVE",
"148 67 CURVE SMOOTH",
"156 14 OFFCURVE",
"208 3 OFFCURVE",
"270 2 CURVE SMOOTH"
);
},
{
closed = 1;
nodes = (
"470 188 OFFCURVE",
"522 205 OFFCURVE",
"522 272 CURVE SMOOTH",
"522 303 OFFCURVE",
"494 321 OFFCURVE",
"486 327 CURVE SMOOTH",
"447 351 OFFCURVE",
"272 466 OFFCURVE",
"238 466 CURVE SMOOTH",
"182 466 OFFCURVE",
"153 436 OFFCURVE",
"153 399 CURVE SMOOTH",
"153 374 OFFCURVE",
"159 345 OFFCURVE",
"187 326 CURVE SMOOTH",
"280 258 OFFCURVE",
"403 188 OFFCURVE",
"436 188 CURVE SMOOTH"
);
}
);
width = 745;
}
);
leftKerningGroup = "ta-kata";
unicode = 30BF;
},
{
glyphname = "ti-kata";
lastChange = "2019-12-02 11:38:43 +0000";
layers = (
{
guideLines = (
{
position = "{250, 789}";
}
);
hints = (
{
horizontal = 1;
place = "{700, 180}";
type = Stem;
}
);
layerId = "09A42E70-DC24-4DD4-94A7-946B904CEA41";
paths = (
{
closed = 1;
nodes = (
"474 0 OFFCURVE",
"512 166 OFFCURVE",
"512 315 CURVE SMOOTH",
"512 444 OFFCURVE",
"503 566 OFFCURVE",
"399 566 CURVE SMOOTH",
"346 566 OFFCURVE",
"297 528 OFFCURVE",
"297 489 CURVE SMOOTH",
"297 468 OFFCURVE",
"313 328 OFFCURVE",
"313 245 CURVE SMOOTH",
"313 185 OFFCURVE",
"299 147 OFFCURVE",
"245 129 CURVE SMOOTH",
"183 108 OFFCURVE",
"170 84 OFFCURVE",
"170 57 CURVE SMOOTH",
"170 30 OFFCURVE",
"200 0 OFFCURVE",
"257 0 CURVE SMOOTH"
);
},
{
closed = 1;
nodes = (
"651 176 OFFCURVE",
"721 192 OFFCURVE",
"721 273 CURVE SMOOTH",
"721 355 OFFCURVE",
"651 365 OFFCURVE",
"373 365 CURVE SMOOTH",
"95 365 OFFCURVE",
"25 355 OFFCURVE",
"25 273 CURVE SMOOTH",
"25 192 OFFCURVE",
"95 176 OFFCURVE",
"373 176 CURVE SMOOTH"
);
},
{
closed = 1;
nodes = (
"461 442 OFFCURVE",
"698 506 OFFCURVE",
"698 614 CURVE SMOOTH",
"698 684 OFFCURVE",
"643 718 OFFCURVE",
"586 718 CURVE SMOOTH",
"501 718 OFFCURVE",
"400 685 OFFCURVE",
"249 649 CURVE SMOOTH",
"131 621 OFFCURVE",
"29 607 OFFCURVE",
"29 523 CURVE SMOOTH",
"29 448 OFFCURVE",
"112 442 OFFCURVE",
"186 442 CURVE SMOOTH"
);
}
);
width = 748;
}
);
leftKerningGroup = "ti-kata";
unicode = 30C1;
},
{
glyphname = "tu-kata";
lastChange = "2019-12-02 11:38:43 +0000";
layers = (
{
hints = (
{
horizontal = 1;
place = "{700, 180}";
type = Stem;
}
);
layerId = "09A42E70-DC24-4DD4-94A7-946B904CEA41";
paths = (
{
closed = 1;
nodes = (
"655 1 OFFCURVE",
"798 261 OFFCURVE",
"798 485 CURVE SMOOTH",
"798 601 OFFCURVE",
"758 681 OFFCURVE",
"682 681 CURVE SMOOTH",
"565 681 OFFCURVE",
"559 584 OFFCURVE",
"559 455 CURVE SMOOTH",
"559 302 OFFCURVE",
"475 217 OFFCURVE",
"378 178 CURVE SMOOTH",
"319 154 OFFCURVE",
"292 130 OFFCURVE",
"292 80 CURVE SMOOTH",
"292 34 OFFCURVE",
"332 1 OFFCURVE",
"401 1 CURVE SMOOTH"
);
},
{
closed = 1;
nodes = (
"215 286 OFFCURVE",
"230 384 OFFCURVE",
"230 488 CURVE SMOOTH",
"230 586 OFFCURVE",
"215 690 OFFCURVE",
"125 690 CURVE SMOOTH",
"41 690 OFFCURVE",
"25 586 OFFCURVE",
"25 488 CURVE SMOOTH",
"25 384 OFFCURVE",
"41 286 OFFCURVE",
"125 286 CURVE SMOOTH"
);
},
{
closed = 1;
nodes = (
"446 286 OFFCURVE",
"467 384 OFFCURVE",
"467 488 CURVE SMOOTH",
"467 586 OFFCURVE",
"456 690 OFFCURVE",
"360 690 CURVE SMOOTH",
"268 690 OFFCURVE",
"263 586 OFFCURVE",
"263 488 CURVE SMOOTH",
"263 384 OFFCURVE",
"276 286 OFFCURVE",
"364 286 CURVE SMOOTH"
);
}
);
width = 823;
}
);
leftKerningGroup = "tu-kata";
unicode = 30C4;
},
{
glyphname = "te-kata";
lastChange = "2019-12-02 11:38:43 +0000";
layers = (
{
hints = (
{
horizontal = 1;
place = "{700, 180}";
type = Stem;
}
);
layerId = "09A42E70-DC24-4DD4-94A7-946B904CEA41";
paths = (
{
closed = 1;
nodes = (
"436 474 OFFCURVE",
"542 474 OFFCURVE",
"615 483 CURVE SMOOTH",
"670 490 OFFCURVE",
"725 511 OFFCURVE",
"725 585 CURVE SMOOTH",
"725 649 OFFCURVE",
"667 675 OFFCURVE",
"615 682 CURVE SMOOTH",
"551 691 OFFCURVE",
"429 696 OFFCURVE",
"385 696 CURVE SMOOTH",
"324 696 OFFCURVE",
"220 692 OFFCURVE",
"159 685 CURVE SMOOTH",
"96 678 OFFCURVE",
"32 649 OFFCURVE",
"32 585 CURVE SMOOTH",
"32 511 OFFCURVE",
"95 484 OFFCURVE",
"159 479 CURVE SMOOTH",
"220 474 OFFCURVE",
"324 474 OFFCURVE",
"385 474 CURVE SMOOTH"
);
},
{
closed = 1;
nodes = (
"439 20 OFFCURVE",
"486 119 OFFCURVE",
"486 232 CURVE SMOOTH",
"486 315 OFFCURVE",
"472 370 OFFCURVE",
"388 370 CURVE SMOOTH",
"309 370 OFFCURVE",
"293 329 OFFCURVE",
"293 260 CURVE SMOOTH",
"293 233 OFFCURVE",
"296 212 OFFCURVE",
"289 186 CURVE SMOOTH",
"273 127 OFFCURVE",
"166 139 OFFCURVE",
"166 70 CURVE SMOOTH",
"166 18 OFFCURVE",
"218 -8 OFFCURVE",
"296 2 CURVE SMOOTH"
);
},
{
closed = 1;
nodes = (
"440 219 OFFCURVE",
"569 218 OFFCURVE",
"641 232 CURVE SMOOTH",
"693 242 OFFCURVE",
"725 277 OFFCURVE",
"725 326 CURVE SMOOTH",
"725 372 OFFCURVE",
"687 396 OFFCURVE",
"635 406 CURVE SMOOTH",
"578 417 OFFCURVE",
"437 419 OFFCURVE",
"385 419 CURVE SMOOTH",
"319 419 OFFCURVE",
"185 415 OFFCURVE",
"126 403 CURVE SMOOTH",
"70 392 OFFCURVE",
"25 365 OFFCURVE",
"25 314 CURVE SMOOTH",
"25 254 OFFCURVE",
"70 234 OFFCURVE",
"126 227 CURVE SMOOTH",
"185 220 OFFCURVE",
"322 219 OFFCURVE",
"388 219 CURVE SMOOTH"
);
}
);
width = 750;
}
);
leftKerningGroup = "te-kata";
unicode = 30C6;
},
{
glyphname = "to-kata";
lastChange = "2019-12-02 11:51:10 +0000";
layers = (
{
hints = (
{
horizontal = 1;
place = "{700, 180}";
type = Stem;
}
);
layerId = "09A42E70-DC24-4DD4-94A7-946B904CEA41";
paths = (
{
closed = 1;
nodes = (
"216 1 OFFCURVE",
"262 23 OFFCURVE",
"281 76 CURVE SMOOTH",
"313 171 OFFCURVE",
"309 290 OFFCURVE",
"309 382 CURVE SMOOTH",
"309 496 OFFCURVE",
"314 559 OFFCURVE",
"293 621 CURVE SMOOTH",
"275 676 OFFCURVE",
"231 702 OFFCURVE",
"175 702 CURVE SMOOTH",
"122 702 OFFCURVE",
"73 676 OFFCURVE",
"59 621 CURVE SMOOTH",
"41 559 OFFCURVE",
"46 454 OFFCURVE",
"46 363 CURVE SMOOTH",
"46 312 OFFCURVE",
"43 127 OFFCURVE",
"65 76 CURVE SMOOTH",
"87 23 OFFCURVE",
"122 1 OFFCURVE",
"175 1 CURVE SMOOTH"
);
},
{
closed = 1;
nodes = (
"610 196 OFFCURVE",
"644 241 OFFCURVE",
"644 285 CURVE SMOOTH",
"644 343 OFFCURVE",
"601 381 OFFCURVE",
"496 411 CURVE SMOOTH",
"446 425 OFFCURVE",
"320 455 OFFCURVE",
"264 455 CURVE SMOOTH",
"216 455 OFFCURVE",
"155 438 OFFCURVE",
"155 350 CURVE SMOOTH",
"155 297 OFFCURVE",
"192 269 OFFCURVE",
"230 258 CURVE SMOOTH",
"359 220 OFFCURVE",
"474 196 OFFCURVE",
"550 196 CURVE SMOOTH"
);
}
);
width = 669;
}
);
leftKerningGroup = "to-kata";
unicode = 30C8;
},
{
glyphname = "na-kata";
lastChange = "2019-12-02 11:38:43 +0000";
layers = (
{
hints = (
{
horizontal = 1;
place = "{700, 180}";
type = Stem;
}
);
layerId = "09A42E70-DC24-4DD4-94A7-946B904CEA41";
paths = (
{
closed = 1;
nodes = (
"389 2 OFFCURVE",
"508 72 OFFCURVE",
"549 210 CURVE SMOOTH",
"566 273 OFFCURVE",
"565 392 OFFCURVE",
"565 558 CURVE SMOOTH",
"565 645 OFFCURVE",
"533 701 OFFCURVE",
"451 701 CURVE SMOOTH",
"375 701 OFFCURVE",
"333 642 OFFCURVE",
"333 558 CURVE SMOOTH",
"333 508 OFFCURVE",
"333 402 OFFCURVE",
"333 342 CURVE SMOOTH",
"333 266 OFFCURVE",
"324 206 OFFCURVE",
"255 177 CURVE SMOOTH",
"197 153 OFFCURVE",
"170 121 OFFCURVE",
"170 74 CURVE SMOOTH",
"170 25 OFFCURVE",
"220 2 OFFCURVE",
"270 2 CURVE SMOOTH"
);
},
{
closed = 1;
nodes = (
"706 281 OFFCURVE",
"840 283 OFFCURVE",
"840 404 CURVE SMOOTH",
"840 525 OFFCURVE",
"706 527 OFFCURVE",
"433 527 CURVE SMOOTH",
"159 527 OFFCURVE",
"25 525 OFFCURVE",
"25 404 CURVE SMOOTH",
"25 283 OFFCURVE",
"159 281 OFFCURVE",
"433 281 CURVE SMOOTH"
);
}
);
width = 865;
}
);
unicode = 30CA;
},
{
glyphname = "ni-kata";
lastChange = "2019-12-02 11:38:43 +0000";
layers = (
{
guideLines = (
{
position = "{359, 0}";
}
);
hints = (
{
horizontal = 1;
place = "{700, 180}";
type = Stem;
}
);
layerId = "09A42E70-DC24-4DD4-94A7-946B904CEA41";
paths = (
{
closed = 1;
nodes = (
"509 40 OFFCURVE",
"649 40 OFFCURVE",
"717 56 CURVE SMOOTH",
"760 66 OFFCURVE",
"801 98 OFFCURVE",
"801 148 CURVE SMOOTH",
"801 199 OFFCURVE",
"761 232 OFFCURVE",
"717 245 CURVE SMOOTH",
"653 264 OFFCURVE",
"509 269 OFFCURVE",
"421 269 CURVE SMOOTH",
"346 269 OFFCURVE",
"199 265 OFFCURVE",
"123 245 CURVE SMOOTH",
"69 231 OFFCURVE",
"25 199 OFFCURVE",
"25 148 CURVE SMOOTH",
"25 98 OFFCURVE",
"66 67 OFFCURVE",
"110 56 CURVE SMOOTH",
"165 42 OFFCURVE",
"341 40 OFFCURVE",
"421 40 CURVE SMOOTH"
);
},
{
closed = 1;
nodes = (
"506 448 OFFCURVE",
"595 445 OFFCURVE",
"654 465 CURVE SMOOTH",
"695 479 OFFCURVE",
"718 515 OFFCURVE",
"718 558 CURVE SMOOTH",
"718 596 OFFCURVE",
"687 629 OFFCURVE",
"654 644 CURVE SMOOTH",
"595 671 OFFCURVE",
"506 674 OFFCURVE",
"418 674 CURVE SMOOTH",
"343 674 OFFCURVE",
"257 675 OFFCURVE",
"179 644 CURVE SMOOTH",
"134 626 OFFCURVE",
"108 596 OFFCURVE",
"108 558 CURVE SMOOTH",
"108 515 OFFCURVE",
"135 480 OFFCURVE",
"179 467 CURVE SMOOTH",
"247 447 OFFCURVE",
"343 448 OFFCURVE",
"418 448 CURVE SMOOTH"
);
}
);
width = 826;
}
);
unicode = 30CB;
},
{
glyphname = "nu-kata";
lastChange = "2019-12-02 11:38:43 +0000";
layers = (
{
hints = (
{
horizontal = 1;
place = "{700, 180}";
type = Stem;
}
);
layerId = "09A42E70-DC24-4DD4-94A7-946B904CEA41";
paths = (
{
closed = 1;
nodes = (
"358 2 OFFCURVE",
"708 254 OFFCURVE",
"708 486 CURVE SMOOTH",
"708 658 OFFCURVE",
"598 694 OFFCURVE",
"372 694 CURVE SMOOTH",
"298 694 OFFCURVE",
"194 692 OFFCURVE",
"127 677 CURVE SMOOTH",
"54 661 OFFCURVE",
"25 621 OFFCURVE",
"25 574 CURVE SMOOTH",
"25 527 OFFCURVE",
"57 486 OFFCURVE",
"127 476 CURVE SMOOTH",
"194 466 OFFCURVE",
"459 465 OFFCURVE",
"498 465 CURVE",
"477 321 OFFCURVE",
"316 223 OFFCURVE",
"182 169 CURVE SMOOTH",
"125 146 OFFCURVE",
"83 130 OFFCURVE",
"83 78 CURVE SMOOTH",
"83 33 OFFCURVE",
"122 2 OFFCURVE",
"178 2 CURVE SMOOTH"
);
},
{
closed = 1;
nodes = (
"596 -2 OFFCURVE",
"632 34 OFFCURVE",
"632 77 CURVE SMOOTH",
"632 129 OFFCURVE",
"566 190 OFFCURVE",
"468 282 CURVE SMOOTH",
"411 336 OFFCURVE",
"332 416 OFFCURVE",
"272 416 CURVE SMOOTH",
"224 416 OFFCURVE",
"180 379 OFFCURVE",
"180 331 CURVE SMOOTH",
"180 282 OFFCURVE",
"234 229 OFFCURVE",
"311 156 CURVE SMOOTH",
"379 92 OFFCURVE",
"475 4 OFFCURVE",
"537 1 CURVE SMOOTH"
);
}
);
width = 733;
}
);
unicode = 30CC;
},
{
glyphname = "ne-kata";
lastChange = "2019-12-02 11:38:43 +0000";
layers = (
{
guideLines = (
{
position = "{296, 0}";
},
{
position = "{296, 63}";
}
);
hints = (
{
horizontal = 1;
place = "{700, 180}";
type = Stem;
},
{
horizontal = 1;
place = "{-144, 144}";
type = Stem;
}
);
layerId = "09A42E70-DC24-4DD4-94A7-946B904CEA41";
paths = (
{
closed = 1;
nodes = (
"248 68 OFFCURVE",
"605 178 OFFCURVE",
"605 375 CURVE SMOOTH",
"605 498 OFFCURVE",
"484 497 OFFCURVE",
"348 500 CURVE SMOOTH",
"306 501 OFFCURVE",
"165 505 OFFCURVE",
"102 489 CURVE SMOOTH",
"53 477 OFFCURVE",
"25 443 OFFCURVE",
"25 401 CURVE SMOOTH",
"25 354 OFFCURVE",
"52 326 OFFCURVE",
"102 317 CURVE SMOOTH",
"149 309 OFFCURVE",
"273 314 OFFCURVE",
"346 315 CURVE",
"263 243 OFFCURVE",
"130 222 OFFCURVE",
"65 190 CURVE SMOOTH",
"39 177 OFFCURVE",
"27 156 OFFCURVE",
"27 132 CURVE SMOOTH",
"27 80 OFFCURVE",
"69 57 OFFCURVE",
"114 60 CURVE SMOOTH"
);
},
{
closed = 1;
nodes = (
"437 1 OFFCURVE",
"425 86 OFFCURVE",
"425 181 CURVE SMOOTH",
"425 231 OFFCURVE",
"381 256 OFFCURVE",
"336 256 CURVE SMOOTH",
"249 256 OFFCURVE",
"242 202 OFFCURVE",
"242 119 CURVE SMOOTH",
"242 61 OFFCURVE",
"254 1 OFFCURVE",
"334 1 CURVE SMOOTH"
);
},
{
closed = 1;
nodes = (
"622 60 OFFCURVE",
"652 89 OFFCURVE",
"652 128 CURVE SMOOTH",
"652 165 OFFCURVE",
"629 189 OFFCURVE",
"593 210 CURVE SMOOTH",
"553 234 OFFCURVE",
"444 287 OFFCURVE",
"406 287 CURVE SMOOTH",
"357 287 OFFCURVE",
"325 246 OFFCURVE",
"325 207 CURVE SMOOTH",
"325 185 OFFCURVE",
"335 163 OFFCURVE",
"360 152 CURVE SMOOTH",
"390 139 OFFCURVE",
"532 60 OFFCURVE",
"581 60 CURVE SMOOTH"
);
},
{
closed = 1;
nodes = (
"274 536 OFFCURVE",
"382 536 OFFCURVE",
"405 536 CURVE SMOOTH",
"512 536 OFFCURVE",
"598 543 OFFCURVE",
"598 629 CURVE SMOOTH",
"598 723 OFFCURVE",
"492 729 OFFCURVE",
"370 729 CURVE SMOOTH",
"356 729 OFFCURVE",
"299 729 OFFCURVE",
"290 729 CURVE SMOOTH",
"172 729 OFFCURVE",
"48 724 OFFCURVE",
"48 629 CURVE SMOOTH",
"48 543 OFFCURVE",
"146 536 OFFCURVE",
"251 536 CURVE SMOOTH"
);
}
);
width = 677;
}
);
unicode = 30CD;
},
{
glyphname = "no-kata";
lastChange = "2019-12-02 11:48:01 +0000";
layers = (
{
hints = (
{
horizontal = 1;
place = "{700, 180}";
type = Stem;
}
);
layerId = "09A42E70-DC24-4DD4-94A7-946B904CEA41";
paths = (
{
closed = 1;
nodes = (
"330 1 OFFCURVE",
"590 225 OFFCURVE",
"590 534 CURVE SMOOTH",
"590 621 OFFCURVE",
"557 697 OFFCURVE",
"469 697 CURVE SMOOTH",
"389 697 OFFCURVE",
"356 635 OFFCURVE",
"346 572 CURVE SMOOTH",
"317 397 OFFCURVE",
"287 278 OFFCURVE",
"96 169 CURVE SMOOTH",
"54 145 OFFCURVE",
"25 125 OFFCURVE",
"25 76 CURVE SMOOTH",
"25 16 OFFCURVE",
"89 1 OFFCURVE",
"140 1 CURVE SMOOTH"
);
}
);
width = 615;
}
);
unicode = 30CE;
},
{
glyphname = "ha-kata";
lastChange = "2019-12-02 11:38:43 +0000";
layers = (
{
hints = (
{
horizontal = 1;
place = "{700, 180}";
type = Stem;
},
{
horizontal = 1;
place = "{-144, 144}";
type = Stem;
}
);
layerId = "09A42E70-DC24-4DD4-94A7-946B904CEA41";
paths = (
{
closed = 1;
nodes = (
"768 -1 OFFCURVE",
"796 43 OFFCURVE",
"796 93 CURVE SMOOTH",
"796 203 OFFCURVE",
"700 214 OFFCURVE",
"690 519 CURVE SMOOTH",
"687 613 OFFCURVE",
"646 679 OFFCURVE",
"565 679 CURVE SMOOTH",
"464 679 OFFCURVE",
"454 565 OFFCURVE",
"454 470 CURVE SMOOTH",
"454 237 OFFCURVE",
"551 -1 OFFCURVE",
"710 -1 CURVE SMOOTH"
);
},
{
closed = 1;
nodes = (
"278 1 OFFCURVE",
"370 240 OFFCURVE",
"370 470 CURVE SMOOTH",
"370 565 OFFCURVE",
"361 676 OFFCURVE",
"267 676 CURVE SMOOTH",
"190 676 OFFCURVE",
"142 613 OFFCURVE",
"139 519 CURVE SMOOTH",
"129 214 OFFCURVE",
"33 202 OFFCURVE",
"33 93 CURVE SMOOTH",
"33 42 OFFCURVE",
"72 1 OFFCURVE",
"119 1 CURVE SMOOTH"
);
}
);
width = 829;
}
);
leftKerningGroup = "ha-kata";
unicode = 30CF;
},
{
glyphname = "hi-kata";
lastChange = "2019-12-02 11:38:43 +0000";
layers = (
{
hints = (
{
horizontal = 1;
place = "{700, 180}";
type = Stem;
},
{
horizontal = 1;
place = "{-144, 144}";
type = Stem;
}
);
layerId = "09A42E70-DC24-4DD4-94A7-946B904CEA41";
paths = (
{
closed = 1;
nodes = (
"501 1 OFFCURVE",
"654 8 OFFCURVE",
"654 100 CURVE SMOOTH",
"654 174 OFFCURVE",
"589 187 OFFCURVE",
"524 187 CURVE SMOOTH",
"377 187 OFFCURVE",
"289 183 OFFCURVE",
"281 258 CURVE SMOOTH",
"277 297 OFFCURVE",
"277 319 OFFCURVE",
"277 404 CURVE SMOOTH",
"277 465 OFFCURVE",
"277 552 OFFCURVE",
"265 609 CURVE SMOOTH",
"253 667 OFFCURVE",
"222 707 OFFCURVE",
"157 707 CURVE SMOOTH",
"89 707 OFFCURVE",
"62 658 OFFCURVE",
"47 609 CURVE SMOOTH",
"27 545 OFFCURVE",
"25 452 OFFCURVE",
"25 383 CURVE SMOOTH",
"25 52 OFFCURVE",
"234 1 OFFCURVE",
"371 1 CURVE SMOOTH"
);
},
{
closed = 1;
nodes = (
"397 320 OFFCURVE",
"512 319 OFFCURVE",
"585 325 CURVE SMOOTH",
"642 330 OFFCURVE",
"669 373 OFFCURVE",
"669 415 CURVE SMOOTH",
"669 458 OFFCURVE",
"642 498 OFFCURVE",
"585 506 CURVE SMOOTH",
"512 516 OFFCURVE",
"397 516 OFFCURVE",
"220 516 CURVE SMOOTH",
"181 516 OFFCURVE",
"162 467 OFFCURVE",
"162 418 CURVE SMOOTH",
"162 368 OFFCURVE",
"182 320 OFFCURVE",
"220 320 CURVE SMOOTH"
);
}
);
width = 694;
}
);
leftKerningGroup = "hi-kata";
unicode = 30D2;
},
{
glyphname = "hu-kata";
lastChange = "2019-12-02 11:38:43 +0000";
layers = (
{
hints = (
{
horizontal = 1;
place = "{700, 180}";
type = Stem;
},
{
horizontal = 1;
place = "{-144, 144}";
type = Stem;
}
);
layerId = "09A42E70-DC24-4DD4-94A7-946B904CEA41";
paths = (
{
closed = 1;
nodes = (
"497 0 OFFCURVE",
"714 156 OFFCURVE",
"714 416 CURVE SMOOTH",
"714 625 OFFCURVE",
"564 655 OFFCURVE",
"340 655 CURVE SMOOTH",
"197 655 OFFCURVE",
"25 642 OFFCURVE",
"25 520 CURVE SMOOTH",
"25 422 OFFCURVE",
"118 414 OFFCURVE",
"220 414 CURVE SMOOTH",
"242 414 OFFCURVE",
"435 416 OFFCURVE",
"483 416 CURVE",
"483 286 OFFCURVE",
"374 203 OFFCURVE",
"280 175 CURVE SMOOTH",
"213 156 OFFCURVE",
"170 127 OFFCURVE",
"173 73 CURVE SMOOTH",
"176 20 OFFCURVE",
"227 0 OFFCURVE",
"277 0 CURVE SMOOTH"
);
}
);
width = 739;
}
);
leftKerningGroup = "hu-kata";
unicode = 30D5;
},
{
glyphname = "he-kata";
lastChange = "2019-12-02 11:38:43 +0000";
layers = (
{
hints = (
{
horizontal = 1;
place = "{700, 180}";
type = Stem;
},
{
horizontal = 1;
place = "{-144, 144}";
type = Stem;
}
);
layerId = "09A42E70-DC24-4DD4-94A7-946B904CEA41";
paths = (
{
closed = 1;
nodes = (
"826 43 OFFCURVE",
"866 86 OFFCURVE",
"866 134 CURVE SMOOTH",
"866 220 OFFCURVE",
"825 268 OFFCURVE",
"692 433 CURVE SMOOTH",
"564 592 OFFCURVE",
"483 623 OFFCURVE",
"390 623 CURVE SMOOTH",
"305 623 OFFCURVE",
"224 562 OFFCURVE",
"143 465 CURVE SMOOTH",
"88 400 OFFCURVE",
"25 326 OFFCURVE",
"25 246 CURVE SMOOTH",
"25 192 OFFCURVE",
"62 154 OFFCURVE",
"120 154 CURVE SMOOTH",
"205 154 OFFCURVE",
"278 281 OFFCURVE",
"374 408 CURVE",
"421 352 OFFCURVE",
"492 265 OFFCURVE",
"595 160 CURVE SMOOTH",
"670 83 OFFCURVE",
"712 43 OFFCURVE",
"782 43 CURVE SMOOTH"
);
}
);
width = 881;
}
);
leftKerningGroup = "he-kata";
unicode = 30D8;
},
{
glyphname = "ho-kata";
lastChange = "2019-12-02 11:38:43 +0000";
layers = (
{
hints = (
{
horizontal = 1;
place = "{700, 180}";
type = Stem;
},
{
horizontal = 1;
place = "{-144, 144}";
type = Stem;
}
);
layerId = "09A42E70-DC24-4DD4-94A7-946B904CEA41";
paths = (
{
closed = 1;
nodes = (
"464 384 OFFCURVE",
"632 388 OFFCURVE",
"683 393 CURVE SMOOTH",
"733 398 OFFCURVE",
"791 423 OFFCURVE",
"791 495 CURVE SMOOTH",
"791 565 OFFCURVE",
"736 593 OFFCURVE",
"683 602 CURVE SMOOTH",
"652 607 OFFCURVE",
"524 610 OFFCURVE",
"391 610 CURVE SMOOTH",
"269 610 OFFCURVE",
"162 607 OFFCURVE",
"135 602 CURVE SMOOTH",
"85 593 OFFCURVE",
"28 565 OFFCURVE",
"28 495 CURVE SMOOTH",
"28 423 OFFCURVE",
"77 400 OFFCURVE",
"135 390 CURVE SMOOTH",
"158 386 OFFCURVE",
"237 384 OFFCURVE",
"320 384 CURVE SMOOTH"
);
},
{
closed = 1;
nodes = (
"200 25 OFFCURVE",
"266 133 OFFCURVE",
"266 236 CURVE SMOOTH",
"266 291 OFFCURVE",
"243 345 OFFCURVE",
"179 345 CURVE SMOOTH",
"130 345 OFFCURVE",
"102 303 OFFCURVE",
"87 262 CURVE SMOOTH",
"67 208 OFFCURVE",
"25 173 OFFCURVE",
"25 118 CURVE SMOOTH",
"25 59 OFFCURVE",
"69 25 OFFCURVE",
"118 25 CURVE SMOOTH"
);
},
{
closed = 1;
nodes = (
"508 0 OFFCURVE",
"512 90 OFFCURVE",
"512 204 CURVE SMOOTH",
"512 362 OFFCURVE",
"512 515 OFFCURVE",
"512 585 CURVE SMOOTH",
"512 650 OFFCURVE",
"486 713 OFFCURVE",
"410 713 CURVE SMOOTH",
"336 713 OFFCURVE",
"308 662 OFFCURVE",
"308 595 CURVE SMOOTH",
"308 521 OFFCURVE",
"308 362 OFFCURVE",
"308 204 CURVE SMOOTH",
"308 90 OFFCURVE",
"315 0 OFFCURVE",
"410 0 CURVE SMOOTH"
);
},
{
closed = 1;
nodes = (
"751 25 OFFCURVE",
"791 60 OFFCURVE",
"791 115 CURVE SMOOTH",
"791 172 OFFCURVE",
"758 208 OFFCURVE",
"732 262 CURVE SMOOTH",
"712 304 OFFCURVE",
"689 345 OFFCURVE",
"630 345 CURVE SMOOTH",
"566 345 OFFCURVE",
"550 291 OFFCURVE",
"551 236 CURVE SMOOTH",
"553 133 OFFCURVE",
"616 25 OFFCURVE",
"703 25 CURVE SMOOTH"
);
}
);
width = 816;
}
);
leftKerningGroup = "ho-kata";
unicode = 30DB;
},
{
glyphname = "ma-kata";
lastChange = "2019-12-02 11:53:11 +0000";
layers = (
{
hints = (
{
horizontal = 1;
place = "{700, 180}";
type = Stem;
},
{
horizontal = 1;
place = "{-144, 144}";
type = Stem;
}
);
layerId = "09A42E70-DC24-4DD4-94A7-946B904CEA41";
paths = (
{
closed = 1;
nodes = (
"489 155 OFFCURVE",
"739 270 OFFCURVE",
"739 487 CURVE SMOOTH",
"739 663 OFFCURVE",
"579 690 OFFCURVE",
"389 690 CURVE SMOOTH",
"252 690 OFFCURVE",
"25 707 OFFCURVE",
"25 565 CURVE SMOOTH",
"25 469 OFFCURVE",
"125 451 OFFCURVE",
"196 448 CURVE SMOOTH",
"327 442 OFFCURVE",
"458 442 OFFCURVE",
"504 442 CURVE",
"459 335 OFFCURVE",
"335 311 OFFCURVE",
"335 253 CURVE SMOOTH",
"335 198 OFFCURVE",
"367 155 OFFCURVE",
"435 155 CURVE SMOOTH"
);
},
{
closed = 1;
nodes = (
"502 0 OFFCURVE",
"537 43 OFFCURVE",
"537 95 CURVE SMOOTH",
"537 167 OFFCURVE",
"391 369 OFFCURVE",
"284 369 CURVE SMOOTH",
"223 369 OFFCURVE",
"182 327 OFFCURVE",
"182 274 CURVE SMOOTH",
"182 177 OFFCURVE",
"345 0 OFFCURVE",
"439 0 CURVE SMOOTH"
);
}
);
width = 764;
}
);
unicode = 30DE;
},
{
glyphname = "mi-kata";
lastChange = "2019-12-02 11:51:28 +0000";
layers = (
{
hints = (
{
horizontal = 1;
place = "{700, 180}";
type = Stem;
},
{
horizontal = 1;
place = "{-144, 144}";
type = Stem;
}
);
layerId = "09A42E70-DC24-4DD4-94A7-946B904CEA41";
paths = (
{
closed = 1;
nodes = (
"577 451 OFFCURVE",
"611 492 OFFCURVE",
"611 538 CURVE SMOOTH",
"611 585 OFFCURVE",
"580 614 OFFCURVE",
"535 635 CURVE SMOOTH",
"452 673 OFFCURVE",
"304 688 OFFCURVE",
"197 688 CURVE SMOOTH",
"140 688 OFFCURVE",
"25 678 OFFCURVE",
"25 587 CURVE SMOOTH",
"25 539 OFFCURVE",
"58 507 OFFCURVE",
"116 495 CURVE SMOOTH",
"222 474 OFFCURVE",
"488 451 OFFCURVE",
"516 451 CURVE SMOOTH"
);
},
{
closed = 1;
nodes = (
"568 0 OFFCURVE",
"602 38 OFFCURVE",
"602 79 CURVE SMOOTH",
"602 126 OFFCURVE",
"576 156 OFFCURVE",
"523 172 CURVE SMOOTH",
"427 202 OFFCURVE",
"229 218 OFFCURVE",
"146 216 CURVE SMOOTH",
"67 214 OFFCURVE",
"28 177 OFFCURVE",
"28 133 CURVE SMOOTH",
"28 96 OFFCURVE",
"53 59 OFFCURVE",
"108 44 CURVE SMOOTH",
"182 24 OFFCURVE",
"426 0 OFFCURVE",
"499 0 CURVE SMOOTH"
);
},
{
closed = 1;
nodes = (
"549 228 OFFCURVE",
"583 266 OFFCURVE",
"583 308 CURVE SMOOTH",
"583 351 OFFCURVE",
"549 381 OFFCURVE",
"505 396 CURVE SMOOTH",
"420 424 OFFCURVE",
"265 434 OFFCURVE",
"180 434 CURVE SMOOTH",
"125 434 OFFCURVE",
"64 411 OFFCURVE",
"64 352 CURVE SMOOTH",
"64 298 OFFCURVE",
"101 280 OFFCURVE",
"147 269 CURVE SMOOTH",
"228 251 OFFCURVE",
"403 235 OFFCURVE",
"484 231 CURVE SMOOTH"
);
}
);
width = 636;
}
);
unicode = 30DF;
},
{
glyphname = "mu-kata";
lastChange = "2019-12-02 11:52:17 +0000";
layers = (
{
hints = (
{
horizontal = 1;
place = "{700, 180}";
type = Stem;
},
{
horizontal = 1;
place = "{-144, 144}";
type = Stem;
}
);
layerId = "09A42E70-DC24-4DD4-94A7-946B904CEA41";
paths = (
{
closed = 1;
nodes = (
"343 10 OFFCURVE",
"532 28 OFFCURVE",
"610 60 CURVE SMOOTH",
"693 95 OFFCURVE",
"672 202 OFFCURVE",
"610 223 CURVE SMOOTH",
"547 244 OFFCURVE",
"391 224 OFFCURVE",
"260 212 CURVE",
"309 279 OFFCURVE",
"495 475 OFFCURVE",
"495 586 CURVE SMOOTH",
"495 655 OFFCURVE",
"453 702 OFFCURVE",
"374 702 CURVE SMOOTH",
"235 702 OFFCURVE",
"25 340 OFFCURVE",
"25 211 CURVE SMOOTH",
"25 88 OFFCURVE",
"85 30 OFFCURVE",
"200 21 CURVE SMOOTH"
);
},
{
closed = 1;
nodes = (
"714 -14 OFFCURVE",
"765 13 OFFCURVE",
"771 72 CURVE SMOOTH",
"781 168 OFFCURVE",
"667 412 OFFCURVE",
"560 412 CURVE SMOOTH",
"504 412 OFFCURVE",
"460 372 OFFCURVE",
"460 314 CURVE SMOOTH",
"460 233 OFFCURVE",
"542 -2 OFFCURVE",
"658 -10 CURVE SMOOTH"
);
}
);
width = 797;
}
);
unicode = 30E0;
},
{
glyphname = "me-kata";
lastChange = "2019-12-02 11:52:16 +0000";
layers = (
{
hints = (
{
horizontal = 1;
place = "{700, 180}";
type = Stem;
},
{
horizontal = 1;
place = "{-144, 144}";
type = Stem;
}
);
layerId = "09A42E70-DC24-4DD4-94A7-946B904CEA41";
paths = (
{
closed = 1;
nodes = (
"299 0 OFFCURVE",
"705 402 OFFCURVE",
"705 582 CURVE SMOOTH",
"705 662 OFFCURVE",
"661 701 OFFCURVE",
"593 701 CURVE SMOOTH",
"475 701 OFFCURVE",
"418 473 OFFCURVE",
"248 311 CURVE SMOOTH",
"134 202 OFFCURVE",
"25 163 OFFCURVE",
"25 80 CURVE",
"25 27 OFFCURVE",
"58 0 OFFCURVE",
"126 0 CURVE SMOOTH"
);
},
{
closed = 1;
nodes = (
"663 13 OFFCURVE",
"681 59 OFFCURVE",
"681 99 CURVE SMOOTH",
"681 162 OFFCURVE",
"595 270 OFFCURVE",
"450 418 CURVE SMOOTH",
"380 489 OFFCURVE",
"256 614 OFFCURVE",
"179 614 CURVE SMOOTH",
"103 614 OFFCURVE",
"61 577 OFFCURVE",
"61 513 CURVE SMOOTH",
"61 424 OFFCURVE",
"194 318 OFFCURVE",
"305 214 CURVE SMOOTH",
"413 112 OFFCURVE",
"527 13 OFFCURVE",
"601 13 CURVE SMOOTH"
);
}
);
width = 730;
}
);
unicode = 30E1;
},
{
glyphname = "mo-kata";
lastChange = "2019-12-02 11:38:43 +0000";
layers = (
{
hints = (
{
horizontal = 1;
place = "{700, 180}";
type = Stem;
},
{
horizontal = 1;
place = "{-144, 144}";
type = Stem;
}
);
layerId = "09A42E70-DC24-4DD4-94A7-946B904CEA41";
paths = (
{
closed = 1;
nodes = (
"599 0 OFFCURVE",
"689 14 OFFCURVE",
"689 88 CURVE SMOOTH",
"689 133 OFFCURVE",
"655 155 OFFCURVE",
"602 155 CURVE SMOOTH",
"459 155 OFFCURVE",
"454 162 OFFCURVE",
"454 296 CURVE SMOOTH",
"454 366 OFFCURVE",
"463 457 OFFCURVE",
"467 565 CURVE SMOOTH",
"469 617 OFFCURVE",
"437 655 OFFCURVE",
"365 655 CURVE SMOOTH",
"315 655 OFFCURVE",
"266 623 OFFCURVE",
"263 570 CURVE SMOOTH",
"258 494 OFFCURVE",
"255 410 OFFCURVE",
"255 327 CURVE SMOOTH",
"255 174 OFFCURVE",
"269 0 OFFCURVE",
"494 0 CURVE SMOOTH"
);
},
{
closed = 1;
nodes = (
"584 223 OFFCURVE",
"723 213 OFFCURVE",
"723 322 CURVE SMOOTH",
"723 437 OFFCURVE",
"584 420 OFFCURVE",
"374 420 CURVE SMOOTH",
"164 420 OFFCURVE",
"25 432 OFFCURVE",
"25 321 CURVE SMOOTH",
"25 208 OFFCURVE",
"164 223 OFFCURVE",
"374 223 CURVE SMOOTH"
);
},
{
closed = 1;
nodes = (
"584 483 OFFCURVE",
"724 468 OFFCURVE",
"724 592 CURVE SMOOTH",
"724 715 OFFCURVE",
"584 710 OFFCURVE",
"374 710 CURVE SMOOTH",
"164 710 OFFCURVE",
"25 707 OFFCURVE",
"25 591 CURVE SMOOTH",
"25 468 OFFCURVE",
"164 483 OFFCURVE",
"374 483 CURVE SMOOTH"
);
}
);
width = 749;
}
);
unicode = 30E2;
},
{
glyphname = "ya-kata";
lastChange = "2019-12-02 11:38:43 +0000";
layers = (
{
hints = (
{
horizontal = 1;
place = "{700, 180}";
type = Stem;
},
{
horizontal = 1;
place = "{-144, 144}";
type = Stem;
}
);
layerId = "09A42E70-DC24-4DD4-94A7-946B904CEA41";
paths = (
{
closed = 1;
nodes = (
"724 166 OFFCURVE",
"837 345 OFFCURVE",
"837 450 CURVE SMOOTH",
"837 551 OFFCURVE",
"765 646 OFFCURVE",
"614 639 CURVE SMOOTH",
"507 634 OFFCURVE",
"141 523 OFFCURVE",
"55 472 CURVE SMOOTH",
"21 452 OFFCURVE",
"5 416 OFFCURVE",
"5 381 CURVE SMOOTH",
"5 326 OFFCURVE",
"43 272 OFFCURVE",
"112 272 CURVE SMOOTH",
"242 272 OFFCURVE",
"475 356 OFFCURVE",
"616 406 CURVE",
"581 367 OFFCURVE",
"520 306 OFFCURVE",
"520 248 CURVE SMOOTH",
"520 202 OFFCURVE",
"548 166 OFFCURVE",
"598 166 CURVE SMOOTH"
);
},
{
closed = 1;
nodes = (
"466 -3 OFFCURVE",
"498 27 OFFCURVE",
"498 82 CURVE SMOOTH",
"498 155 OFFCURVE",
"455 353 OFFCURVE",
"434 453 CURVE SMOOTH",
"392 622 OFFCURVE",
"368 708 OFFCURVE",
"273 708 CURVE SMOOTH",
"204 708 OFFCURVE",
"158 663 OFFCURVE",
"158 604 CURVE SMOOTH",
"158 474 OFFCURVE",
"266 144 OFFCURVE",
"319 59 CURVE SMOOTH",
"344 19 OFFCURVE",
"379 -3 OFFCURVE",
"414 -3 CURVE SMOOTH"
);
}
);
width = 848;
}
);
unicode = 30E4;
},
{
glyphname = "yu-kata";
lastChange = "2019-12-02 11:52:28 +0000";
layers = (
{
hints = (
{
horizontal = 1;
place = "{700, 180}";
type = Stem;
},
{
horizontal = 1;
place = "{-144, 144}";
type = Stem;
}
);
layerId = "09A42E70-DC24-4DD4-94A7-946B904CEA41";
paths = (
{
closed = 1;
nodes = (
"616 178 OFFCURVE",
"667 322 OFFCURVE",
"667 447 CURVE SMOOTH",
"667 652 OFFCURVE",
"507 691 OFFCURVE",
"329 691 CURVE SMOOTH",
"172 691 OFFCURVE",
"53 657 OFFCURVE",
"53 559 CURVE SMOOTH",
"53 492 OFFCURVE",
"114 462 OFFCURVE",
"164 457 CURVE SMOOTH",
"253 448 OFFCURVE",
"387 447 OFFCURVE",
"436 447 CURVE",
"426 383 OFFCURVE",
"390 242 OFFCURVE",
"367 161 CURVE SMOOTH",
"335 48 OFFCURVE",
"554 12 OFFCURVE",
"598 130 CURVE SMOOTH"
);
},
{
closed = 1;
nodes = (
"180 7 OFFCURVE",
"601 13 OFFCURVE",
"665 15 CURVE SMOOTH",
"798 21 OFFCURVE",
"822 202 OFFCURVE",
"669 219 CURVE SMOOTH",
"599 226 OFFCURVE",
"188 229 OFFCURVE",
"122 219 CURVE SMOOTH",
"-13 199 OFFCURVE",
"-1 32 OFFCURVE",
"122 15 CURVE SMOOTH"
);
}
);
width = 800;
}
);
unicode = 30E6;
},
{
glyphname = "yo-kata";
lastChange = "2019-12-02 11:52:25 +0000";
layers = (
{
hints = (
{
horizontal = 1;
place = "{700, 180}";
type = Stem;
},
{
horizontal = 1;
place = "{-144, 144}";
type = Stem;
}
);
layerId = "09A42E70-DC24-4DD4-94A7-946B904CEA41";
paths = (
{
closed = 1;
nodes = (
"468 1 OFFCURVE",
"692 0 OFFCURVE",
"692 340 CURVE SMOOTH",
"692 676 OFFCURVE",
"468 712 OFFCURVE",
"311 712 CURVE SMOOTH",
"179 712 OFFCURVE",
"25 684 OFFCURVE",
"25 583 CURVE SMOOTH",
"25 522 OFFCURVE",
"74 492 OFFCURVE",
"156 492 CURVE SMOOTH",
"199 492 OFFCURVE",
"387 489 OFFCURVE",
"447 489 CURVE",
"447 185 LINE",
"407 185 OFFCURVE",
"288 185 OFFCURVE",
"221 185 CURVE SMOOTH",
"129 185 OFFCURVE",
"54 184 OFFCURVE",
"54 113 CURVE SMOOTH",
"54 26 OFFCURVE",
"179 1 OFFCURVE",
"311 1 CURVE SMOOTH"
);
},
{
closed = 1;
nodes = (
"496 249 OFFCURVE",
"606 238 OFFCURVE",
"606 334 CURVE SMOOTH",
"606 438 OFFCURVE",
"496 429 OFFCURVE",
"331 429 CURVE SMOOTH",
"156 429 OFFCURVE",
"53 423 OFFCURVE",
"53 335 CURVE SMOOTH",
"53 245 OFFCURVE",
"156 249 OFFCURVE",
"331 249 CURVE SMOOTH"
);
}
);
width = 717;
}
);
unicode = 30E8;
},
